<?xml version="1.0" encoding="UTF-8" standalone="no"?>
<svg
   xmlns:dc="http://purl.org/dc/elements/1.1/"
   xmlns:cc="http://creativecommons.org/ns#"
   xmlns:rdf="http://www.w3.org/1999/02/22-rdf-syntax-ns#"
   xmlns:svg="http://www.w3.org/2000/svg"
   xmlns="http://www.w3.org/2000/svg"
   xmlns:xlink="http://www.w3.org/1999/xlink"
   xmlns:sodipodi="http://sodipodi.sourceforge.net/DTD/sodipodi-0.dtd"
   xmlns:inkscape="http://www.inkscape.org/namespaces/inkscape"
   width="63.341869mm"
   height="61.612774mm"
   viewBox="0 0 63.341869 61.612774"
   version="1.1"
   id="svg8"
   inkscape:version="1.0.2 (e86c870879, 2021-01-15)"
   sodipodi:docname="icon_picture.svg">
  <defs
     id="defs2">
    <linearGradient
       inkscape:collect="always"
       id="linearGradient2081">
      <stop
         style="stop-color:#eae0d9;stop-opacity:1"
         offset="0"
         id="stop2077" />
      <stop
         style="stop-color:#bda393;stop-opacity:1"
         offset="1"
         id="stop2079" />
    </linearGradient>
    <linearGradient
       inkscape:collect="always"
       id="linearGradient2071">
      <stop
         style="stop-color:#e0d0c6;stop-opacity:1"
         offset="0"
         id="stop2067" />
      <stop
         style="stop-color:#775e50;stop-opacity:1"
         offset="0.79775375"
         id="stop2075" />
      <stop
         style="stop-color:#ac998d;stop-opacity:1"
         offset="1"
         id="stop2069" />
    </linearGradient>
    <linearGradient
       inkscape:collect="always"
       id="linearGradient2055">
      <stop
         style="stop-color:#cad1d1;stop-opacity:1"
         offset="0"
         id="stop2051" />
      <stop
         style="stop-color:#d7dcdc;stop-opacity:1"
         offset="0.27937415"
         id="stop2059" />
      <stop
         style="stop-color:#b3bdbd;stop-opacity:1"
         offset="0.68584901"
         id="stop2061" />
      <stop
         style="stop-color:#ccd2d2;stop-opacity:1"
         offset="1"
         id="stop2053" />
    </linearGradient>
    <linearGradient
       inkscape:collect="always"
       id="linearGradient1633">
      <stop
         style="stop-color:#dfcabc;stop-opacity:1"
         offset="0"
         id="stop1629" />
      <stop
         style="stop-color:#b49d8d;stop-opacity:1"
         offset="1"
         id="stop1631" />
    </linearGradient>
    <clipPath
       clipPathUnits="userSpaceOnUse"
       id="clipPath1056">
      <path
         id="path1058"
         style="opacity:0.99777;fill:#007575;fill-opacity:1;stroke-width:20;stroke-linejoin:round;stroke-dasharray:20, 20"
         d="m 79.09233,68.893986 c -4.439214,0.0021 -8.703152,1.732696 -11.887129,4.826061 -1.961782,-1.463455 -4.343807,-2.254086 -6.791317,-2.254125 -6.272982,-1.59e-4 -11.358359,5.084987 -11.35848,11.357964 -5.6e-5,1.202809 0.190941,2.397988 0.565856,3.540869 -7.139443,0.921419 -12.484648,7.000478 -12.485026,14.199135 -1.88e-4,7.90768 6.410307,14.31816 14.317991,14.31798 H 71.005486 V 103.05676 H 63.089174 L 75.405215,81.724728 87.72126,103.05676 h -7.916312 v 11.82511 h 19.44584 c 6.212452,-1.9e-4 11.248502,-5.03647 11.248412,-11.24892 -1.1e-4,-5.575417 -4.08426,-10.309479 -9.59941,-11.126968 -0.82666,-2.78443 -2.480632,-5.251598 -4.742351,-7.073987 C 95.871334,76.216452 88.318007,68.893976 79.098013,68.893986 Z" />
    </clipPath>
    <filter
       inkscape:collect="always"
       style="color-interpolation-filters:sRGB"
       id="filter1397"
       x="-0.1103785"
       width="1.220757"
       y="-0.10399611"
       height="1.2079922">
      <feGaussianBlur
         inkscape:collect="always"
         stdDeviation="2.6697961"
         id="feGaussianBlur1399" />
    </filter>
    <linearGradient
       inkscape:collect="always"
       xlink:href="#linearGradient1633"
       id="linearGradient1635"
       x1="228.99098"
       y1="156.45604"
       x2="251.24748"
       y2="191.85666"
       gradientUnits="userSpaceOnUse" />
    <clipPath
       clipPathUnits="userSpaceOnUse"
       id="clipPath1853">
      <path
         id="path1855"
         style="opacity:0.99777;fill:url(#linearGradient1857);fill-opacity:1;stroke-width:35.1769;stroke-linejoin:round;stroke-dasharray:35.1769, 35.1769"
         d="m 231.23118,155.06772 29.72113,16.85399 c -9.04709,10.46225 -12.74555,18.4942 -17.38315,29.19196 -9.73066,-5.618 -19.99048,-11.23599 -29.72113,-16.85398 4.42805,-11.71875 12.35022,-24.06886 17.38315,-29.19197 z"
         sodipodi:nodetypes="ccccc" />
    </clipPath>
    <linearGradient
       inkscape:collect="always"
       xlink:href="#linearGradient1633"
       id="linearGradient1857"
       gradientUnits="userSpaceOnUse"
       x1="228.99098"
       y1="156.45604"
       x2="251.24748"
       y2="191.85666" />
    <clipPath
       clipPathUnits="userSpaceOnUse"
       id="clipPath1403-6">
      <path
         id="path1405-2"
         style="opacity:0.99777;fill:#e3d6ce;fill-opacity:1;stroke-width:18.1701;stroke-linejoin:round;stroke-dasharray:18.1701, 18.1701"
         d="m 210.07792,66.15181 c 14.06691,-3.013678 26.64946,-1.729639 38.73275,-1.828665 1.64388,16.138647 5.40444,32.277294 7.04832,48.415935 -12.91091,-1.56358 -25.82183,-0.85393 -38.73275,1.82867 -1.64388,-16.138649 -5.40444,-32.277296 -7.04832,-48.41594 z"
         sodipodi:nodetypes="ccccc" />
    </clipPath>
    <clipPath
       clipPathUnits="userSpaceOnUse"
       id="clipPath1853-8">
      <path
         id="path1855-7"
         style="opacity:0.99777;fill:url(#linearGradient1857);fill-opacity:1;stroke-width:35.1769;stroke-linejoin:round;stroke-dasharray:35.1769, 35.1769"
         d="m 231.23118,155.06772 29.72113,16.85399 c -9.04709,10.46225 -12.74555,18.4942 -17.38315,29.19196 -9.73066,-5.618 -19.99048,-11.23599 -29.72113,-16.85398 4.42805,-11.71875 12.35022,-24.06886 17.38315,-29.19197 z"
         sodipodi:nodetypes="ccccc" />
    </clipPath>
    <linearGradient
       inkscape:collect="always"
       xlink:href="#linearGradient2055"
       id="linearGradient2057"
       x1="191.96866"
       y1="73.279747"
       x2="165.58815"
       y2="115.43376"
       gradientUnits="userSpaceOnUse" />
    <linearGradient
       inkscape:collect="always"
       xlink:href="#linearGradient2071"
       id="linearGradient2073"
       x1="298.61374"
       y1="99.595192"
       x2="297.37686"
       y2="67.556953"
       gradientUnits="userSpaceOnUse"
       gradientTransform="matrix(1.2326326,0,0,1.2326326,-54.870979,-15.819053)" />
    <linearGradient
       inkscape:collect="always"
       xlink:href="#linearGradient2081"
       id="linearGradient2087"
       gradientUnits="userSpaceOnUse"
       x1="236.95692"
       y1="110.34055"
       x2="236.0316"
       y2="72.044434"
       gradientTransform="matrix(1.2326326,0,0,1.2326326,-54.870979,-15.819053)" />
    <clipPath
       clipPathUnits="userSpaceOnUse"
       id="clipPath878">
      <path
         id="path880"
         style="opacity:0.99777;fill:#e3d6ce;fill-opacity:1;stroke-width:18.1701;stroke-linejoin:round;stroke-dasharray:18.1701, 18.1701"
         d="m 210.07792,66.15181 c 14.06691,-3.013678 31.94113,-1.729639 44.02442,-1.828665 1.64388,16.138647 5.40444,32.277294 7.04832,48.415935 -12.91091,-1.56358 -31.1135,-0.85393 -44.02442,1.82867 -1.64388,-16.138649 -5.40444,-32.277296 -7.04832,-48.41594 z"
         sodipodi:nodetypes="ccccc" />
    </clipPath>
    <filter
       inkscape:collect="always"
       style="color-interpolation-filters:sRGB"
       id="filter962"
       x="-0.10672018"
       width="1.2134404"
       y="-0.12005777"
       height="1.2401155">
      <feGaussianBlur
         inkscape:collect="always"
         stdDeviation="2.3298771"
         id="feGaussianBlur964" />
    </filter>
    <filter
       inkscape:collect="always"
       style="color-interpolation-filters:sRGB"
       id="filter985"
       x="-0.11464993"
       width="1.2292999"
       y="-0.14099056"
       height="1.2819811">
      <feGaussianBlur
         inkscape:collect="always"
         stdDeviation="2.119047"
         id="feGaussianBlur987" />
    </filter>
    <clipPath
       clipPathUnits="userSpaceOnUse"
       id="clipPath1006">
      <path
         id="path1008"
         style="opacity:0.99777;fill:#d7dcdc;fill-opacity:1;stroke-width:18.1701;stroke-linejoin:round;stroke-dasharray:18.1701, 18.1701"
         d="m 164.79849,58.586886 c -2.03003,1.871587 -3.90173,4.028676 -5.65702,6.396509 -2.49905,0.289321 -4.93857,0.668512 -7.27191,1.168404 0.2967,2.91282 0.66361,5.825664 1.07332,8.738485 -4.42132,8.141103 -8.2608,17.332679 -12.47779,25.842866 5.18317,2.9925 11.49748,5.98524 17.89348,8.97775 0.20323,1.61893 0.39424,3.23813 0.55914,4.85706 2.25,-0.4675 4.66348,-0.874 7.17889,-1.22008 4.80552,2.28393 9.42161,4.56786 13.37748,6.85178 1.38348,-2.67241 2.71371,-5.43421 4.02766,-8.22172 6.90607,-0.17771 13.69728,0.0656 19.44067,0.76119 -0.9819,-9.63967 -2.71661,-19.279483 -4.30671,-28.919159 1.60821,-2.124816 3.31939,-4.068947 5.17126,-5.766573 -2.05476,-1.186315 -4.28884,-2.372641 -6.63267,-3.558956 -0.49294,-3.390465 -0.93519,-6.781007 -1.28054,-10.171472 -5.8201,0.0477 -12.98645,-0.222146 -20.42098,-0.181384 -3.82289,-1.851593 -7.46723,-3.703108 -10.67428,-5.5547 z" />
    </clipPath>
    <linearGradient
       inkscape:collect="always"
       xlink:href="#linearGradient2055"
       id="linearGradient1010"
       gradientUnits="userSpaceOnUse"
       x1="191.96866"
       y1="73.279747"
       x2="165.58815"
       y2="115.43376" />
  </defs>
  <sodipodi:namedview
     id="base"
     pagecolor="#ffffff"
     bordercolor="#666666"
     borderopacity="1.0"
     inkscape:pageopacity="1"
     inkscape:pageshadow="2"
     inkscape:zoom="1.1327029"
     inkscape:cx="38.592282"
     inkscape:cy="59.5741"
     inkscape:document-units="mm"
     inkscape:current-layer="g2005"
     inkscape:document-rotation="0"
     showgrid="false"
     inkscape:snap-global="false"
     inkscape:snap-bbox="true"
     inkscape:bbox-paths="true"
     inkscape:bbox-nodes="true"
     inkscape:snap-bbox-edge-midpoints="true"
     inkscape:snap-bbox-midpoints="true"
     inkscape:snap-smooth-nodes="true"
     inkscape:snap-midpoints="true"
     inkscape:object-paths="true"
     inkscape:window-width="1920"
     inkscape:window-height="1003"
     inkscape:window-x="0"
     inkscape:window-y="40"
     inkscape:window-maximized="1" />
  <metadata
     id="metadata5">
    <rdf:RDF>
      <cc:Work
         rdf:about="">
        <dc:format>image/svg+xml</dc:format>
        <dc:type
           rdf:resource="http://purl.org/dc/dcmitype/StillImage" />
        <dc:title></dc:title>
      </cc:Work>
    </rdf:RDF>
  </metadata>
  <g
     inkscape:label="Layer 1"
     inkscape:groupmode="layer"
     id="layer1"
     transform="translate(-138.39215,-64.926373)">
    <g
       id="g2005"
       transform="translate(-2.0729362,6.3394869)">
      <g
         id="g1004"
         clip-path="url(#clipPath1006)"
         transform="matrix(0.8617416,0,0,0.8617416,23.799251,12.35937)">
        <path
           id="path1078"
           style="opacity:0.99777;fill:#d7dcdc;fill-opacity:1;stroke-width:18.1701;stroke-linejoin:round;stroke-dasharray:18.1701, 18.1701"
           d="m 151.86955,66.15181 c 14.06691,-3.013678 31.94113,-1.729639 44.02442,-1.828664 1.64388,16.138646 5.40444,32.277292 7.04832,48.415934 -12.91091,-1.56358 -31.1135,-0.85393 -44.02442,1.82867 -1.64388,-16.138649 -5.40444,-32.277295 -7.04832,-48.41594 z"
           sodipodi:nodetypes="ccccc" />
        <path
           id="path975"
           style="opacity:0.99777;fill:#d5ee8e;fill-opacity:0.714402;stroke-width:35.1768;stroke-linejoin:round;stroke-dasharray:35.1768, 35.1768;filter:url(#filter985)"
           d="m 154.73341,68.486215 c 10.94369,-2.317453 27.4506,-2.452429 38.82613,-1.299164 l 5.53249,33.534449 c -11.84066,-0.738999 -28.29814,0.39396 -39.35529,1.82833 z"
           sodipodi:nodetypes="ccccc"
           transform="matrix(1.0159919,0,0,1.0159919,0.87499758,1.8234584)" />
        <path
           id="path1080"
           style="opacity:0.99777;fill:#869d45;fill-opacity:1;stroke-width:35.1768;stroke-linejoin:round;stroke-dasharray:35.1768, 35.1768"
           d="m 154.73341,68.486215 c 10.94369,-2.317453 27.4506,-2.452429 38.82613,-1.299164 l 5.53249,33.534449 c -11.84066,-0.738999 -28.29814,0.39396 -39.35529,1.82833 z"
           sodipodi:nodetypes="ccccc" />
        <path
           id="path1315"
           style="opacity:0.99777;fill:#768787;fill-opacity:0.449706;stroke-width:18.1701;stroke-linejoin:round;stroke-dasharray:18.1701, 18.1701;filter:url(#filter1397)"
           d="m 224.59425,59.116053 c 11.23904,6.48886 22.47808,12.977725 33.71712,19.466585 -10.57629,9.695368 -16.64143,27.288482 -24.33323,42.146402 -11.23904,-6.48886 -22.47808,-12.97773 -33.71712,-19.46659 7.50445,-15.144525 13.81371,-32.447896 24.33323,-42.146397 z"
           sodipodi:nodetypes="ccccc"
           clip-path="url(#clipPath878)"
           transform="translate(-58.208336)" />
        <path
           id="rect1060"
           style="opacity:0.99777;fill:url(#linearGradient1010);fill-opacity:1;stroke-width:18.1701;stroke-linejoin:round;stroke-dasharray:18.1701, 18.1701"
           d="m 164.79837,58.586886 c 11.23904,6.48886 27.76975,12.977725 39.00879,19.466585 -10.57629,9.695368 -16.64143,27.288479 -24.33323,42.146399 -11.23904,-6.48886 -27.76975,-12.97773 -39.00879,-19.46659 7.50445,-15.144522 13.81371,-32.447893 24.33323,-42.146394 z"
           sodipodi:nodetypes="ccccc" />
        <path
           id="path882"
           style="opacity:0.99777;fill:#c9e96c;fill-opacity:0.625734;stroke-width:35.1768;stroke-linejoin:round;stroke-dasharray:35.1768, 35.1768;filter:url(#filter962)"
           d="m 165.22545,61.626578 35.0128,16.85399 c -9.04709,10.462252 -13.27472,19.02336 -17.91232,29.721132 -9.73066,-5.618 -24.75298,-11.765164 -34.48363,-17.383159 4.42805,-11.718745 12.35022,-24.068851 17.38315,-29.191963 z"
           sodipodi:nodetypes="ccccc"
           transform="matrix(1.1894191,0,0,1.1894191,-29.791554,-13.967694)" />
        <path
           id="rect1064"
           style="opacity:0.99777;fill:#869d45;fill-opacity:1;stroke-width:35.1768;stroke-linejoin:round;stroke-dasharray:35.1768, 35.1768"
           d="m 165.22545,61.626578 35.0128,16.85399 c -9.04709,10.462252 -13.27472,19.02336 -17.91232,29.721132 -9.73066,-5.618 -24.75298,-11.765164 -34.48363,-17.383159 4.42805,-11.718745 12.35022,-24.068851 17.38315,-29.191963 z"
           sodipodi:nodetypes="ccccc" />
      </g>
      <g
         id="g1851"
         clip-path="url(#clipPath1853)"
         transform="translate(-66.00573,-93.441141)" />
    </g>
  </g>
</svg>
