<?xml version="1.0" encoding="UTF-8" standalone="no"?>
<svg
   xmlns:dc="http://purl.org/dc/elements/1.1/"
   xmlns:cc="http://creativecommons.org/ns#"
   xmlns:rdf="http://www.w3.org/1999/02/22-rdf-syntax-ns#"
   xmlns:svg="http://www.w3.org/2000/svg"
   xmlns="http://www.w3.org/2000/svg"
   xmlns:xlink="http://www.w3.org/1999/xlink"
   xmlns:sodipodi="http://sodipodi.sourceforge.net/DTD/sodipodi-0.dtd"
   xmlns:inkscape="http://www.inkscape.org/namespaces/inkscape"
   width="137.91405mm"
   height="137.91405mm"
   viewBox="0 0 137.91405 137.91405"
   version="1.1"
   id="svg8"
   sodipodi:docname="icon_add copy.svg"
   inkscape:version="1.0.2 (e86c870879, 2021-01-15)">
  <path
     id="path1213"
     mask="none"
     style="fill:#000000;fill-opacity:0.359746;stroke-width:0.329488;stroke-linecap:round;stroke-linejoin:round;filter:url(#filter1439)"
     d="m 70.856231,34.076346 c -1.39057,7.4e-4 -2.78143,0.0537 -3.83698,0.15917 -5.8596,0.58541 -10.78781,2.41181 -13.57385,4.21886 -1.72518,1.11897 -2.45255,4.52208 -2.45256,6.64456 -3e-5,1.82204 1e-5,3.97488 0,5.88698 a 31.12705,13.922782 0 0 0 -11.24996,10.71407 31.12705,13.922782 0 0 0 12.06748,11.0076 c 0.64867,3.14059 2.05443,6.00341 4.01733,8.39173 -7.54243,3.11006 -14.33529,8.32018 -19.78639,14.47457 h -0.002 c -2.27951,2.57375 -4.32564,5.311824 -6.0911,8.132334 -2.04986,3.27486 -2.43087,9.41943 0.47749,11.86182 14.6416,12.29571 64.97906,12.38018 80.559429,-0.19586 2.96835,-2.39599 2.85671,-8.39071 0.80665,-11.66545 -1.76584,-2.82075 -3.81257,-5.559084 -6.09264,-8.132844 h -10e-4 c -5.45134,-6.15343 -12.244609,-11.36222 -19.786909,-14.4725 1.9638,-2.38874 3.36952,-5.2523 4.01836,-8.3938 a 31.12705,13.922782 0 0 0 12.067489,-11.0076 31.12705,13.922782 0 0 0 -10.991579,-10.61744 v -5.9986 c -3e-5,-2.12255 -0.74853,-5.51284 -2.48306,-6.61665 -2.85104,-1.81434 -7.90495,-3.65443 -13.82913,-4.23643 -1.05572,-0.10371 -2.4464,-0.15525 -3.83697,-0.15452 z"
     clip-path="url(#clipPath1452)" />
  <rect
     style="fill:#8f7fdd;fill-opacity:1;stroke-width:0.499999;stroke-linecap:round;stroke-linejoin:round;stroke-opacity:0.545322"
     id="rect1078"
     width="113.4806"
     height="113.4806"
     x="0"
     y="0"
     mask="url(#mask1116)"
     transform="translate(12.216727,12.216727)" />
  <path
     id="path971"
     style="fill:url(#radialGradient1027);fill-opacity:1;stroke-width:0.914493;stroke-linecap:round;stroke-linejoin:round"
     d="M 51.593083,76.866012 C 40.895679,81.277 31.703505,89.909066 25.716118,99.474968 h -0.004 c -0.0256,0.04096 -0.0498,0.08425 -0.0749,0.12609 -1.23012,1.976322 -2.32642,3.990842 -3.2675,6.016692 -0.889557,1.91495 0.22376,3.52602 2.32596,3.5419 0.34036,0.8654 0.83096,1.61742 1.495,2.17506 14.641591,12.29571 64.979011,12.38017 80.559372,-0.19585 0.63685,-0.51405 1.13094,-1.19471 1.49552,-1.97766 h 0.29817 c 2.12247,0 3.251,-1.61902 2.35697,-3.54345 -0.94088,-2.02529 -2.03722,-4.03899 -3.26699,-6.014623 -0.0254,-0.04254 -0.0499,-0.08648 -0.076,-0.128159 h -0.004 C 101.56587,89.909807 92.373609,81.27945 81.676245,76.868079 c -2.799847,3.405711 -6.732064,5.845844 -11.222564,6.739125 -2.078347,0.413438 -5.557877,0.413409 -7.636214,0 C 58.32592,82.713786 54.39284,80.272891 51.592833,76.866012 Z" />
  <path
     id="path1066"
     style="fill:url(#radialGradient1416);fill-opacity:1;stroke-width:0.914493;stroke-linecap:round;stroke-linejoin:round"
     d="m 51.593093,76.866012 c -7.399247,3.051025 -14.073561,8.125625 -19.470628,14.12782 h -10e-4 c -0.10432,0.116014 -0.21134,0.230049 -0.31471,0.346749 h -0.002 c -0.0958,0.108188 -0.18871,0.21835 -0.2837,0.327113 -0.0676,0.0774 -0.13489,0.154858 -0.20205,0.232544 -0.29673,0.343141 -0.58912,0.689179 -0.87747,1.037662 -0.0329,0.03978 -0.0675,0.07849 -0.10025,0.11834 v 0.0021 c -1.69787,2.062464 -3.249367,4.212682 -4.627627,6.414595 -2.04985,3.274855 -2.43087,9.419435 0.4775,11.861805 14.641591,12.29572 64.979011,12.38018 80.559372,-0.19585 2.96836,-2.39598 2.85673,-8.3907 0.80667,-11.665439 -0.55203,-0.881803 -1.13447,-1.754227 -1.73995,-2.617412 -0.0384,-0.05478 -0.0766,-0.10963 -0.11523,-0.16433 -0.16683,-0.23617 -0.33575,-0.471392 -0.50643,-0.7059 -0.0471,-0.06474 -0.0947,-0.129178 -0.14211,-0.193786 -0.161,-0.219398 -0.32247,-0.438468 -0.4868,-0.656292 -0.096,-0.127412 -0.19377,-0.254002 -0.29093,-0.380854 -0.12837,-0.167444 -0.25572,-0.335349 -0.38603,-0.50178 -0.0803,-0.102695 -0.16283,-0.204142 -0.24391,-0.30644 -0.14277,-0.180139 -0.28545,-0.360119 -0.43046,-0.538985 -0.11391,-0.140388 -0.22994,-0.27952 -0.3452,-0.419095 -0.14248,-0.172633 -0.28488,-0.345422 -0.42943,-0.516766 -0.10752,-0.127368 -0.21641,-0.253701 -0.32505,-0.380338 -0.15189,-0.177134 -0.30479,-0.353515 -0.45888,-0.529167 -0.0646,-0.07358 -0.12728,-0.148376 -0.19223,-0.221692 h -0.001 c -0.0268,-0.03027 -0.0544,-0.05995 -0.0817,-0.08992 -5.436811,-6.114436 -12.199878,-11.287525 -19.705245,-14.382586 -2.799847,3.405711 -6.732064,5.845844 -11.222564,6.739125 -2.078357,0.413438 -5.557877,0.413409 -7.636224,0 C 58.32629,82.713815 54.3932,80.27292 51.593193,76.866041 Z" />
  <path
     id="ellipse1038"
     style="fill:url(#linearGradient1418);fill-opacity:1;stroke-width:0.329489;stroke-linecap:round;stroke-linejoin:round"
     d="m 66.621565,29.84302 c -1.390569,7.29e-4 -2.781529,0.05368 -3.837078,0.159128 -5.859601,0.585415 -10.787828,2.412077 -13.573874,4.219132 -1.725182,1.118968 -2.452203,4.521847 -2.452218,6.644328 -2.9e-5,1.822044 1.5e-5,3.974869 0,5.886969 a 31.127051,13.922782 0 0 1 19.877433,-3.208822 31.127051,13.922782 0 0 1 20.13489,3.30565 v -5.99881 C 86.770689,38.728043 86.022257,35.337854 84.287736,34.23404 81.43669,32.419701 76.382067,30.579651 70.457887,29.997644 69.402179,29.893935 68.012133,29.842291 66.621565,29.84302 Z" />
  <path
     id="path1016"
     style="fill:url(#radialGradient1115);fill-opacity:1;stroke-width:0.355222;stroke-linecap:round;stroke-linejoin:round"
     d="m 361.60964,69.605712 a 21.429937,9.5853709 0 0 0 -21.43022,9.585461 21.429937,9.5853709 0 0 0 8.30802,7.578349 c -0.007,-0.0318 -0.0143,-0.0632 -0.0207,-0.09509 -0.28464,-1.430866 -0.28364,-3.827031 0.003,-5.257559 0.0909,-0.454117 0.20525,-0.903375 0.34261,-1.345655 0.4327,-1.393235 2.16467,-2.774894 3.59358,-3.078882 2.06944,-0.440253 4.2845,-0.729181 6.55981,-0.85576 1.45881,-0.08116 3.82976,-0.08116 5.28856,0 2.27531,0.126576 4.49037,0.415507 6.55981,0.85576 1.42892,0.30399 3.1604,1.685637 3.59306,3.078882 0.13735,0.44227 0.25177,0.891548 0.34262,1.345655 0.28619,1.430533 0.28722,3.826698 0.003,5.257559 -0.006,0.03189 -0.0141,0.06328 -0.0207,0.09509 a 21.429937,9.5853709 0 0 0 8.30802,-7.578349 21.429937,9.5853709 0 0 0 -21.4297,-9.585461 z"
     mask="url(#mask1410)"
     transform="matrix(1.4525032,0,0,1.4525032,-458.60333,-57.558762)" />
  <path
     id="path1083"
     style="fill:url(#radialGradient1085);fill-opacity:1;stroke-width:0.51596;stroke-linecap:round;stroke-linejoin:round"
     d="m 63.990548,52.973515 c -4.158727,0.158683 -8.20315,0.689921 -11.891864,1.561408 -1.421929,0.335942 -3.143301,1.713272 -3.66127,3.07844 -0.522268,1.376497 -0.886696,2.807891 -1.086251,4.26655 -0.197912,1.446653 -0.198414,3.828644 -0.0024,5.275572 1.170592,8.639388 8.009663,15.478363 16.64907,16.648832 1.446921,0.196029 3.828828,0.196015 5.275756,-3.6e-5 8.639299,-1.170573 15.478238,-8.009511 16.648811,-16.648812 0.196048,-1.446919 0.195575,-3.828903 -0.0023,-5.275561 -0.199518,-1.458643 -0.563905,-2.890025 -1.086129,-4.266517 -0.517932,-1.365181 -2.239279,-2.742527 -3.661211,-3.078469 -3.688714,-0.871486 -7.733137,-1.402725 -11.891863,-1.561408 -1.4601,-0.05571 -3.83028,-0.05571 -5.290382,10e-7 z"
     inkscape:path-effect="#path-effect889"
     inkscape:original-d="M 66.635741,52.923131 A 31.12705,13.922782 0 0 0 49.540999,55.210914 19.464045,19.464045 0 0 0 47.171545,64.5176 19.464045,19.464045 0 0 0 66.635741,83.981535 19.464045,19.464045 0 0 0 86.09969,64.5176 19.464045,19.464045 0 0 0 83.730483,55.210914 31.12705,13.922782 0 0 0 66.635741,52.923131 Z" />
  <path
     id="path1031"
     style="fill:#8f7fdd;fill-opacity:1;stroke-width:0.329489;stroke-linecap:round;stroke-linejoin:round"
     d="m 56.24367,21.330459 c -1.390568,7.32e-4 -2.781529,0.05367 -3.837077,0.159128 -5.859601,0.585415 -10.787843,2.412076 -13.573875,4.219132 -1.725181,1.118968 -2.452203,4.521847 -2.452217,6.644328 -2.9e-5,1.822044 1.4e-5,3.974869 0,5.886969 a 31.127051,13.922782 0 0 0 -11.250029,10.71409 31.127051,13.922782 0 0 0 12.067425,11.007576 c 0.648659,3.14059 2.054333,6.003408 4.017231,8.39173 -12.952566,5.340887 -23.703137,16.868888 -29.223187,28.7518 -0.893972,1.924451 0.23442,3.543598 2.35689,3.543598 h 83.817443 c 2.122466,0 3.250896,-1.619162 2.356886,-3.543598 C 95.002664,85.222038 84.251214,73.697094 71.298488,68.355663 c 1.963799,-2.388739 3.36988,-5.252481 4.018728,-8.393981 A 31.127051,13.922782 0 0 0 87.384641,48.954106 31.127051,13.922782 0 0 0 76.392823,38.336844 v -5.99881 c -2.9e-5,-2.122552 -0.74846,-5.512741 -2.482981,-6.616555 C 71.058796,23.90714 66.004927,22.06709 60.080748,21.485083 59.025025,21.381374 57.634239,21.329727 56.24367,21.330459 Z"
     mask="url(#mask1125)"
     transform="translate(-143.08047,8.5125606)" />
  <sodipodi:namedview
     pagecolor="#ffffff"
     bordercolor="#666666"
     borderopacity="1"
     objecttolerance="10"
     gridtolerance="10"
     guidetolerance="10"
     inkscape:pageopacity="0"
     inkscape:pageshadow="2"
     inkscape:window-width="1920"
     inkscape:window-height="1003"
     id="namedview98"
     showgrid="false"
     inkscape:zoom="0.69719879"
     inkscape:cx="392.99322"
     inkscape:cy="545.96487"
     inkscape:window-x="0"
     inkscape:window-y="40"
     inkscape:window-maximized="1"
     inkscape:current-layer="svg8"
     inkscape:document-rotation="0"
     inkscape:snap-bbox="true"
     inkscape:bbox-nodes="true"
     inkscape:bbox-paths="true"
     inkscape:snap-bbox-edge-midpoints="true"
     inkscape:snap-bbox-midpoints="true"
     inkscape:snap-page="true"
     inkscape:snap-global="true"
     inkscape:pagecheckerboard="true" />
  <defs
     id="defs2">
    <inkscape:path-effect
       effect="fillet_chamfer"
       id="path-effect1034"
       is_visible="true"
       lpeversion="1"
       satellites_param="F,0,0,1,0,7,0,1 @ F,0,0,1,0,7,0,1 @ F,0,0,1,0,7,0,1 @ F,0,0,1,0,7,0,1 @ F,0,0,1,0,7,0,1 @ F,0,0,1,0,7,0,1 @ F,0,0,1,0,7,0,1 @ F,0,0,1,0,7,0,1 @ F,0,0,1,0,7,0,1 @ F,0,0,1,0,7,0,1 @ F,0,0,1,0,7,0,1 @ F,0,0,1,0,7,0,1 @ F,0,0,1,0,7,0,1 @ F,0,0,1,0,7,0,1 @ F,0,0,1,0,7,0,1 @ F,0,0,1,0,7,0,1 @ F,0,0,1,0,7,0,1"
       unit="px"
       method="auto"
       mode="F"
       radius="7"
       chamfer_steps="1"
       flexible="false"
       use_knot_distance="true"
       apply_no_radius="true"
       apply_with_radius="true"
       only_selected="false"
       hide_knots="false" />
    <inkscape:path-effect
       effect="fillet_chamfer"
       id="path-effect1052"
       is_visible="true"
       lpeversion="1"
       satellites_param="F,0,0,1,0,0,0,1 @ F,0,0,1,0,0,0,1 @ F,0,0,1,0,0,0,1 @ F,0,0,1,0,0,0,1 @ F,0,0,1,0,0,0,1 @ F,0,0,1,0,0,0,1 @ F,0,0,1,0,0,0,1 @ F,0,0,1,0,0,0,1 @ F,0,0,1,0,0,0,1 @ F,0,0,1,0,0,0,1 @ F,0,0,1,0,0,0,1 @ F,0,0,1,0,0,0,1 @ F,0,0,1,0,0,0,1 @ F,0,0,1,0,0,0,1 @ F,0,0,1,0,0,0,1 @ F,0,0,1,0,0,0,1 @ F,0,0,1,0,0,0,1"
       unit="px"
       method="auto"
       mode="F"
       radius="20"
       chamfer_steps="1"
       flexible="false"
       use_knot_distance="true"
       apply_no_radius="true"
       apply_with_radius="true"
       only_selected="false"
       hide_knots="false" />
    <linearGradient
       id="linearGradient1422">
      <stop
         style="stop-color:#000000;stop-opacity:0"
         offset="0"
         id="stop1414" />
      <stop
         style="stop-color:#000000;stop-opacity:0"
         offset="0.80091453"
         id="stop1416" />
      <stop
         style="stop-color:#000000;stop-opacity:0.17520872"
         offset="0.92558855"
         id="stop1418" />
      <stop
         style="stop-color:#000000;stop-opacity:0"
         offset="1"
         id="stop1420" />
    </linearGradient>
    <linearGradient
       id="linearGradient1263">
      <stop
         style="stop-color:#000000;stop-opacity:0"
         offset="0"
         id="stop1257" />
      <stop
         style="stop-color:#000000;stop-opacity:0"
         offset="0.81566936"
         id="stop1259" />
      <stop
         style="stop-color:#000000;stop-opacity:0.17596535"
         offset="0.9375422"
         id="stop1266" />
      <stop
         style="stop-color:#000000;stop-opacity:0"
         offset="1"
         id="stop1261" />
    </linearGradient>
    <linearGradient
       id="linearGradient1248">
      <stop
         style="stop-color:#000000;stop-opacity:0.015898"
         offset="0"
         id="stop1242" />
      <stop
         style="stop-color:#000000;stop-opacity:0"
         offset="0.82121748"
         id="stop1244" />
      <stop
         style="stop-color:#000000;stop-opacity:0.11088927"
         offset="0.91586751"
         id="stop1253" />
      <stop
         style="stop-color:#000000;stop-opacity:0"
         offset="1"
         id="stop1246" />
    </linearGradient>
    <linearGradient
       id="linearGradient1238">
      <stop
         style="stop-color:#d7dcdc;stop-opacity:0"
         offset="0"
         id="stop1232" />
      <stop
         style="stop-color:#000000;stop-opacity:0"
         offset="0.86700016"
         id="stop1234" />
      <stop
         style="stop-color:#000000;stop-opacity:0.11533621"
         offset="0.94155282"
         id="stop1240" />
      <stop
         style="stop-color:#000000;stop-opacity:0"
         offset="1"
         id="stop1236" />
    </linearGradient>
    <linearGradient
       id="linearGradient1228">
      <stop
         style="stop-color:#000000;stop-opacity:0"
         offset="0"
         id="stop1222" />
      <stop
         style="stop-color:#000000;stop-opacity:0"
         offset="0.84025705"
         id="stop1224" />
      <stop
         style="stop-color:#000000;stop-opacity:0.10980392;"
         offset="0.92558855"
         id="stop1230" />
      <stop
         style="stop-color:#000000;stop-opacity:0"
         offset="1"
         id="stop1226" />
    </linearGradient>
    <linearGradient
       id="linearGradient962">
      <stop
         style="stop-color:#000000;stop-opacity:0"
         offset="0"
         id="stop956" />
      <stop
         style="stop-color:#000000;stop-opacity:0"
         offset="0.39585069"
         id="stop958" />
      <stop
         style="stop-color:#000000;stop-opacity:0.06431347"
         offset="1"
         id="stop960" />
    </linearGradient>
    <linearGradient
       id="linearGradient954">
      <stop
         style="stop-color:#000000;stop-opacity:0.015898"
         offset="0"
         id="stop948" />
      <stop
         style="stop-color:#000000;stop-opacity:0"
         offset="0.55483967"
         id="stop950" />
      <stop
         style="stop-color:#000000;stop-opacity:0.23042163"
         offset="1"
         id="stop952" />
    </linearGradient>
    <linearGradient
       id="linearGradient946">
      <stop
         style="stop-color:#000000;stop-opacity:0"
         offset="0"
         id="stop942" />
      <stop
         style="stop-color:#000000;stop-opacity:0.13457058"
         offset="1"
         id="stop944" />
    </linearGradient>
    <linearGradient
       id="linearGradient1267">
      <stop
         style="stop-color:#000000;stop-opacity:0"
         offset="0"
         id="stop1263" />
      <stop
         style="stop-color:#000000;stop-opacity:0.20883313"
         offset="1"
         id="stop1265" />
    </linearGradient>
    <linearGradient
       id="linearGradient1256">
      <stop
         style="stop-color:#000000;stop-opacity:0.015898"
         offset="0"
         id="stop1250" />
      <stop
         style="stop-color:#000000;stop-opacity:0"
         offset="0.51299739"
         id="stop1252" />
      <stop
         style="stop-color:#000000;stop-opacity:0.37983471"
         offset="1"
         id="stop1254" />
    </linearGradient>
    <linearGradient
       id="linearGradient1245">
      <stop
         style="stop-color:#000000;stop-opacity:0"
         offset="0"
         id="stop1239" />
      <stop
         style="stop-color:#000000;stop-opacity:0"
         offset="0.41412431"
         id="stop1241" />
      <stop
         style="stop-color:#000000;stop-opacity:0.33949977"
         offset="1"
         id="stop1243" />
    </linearGradient>
    <linearGradient
       id="linearGradient1237">
      <stop
         style="stop-color:#000000;stop-opacity:0"
         offset="0"
         id="stop1231" />
      <stop
         style="stop-color:#000000;stop-opacity:0"
         offset="0.51299739"
         id="stop1233" />
      <stop
         style="stop-color:#000000;stop-opacity:0.25302622"
         offset="1"
         id="stop1235" />
    </linearGradient>
    <linearGradient
       id="linearGradient1229">
      <stop
         style="stop-color:#d7dcdc;stop-opacity:0"
         offset="0"
         id="stop1223" />
      <stop
         style="stop-color:#d7dcdc;stop-opacity:0"
         offset="0.60050982"
         id="stop1225" />
      <stop
         style="stop-color:#000000;stop-opacity:0.36812824"
         offset="1"
         id="stop1227" />
    </linearGradient>
    <linearGradient
       id="linearGradient1215">
      <stop
         style="stop-color:#000000;stop-opacity:0"
         offset="0"
         id="stop1209" />
      <stop
         style="stop-color:#000000;stop-opacity:0"
         offset="0.56007522"
         id="stop1211" />
      <stop
         style="stop-color:#000000;stop-opacity:0.22974694"
         offset="1"
         id="stop1213" />
    </linearGradient>
    <linearGradient
       id="linearGradient2000">
      <stop
         style="stop-color:#c3c9ca;stop-opacity:0"
         offset="0"
         id="stop1996" />
      <stop
         style="stop-color:#bfc5c6;stop-opacity:1"
         offset="1"
         id="stop1998" />
    </linearGradient>
    <linearGradient
       id="linearGradient2081">
      <stop
         style="stop-color:#eae0d9;stop-opacity:1"
         offset="0"
         id="stop2077" />
      <stop
         style="stop-color:#bda393;stop-opacity:1"
         offset="1"
         id="stop2079" />
    </linearGradient>
    <linearGradient
       id="linearGradient2071">
      <stop
         style="stop-color:#e0d0c6;stop-opacity:1"
         offset="0"
         id="stop2067" />
      <stop
         style="stop-color:#775e50;stop-opacity:1"
         offset="0.79775375"
         id="stop2075" />
      <stop
         style="stop-color:#ac998d;stop-opacity:1"
         offset="1"
         id="stop2069" />
    </linearGradient>
    <linearGradient
       id="linearGradient1633">
      <stop
         style="stop-color:#dfcabc;stop-opacity:1"
         offset="0"
         id="stop1629" />
      <stop
         style="stop-color:#b49d8d;stop-opacity:1"
         offset="1"
         id="stop1631" />
    </linearGradient>
    <radialGradient
       xlink:href="#linearGradient1256"
       id="radialGradient991"
       cx="55.463581"
       cy="95.66851"
       fx="55.463581"
       fy="95.66851"
       r="14.317653"
       gradientUnits="userSpaceOnUse"
       gradientTransform="matrix(9.5295084,0,0,9.5295046,-420.5415,-802.35343)" />
    <radialGradient
       xlink:href="#linearGradient1245"
       id="radialGradient999"
       cx="62.462048"
       cy="81.904831"
       fx="62.462048"
       fy="81.904831"
       r="11.358187"
       gradientUnits="userSpaceOnUse"
       gradientTransform="matrix(8.3247632,0,0,5.4525876,-406.44691,-384.66175)" />
    <radialGradient
       xlink:href="#linearGradient1237"
       id="radialGradient1009"
       cx="77.046272"
       cy="91.977089"
       fx="77.046272"
       fy="91.977089"
       r="17.067635"
       gradientUnits="userSpaceOnUse"
       gradientTransform="matrix(9.0501245,0,0,9.0501245,-553.61561,-720.69391)" />
    <radialGradient
       xlink:href="#linearGradient1229"
       id="radialGradient1017"
       cx="84.360237"
       cy="100.13211"
       fx="84.360237"
       fy="100.13211"
       r="14.317653"
       gradientUnits="userSpaceOnUse"
       gradientTransform="matrix(5.6335221,-0.86367506,1.3764276,8.9780703,-441.50757,-703.83257)" />
    <radialGradient
       xlink:href="#linearGradient1215"
       id="radialGradient1025"
       cx="95.26223"
       cy="102.5803"
       fx="95.26223"
       fy="102.5803"
       r="11.248749"
       gradientUnits="userSpaceOnUse"
       gradientTransform="matrix(2.2611175,0,0,2.261116,-125.16666,-130.69324)" />
    <clipPath
       clipPathUnits="userSpaceOnUse"
       id="clipPath1403">
      <path
         id="path1405"
         style="opacity:0.99777;fill:#e3d6ce;fill-opacity:1;stroke-width:18.1701;stroke-linejoin:round;stroke-dasharray:18.1701, 18.1701"
         d="m 210.07792,66.15181 c 14.06691,-3.013678 26.64946,-1.729639 38.73275,-1.828665 1.64388,16.138647 5.40444,32.277294 7.04832,48.415935 -12.91091,-1.56358 -25.82183,-0.85393 -38.73275,1.82867 -1.64388,-16.138649 -5.40444,-32.277296 -7.04832,-48.41594 z" />
    </clipPath>
    <clipPath
       clipPathUnits="userSpaceOnUse"
       id="clipPath1853">
      <path
         id="path1855"
         style="opacity:0.99777;fill:url(#linearGradient1857);fill-opacity:1;stroke-width:35.1769;stroke-linejoin:round;stroke-dasharray:35.1769, 35.1769"
         d="m 231.23118,155.06772 29.72113,16.85399 c -9.04709,10.46225 -12.74555,18.4942 -17.38315,29.19196 -9.73066,-5.618 -19.99048,-11.23599 -29.72113,-16.85398 4.42805,-11.71875 12.35022,-24.06886 17.38315,-29.19197 z" />
    </clipPath>
    <linearGradient
       xlink:href="#linearGradient1633"
       id="linearGradient1857"
       gradientUnits="userSpaceOnUse"
       x1="228.99098"
       y1="156.45604"
       x2="251.24748"
       y2="191.85666" />
    <clipPath
       clipPathUnits="userSpaceOnUse"
       id="clipPath1403-6">
      <path
         id="path1405-2"
         style="opacity:0.99777;fill:#e3d6ce;fill-opacity:1;stroke-width:18.1701;stroke-linejoin:round;stroke-dasharray:18.1701, 18.1701"
         d="m 210.07792,66.15181 c 14.06691,-3.013678 26.64946,-1.729639 38.73275,-1.828665 1.64388,16.138647 5.40444,32.277294 7.04832,48.415935 -12.91091,-1.56358 -25.82183,-0.85393 -38.73275,1.82867 -1.64388,-16.138649 -5.40444,-32.277296 -7.04832,-48.41594 z" />
    </clipPath>
    <clipPath
       clipPathUnits="userSpaceOnUse"
       id="clipPath1853-8">
      <path
         id="path1855-7"
         style="opacity:0.99777;fill:url(#linearGradient1857);fill-opacity:1;stroke-width:35.1769;stroke-linejoin:round;stroke-dasharray:35.1769, 35.1769"
         d="m 231.23118,155.06772 29.72113,16.85399 c -9.04709,10.46225 -12.74555,18.4942 -17.38315,29.19196 -9.73066,-5.618 -19.99048,-11.23599 -29.72113,-16.85398 4.42805,-11.71875 12.35022,-24.06886 17.38315,-29.19197 z" />
    </clipPath>
    <linearGradient
       xlink:href="#linearGradient2071"
       id="linearGradient2073"
       x1="298.61374"
       y1="99.595192"
       x2="297.37686"
       y2="67.556953"
       gradientUnits="userSpaceOnUse"
       gradientTransform="matrix(1.2326326,0,0,1.2326326,-54.870979,-15.819053)" />
    <linearGradient
       xlink:href="#linearGradient2081"
       id="linearGradient2087"
       gradientUnits="userSpaceOnUse"
       x1="236.95692"
       y1="110.34055"
       x2="236.0316"
       y2="72.044434"
       gradientTransform="matrix(1.2326326,0,0,1.2326326,-54.870979,-15.819053)" />
    <clipPath
       clipPathUnits="userSpaceOnUse"
       id="clipPath2004">
      <path
         id="path2006"
         style="opacity:0.99777;fill:url(#linearGradient2008);fill-opacity:1;stroke-width:20;stroke-linejoin:round;stroke-dasharray:20, 20"
         d="m 79.09233,68.893988 c -4.439214,0.002 -8.703152,1.73269 -11.887129,4.826057 -1.961782,-1.463457 -4.343808,-2.254087 -6.791318,-2.254127 -6.272982,-1.6e-4 -11.358358,5.084987 -11.35848,11.357964 -5.6e-5,1.20281 0.190942,2.397987 0.565856,3.540867 -7.139442,0.92142 -12.484647,7.000487 -12.485025,14.199141 -1.88e-4,7.90768 6.410306,14.31817 14.31799,14.31799 h 47.796559 c 6.212457,-1.9e-4 11.248517,-5.03648 11.248417,-11.24893 -1.1e-4,-5.575417 -4.08426,-10.309484 -9.59942,-11.126974 -0.82665,-2.78443 -2.480617,-5.251597 -4.742347,-7.073987 -0.286099,-9.215544 -7.839429,-16.538011 -17.05942,-16.538001 z" />
    </clipPath>
    <linearGradient
       xlink:href="#linearGradient2000"
       id="linearGradient2008"
       gradientUnits="userSpaceOnUse"
       x1="103.4381"
       y1="81.385971"
       x2="110.39199"
       y2="114.74387" />
    <clipPath
       clipPathUnits="userSpaceOnUse"
       id="clipPath2004-2">
      <path
         id="path2006-8"
         style="opacity:0.99777;fill:url(#linearGradient2008);fill-opacity:1;stroke-width:20;stroke-linejoin:round;stroke-dasharray:20, 20"
         d="m 79.09233,68.893988 c -4.439214,0.002 -8.703152,1.73269 -11.887129,4.826057 -1.961782,-1.463457 -4.343808,-2.254087 -6.791318,-2.254127 -6.272982,-1.6e-4 -11.358358,5.084987 -11.35848,11.357964 -5.6e-5,1.20281 0.190942,2.397987 0.565856,3.540867 -7.139442,0.92142 -12.484647,7.000487 -12.485025,14.199141 -1.88e-4,7.90768 6.410306,14.31817 14.31799,14.31799 h 47.796559 c 6.212457,-1.9e-4 11.248517,-5.03648 11.248417,-11.24893 -1.1e-4,-5.575417 -4.08426,-10.309484 -9.59942,-11.126974 -0.82665,-2.78443 -2.480617,-5.251597 -4.742347,-7.073987 -0.286099,-9.215544 -7.839429,-16.538011 -17.05942,-16.538001 z" />
    </clipPath>
    <radialGradient
       xlink:href="#linearGradient962"
       id="radialGradient1260"
       gradientUnits="userSpaceOnUse"
       gradientTransform="matrix(8.3247631,0,0,5.4525875,-406.4469,-384.66175)"
       cx="62.462048"
       cy="81.904831"
       fx="62.462048"
       fy="81.904831"
       r="11.358187" />
    <linearGradient
       xlink:href="#linearGradient946"
       id="linearGradient1271"
       gradientUnits="userSpaceOnUse"
       x1="108.29301"
       y1="97.490997"
       x2="110.39199"
       y2="114.74387"
       gradientTransform="translate(67.891966,-0.51987842)" />
    <filter
       style="color-interpolation-filters:sRGB"
       id="filter1386"
       x="-0.22843622"
       width="1.4568723"
       y="-0.16345029"
       height="1.3269006">
      <feGaussianBlur
         stdDeviation="8.2226723"
         id="feGaussianBlur1388" />
    </filter>
    <clipPath
       clipPathUnits="userSpaceOnUse"
       id="clipPath1402">
      <path
         id="path1404"
         style="opacity:0.99777;fill:url(#linearGradient1406);fill-opacity:1;stroke-width:20;stroke-linejoin:round;stroke-dasharray:20, 20"
         d="m 79.09233,68.893988 c -4.439214,0.002 -8.703152,1.73269 -11.887132,4.826057 -1.961779,-1.463457 -4.343805,-2.254087 -6.791315,-2.254127 -6.272982,-1.6e-4 -11.358358,5.084987 -11.35848,11.357964 -5.6e-5,1.20281 0.190943,2.397987 0.565857,3.540867 -7.139442,0.92142 -12.484648,7.000487 -12.485026,14.199131 -1.88e-4,7.90768 6.410305,14.31817 14.317989,14.31799 h 17.451132 a 2.1001301,2.1001301 0 0 0 2.100131,-2.10013 v -7.62486 a 2.1001301,2.1001301 0 0 0 -2.100131,-2.10013 h -3.716054 a 1.2125112,1.2125112 0 0 1 -1.050065,-1.81901 L 74.35515,83.543732 a 1.2125097,1.2125097 0 0 1 1.018543,-0.60616 1.2125097,1.2125097 0 0 1 1.081588,0.60616 l 10.215914,17.694008 a 1.2125111,1.2125111 0 0 1 -1.050065,1.81901 h -3.716052 a 2.1001301,2.1001301 0 0 0 -2.10013,2.10013 v 7.62486 a 2.1001301,2.1001301 0 0 0 2.10013,2.10013 h 17.34571 c 6.212452,-1.9e-4 11.248512,-5.03647 11.248412,-11.24892 -1.1e-4,-5.575417 -4.08426,-10.309484 -9.59942,-11.126974 -0.82665,-2.78443 -2.480611,-5.251597 -4.742341,-7.073987 C 95.871337,76.216445 88.318004,68.893978 79.098013,68.893988 Z" />
    </clipPath>
    <linearGradient
       xlink:href="#linearGradient1267"
       id="linearGradient1406"
       gradientUnits="userSpaceOnUse"
       x1="103.4381"
       y1="81.385971"
       x2="110.39199"
       y2="114.74387" />
    <radialGradient
       xlink:href="#linearGradient954"
       id="radialGradient1415"
       gradientUnits="userSpaceOnUse"
       gradientTransform="matrix(9.5295084,0,0,9.5295046,-420.5415,-802.35343)"
       cx="55.463581"
       cy="95.66851"
       fx="55.463581"
       fy="95.66851"
       r="14.317653" />
    <filter
       style="color-interpolation-filters:sRGB"
       id="filter1733"
       x="-0.025765169"
       width="1.0515302"
       y="-0.040775757"
       height="1.0815516">
      <feGaussianBlur
         stdDeviation="0.79832612"
         id="feGaussianBlur1735" />
    </filter>
    <clipPath
       clipPathUnits="userSpaceOnUse"
       id="clipPath1739">
      <path
         id="path1741"
         style="opacity:0.99777;fill:#ffffff;fill-opacity:1;stroke-width:20;stroke-linejoin:round;stroke-dasharray:20, 20"
         d="m 80.150663,-9.4226781 c -4.439214,0.00212 -8.703151,1.7326901 -11.887131,4.8260583 -1.96178,-1.4634581 -4.343806,-2.2540886 -6.791316,-2.2541283 -6.272982,-1.588e-4 -11.358358,5.0849874 -11.35848,11.3579645 -5.6e-5,1.2028091 0.190943,2.3979875 0.565857,3.5408658 -7.139442,0.9214221 -12.484648,7.0004888 -12.485026,14.1991318 -1.88e-4,7.907682 6.410305,14.318171 14.317989,14.317991 h 17.451133 a 2.1001301,2.1001301 0 0 0 2.10013,-2.100131 v -7.62486 a 2.1001301,2.1001301 0 0 0 -2.10013,-2.10013 H 66.247634 A 1.2125112,1.2125112 0 0 1 65.197569,22.921073 L 75.413484,5.2270656 a 1.2125097,1.2125097 0 0 1 1.018542,-0.6061604 1.2125097,1.2125097 0 0 1 1.081588,0.6061604 L 87.729528,22.921073 a 1.2125111,1.2125111 0 0 1 -1.050065,1.819011 h -3.716052 a 2.1001301,2.1001301 0 0 0 -2.10013,2.10013 v 7.62486 a 2.1001301,2.1001301 0 0 0 2.10013,2.100131 h 17.345709 c 6.21245,-1.91e-4 11.24851,-5.036471 11.24841,-11.24892 -1.1e-4,-5.575419 -4.08426,-10.309484 -9.59942,-11.126975 C 101.13146,11.40488 99.477502,8.9377146 97.215772,7.1153228 96.92967,-2.1002205 89.376337,-9.4226886 80.156346,-9.4226781 Z" />
    </clipPath>
    <filter
       style="color-interpolation-filters:sRGB"
       id="filter1091"
       x="-0.048623525"
       width="1.097247"
       y="-0.076951221"
       height="1.1539024">
      <feGaussianBlur
         stdDeviation="1.5065857"
         id="feGaussianBlur1089" />
    </filter>
    <clipPath
       clipPathUnits="userSpaceOnUse"
       id="clipPath1149">
      <path
         id="path1151"
         style="opacity:0.99777;fill:#ffffff;fill-opacity:1;stroke-width:20;stroke-linejoin:round;stroke-dasharray:20, 20"
         d="m 79.09233,21.268991 c -4.439214,0.0021 -8.703152,1.732688 -11.887132,4.826056 -1.961779,-1.463458 -4.343805,-2.254089 -6.791315,-2.254126 -6.272982,-1.61e-4 -11.358358,5.084985 -11.35848,11.357962 -5.6e-5,1.202809 0.190943,2.39799 0.565857,3.540866 -7.139442,0.921422 -12.484648,7.00049 -12.485026,14.199133 -1.88e-4,7.907681 6.410305,14.31817 14.317989,14.31799 h 17.451132 a 2.1001301,2.1001301 0 0 0 2.100131,-2.10013 v -7.62486 a 2.1001301,2.1001301 0 0 0 -2.100131,-2.10013 H 65.189301 A 1.2125112,1.2125112 0 0 1 64.139236,53.612741 L 74.35515,35.918732 a 1.2125097,1.2125097 0 0 1 1.018543,-0.60616 1.2125097,1.2125097 0 0 1 1.081588,0.60616 l 10.215914,17.694009 a 1.2125111,1.2125111 0 0 1 -1.050065,1.819011 h -3.716052 a 2.1001301,2.1001301 0 0 0 -2.10013,2.10013 v 7.62486 a 2.1001301,2.1001301 0 0 0 2.10013,2.10013 h 17.34571 c 6.212452,-1.9e-4 11.248512,-5.03647 11.248412,-11.248919 -1.1e-4,-5.575419 -4.08426,-10.309484 -9.59942,-11.126975 C 100.07313,42.096547 98.419169,39.629381 96.157439,37.80699 95.871337,28.591446 88.318004,21.268978 79.098013,21.268991 Z" />
    </clipPath>
    <mask
       maskUnits="userSpaceOnUse"
       id="mask1960">
      <g
         id="g1966"
         transform="translate(6.9554295,24.805502)">
        <rect
           style="fill:#ffffff;fill-opacity:1;stroke-width:1.26728;stroke-linecap:round;stroke-linejoin:round"
           id="rect1962"
           width="106.52517"
           height="79.150085"
           x="9.2459928e-08"
           y="9.1916689e-08" />
        <path
           id="path1964"
           style="fill:#000000;fill-opacity:1;stroke-width:20;stroke-linejoin:round;stroke-dasharray:20, 20"
           d="m 55.362198,11.8186 c -4.439213,0.002 -8.703151,1.732691 -11.887131,4.826057 -1.961778,-1.463457 -4.343804,-2.254087 -6.791315,-2.254127 -6.272981,-1.59e-4 -11.358357,5.084987 -11.35848,11.357964 -5.6e-5,1.20281 0.190944,2.397987 0.565858,3.540867 -7.139442,0.92142 -12.484649,7.000487 -12.485027,14.199131 -1.88e-4,7.90768 6.410306,14.31817 14.317989,14.31799 h 17.451132 a 2.1001301,2.1001301 0 0 0 2.10013,-2.10013 v -7.62486 a 2.1001301,2.1001301 0 0 0 -2.10013,-2.10013 H 41.45917 a 1.2125112,1.2125112 0 0 1 -1.050065,-1.81901 L 50.625019,26.468344 a 1.2125097,1.2125097 0 0 1 1.018543,-0.60616 1.2125097,1.2125097 0 0 1 1.081587,0.60616 l 10.215914,17.694008 a 1.2125111,1.2125111 0 0 1 -1.050065,1.81901 h -3.716051 a 2.1001301,2.1001301 0 0 0 -2.100131,2.10013 v 7.62486 a 2.1001301,2.1001301 0 0 0 2.100131,2.10013 h 17.34571 c 6.212452,-1.9e-4 11.248513,-5.03647 11.248412,-11.24892 C 86.768959,40.982145 82.684809,36.248078 77.16965,35.430588 76.343,32.646158 74.689038,30.178991 72.427308,28.356601 72.141205,19.141057 64.587873,11.81859 55.367882,11.8186 Z"
           mask="none" />
      </g>
    </mask>
    <radialGradient
       inkscape:collect="always"
       xlink:href="#linearGradient1238"
       id="radialGradient994-7"
       gradientUnits="userSpaceOnUse"
       gradientTransform="matrix(1.507951,0,0,1.2992839,24.055377,-79.615466)"
       cx="82.166229"
       cy="94.860451"
       fx="82.166229"
       fy="94.860451"
       r="14.317653" />
    <clipPath
       clipPathUnits="userSpaceOnUse"
       id="clipPath1402-7">
      <path
         id="path1404-9"
         style="opacity:0.99777;fill:url(#linearGradient1406);fill-opacity:1;stroke-width:20;stroke-linejoin:round;stroke-dasharray:20, 20"
         d="m 79.09233,68.893988 c -4.439214,0.002 -8.703152,1.73269 -11.887132,4.826057 -1.961779,-1.463457 -4.343805,-2.254087 -6.791315,-2.254127 -6.272982,-1.6e-4 -11.358358,5.084987 -11.35848,11.357964 -5.6e-5,1.20281 0.190943,2.397987 0.565857,3.540867 -7.139442,0.92142 -12.484648,7.000487 -12.485026,14.199131 -1.88e-4,7.90768 6.410305,14.31817 14.317989,14.31799 h 17.451132 a 2.1001301,2.1001301 0 0 0 2.100131,-2.10013 v -7.62486 a 2.1001301,2.1001301 0 0 0 -2.100131,-2.10013 h -3.716054 a 1.2125112,1.2125112 0 0 1 -1.050065,-1.81901 L 74.35515,83.543732 a 1.2125097,1.2125097 0 0 1 1.018543,-0.60616 1.2125097,1.2125097 0 0 1 1.081588,0.60616 l 10.215914,17.694008 a 1.2125111,1.2125111 0 0 1 -1.050065,1.81901 h -3.716052 a 2.1001301,2.1001301 0 0 0 -2.10013,2.10013 v 7.62486 a 2.1001301,2.1001301 0 0 0 2.10013,2.10013 h 17.34571 c 6.212452,-1.9e-4 11.248512,-5.03647 11.248412,-11.24892 -1.1e-4,-5.575417 -4.08426,-10.309484 -9.59942,-11.126974 -0.82665,-2.78443 -2.480611,-5.251597 -4.742341,-7.073987 C 95.871337,76.216445 88.318004,68.893978 79.098013,68.893988 Z" />
    </clipPath>
    <filter
       style="color-interpolation-filters:sRGB"
       id="filter1386-2"
       x="-0.22843622"
       width="1.4568723"
       y="-0.16345029"
       height="1.3269006">
      <feGaussianBlur
         stdDeviation="8.2226723"
         id="feGaussianBlur1388-0" />
    </filter>
    <filter
       style="color-interpolation-filters:sRGB"
       id="filter1063"
       x="-0.22843622"
       width="1.4568723"
       y="-0.16345029"
       height="1.3269006">
      <feGaussianBlur
         stdDeviation="8.2226723"
         id="feGaussianBlur1061" />
    </filter>
    <radialGradient
       inkscape:collect="always"
       xlink:href="#linearGradient1228"
       id="radialGradient1255"
       cx="165.08215"
       cy="49.563725"
       fx="165.08215"
       fy="49.563725"
       r="11.248749"
       gradientUnits="userSpaceOnUse"
       gradientTransform="matrix(1.1957212,0,0,1.1957212,-33.094137,-10.096864)" />
    <filter
       inkscape:collect="always"
       style="color-interpolation-filters:sRGB"
       id="filter1554"
       x="-0.12379597"
       width="1.2475919"
       y="-0.19748764"
       height="1.3949753">
      <feGaussianBlur
         inkscape:collect="always"
         stdDeviation="3.7841827"
         id="feGaussianBlur1556" />
    </filter>
    <mask
       maskUnits="userSpaceOnUse"
       id="mask1758">
      <g
         id="g1774"
         transform="translate(-105.83334)">
        <path
           id="path1760"
           style="fill:#fefefe;fill-opacity:1;stroke-width:20;stroke-linejoin:round;stroke-dasharray:20, 20"
           d="m 168.15071,36.624621 c -4.43921,0.002 -8.70315,1.732689 -11.88713,4.826056 -1.96178,-1.463457 -4.3438,-2.254087 -6.79131,-2.254127 -6.27298,-1.6e-4 -11.35836,5.084987 -11.35848,11.357964 -6e-5,1.20281 0.19094,2.397987 0.56586,3.540867 -7.13945,0.92142 -12.48465,7.000487 -12.48503,14.199131 -1.9e-4,7.90768 6.4103,14.31817 14.31799,14.31799 h 17.45113 a 2.1001301,2.1001301 0 0 0 2.10013,-2.10013 v -7.62486 a 2.1001301,2.1001301 0 0 0 -2.10013,-2.10013 h -3.71605 a 1.2125112,1.2125112 0 0 1 -1.05007,-1.81901 l 10.21592,-17.694008 a 1.2125097,1.2125097 0 0 1 1.01854,-0.60616 1.2125097,1.2125097 0 0 1 1.08159,0.60616 l 10.21591,17.694008 a 1.2125111,1.2125111 0 0 1 -1.05007,1.81901 h -3.71605 a 2.1001301,2.1001301 0 0 0 -2.10013,2.10013 v 7.62486 a 2.1001301,2.1001301 0 0 0 2.10013,2.10013 h 17.34571 c 6.21246,-1.9e-4 11.24852,-5.03647 11.24842,-11.24892 -1.1e-4,-5.575417 -4.08426,-10.309484 -9.59942,-11.126974 -0.82665,-2.78443 -2.48062,-5.251597 -4.74235,-7.073987 -0.2861,-9.215544 -7.83943,-16.53801 -17.05942,-16.538 z"
           mask="none" />
        <g
           id="g1770"
           transform="translate(5.2916698)">
          <path
             id="path1762"
             style="opacity:0.99813;fill:url(#radialGradient1776);fill-opacity:1;stroke-width:20;stroke-linejoin:round;stroke-dasharray:20, 20"
             d="m 179.92391,53.162621 a 17.067634,17.067634 0 0 1 0.008,0.529684 17.067634,17.067634 0 0 1 -1.74201,7.511169 11.248748,11.248748 0 0 1 4.82761,-1.088822 11.248748,11.248748 0 0 1 1.64899,0.121956 14.317652,14.317652 0 0 0 -4.74286,-7.073987 z m -7.61039,14.743288 a 17.067634,17.067634 0 0 1 -1.86656,1.077452 1.2125111,1.2125111 0 0 0 -0.009,-0.01498 1.2125111,1.2125111 0 0 1 -1.05006,1.819011 h -3.71606 a 2.1001301,2.1001301 0 0 0 -2.10013,2.10013 v 3.699515 a 14.317652,14.317652 0 0 0 7.36906,2.042253 14.317652,14.317652 0 0 0 3.19619,-0.361736 11.248748,11.248748 0 0 1 -2.36833,-6.903969 11.248748,11.248748 0 0 1 0.54467,-3.45767 z" />
          <path
             id="path1764"
             style="opacity:0.99813;fill:url(#radialGradient1778);fill-opacity:1;stroke-width:15.866;stroke-linejoin:round;stroke-dasharray:15.866, 15.866"
             d="m 144.12351,39.196549 a 11.358186,11.358186 0 0 0 -11.30112,11.357963 11.358186,11.358186 0 0 0 0.56586,3.540352 14.317652,14.317652 0 0 1 1.76526,-0.117822 14.317652,14.317652 0 0 1 0.0677,0 14.317652,14.317652 0 0 1 11.96103,6.449219 17.067634,17.067634 0 0 1 -1.38493,-6.733956 17.067634,17.067634 0 0 1 5.17487,-12.24163 11.358186,11.358186 0 0 0 -6.79131,-2.254126 11.358186,11.358186 0 0 0 -0.0574,0 z" />
          <path
             id="path1766"
             style="opacity:0.99813;fill:url(#radialGradient1780);fill-opacity:1;stroke-width:20;stroke-linejoin:round;stroke-dasharray:20, 20"
             d="m 135.15351,53.977042 a 14.317653,14.317653 0 0 0 -14.25029,14.317473 14.317653,14.317653 0 0 0 14.31799,14.317988 14.317653,14.317653 0 0 0 14.09888,-11.825118 h -0.3638 a 1.2125112,1.2125112 0 0 1 -1.05007,-1.81901 l 1.50224,-2.601392 a 14.317653,14.317653 0 0 0 -14.18725,-12.389941 14.317653,14.317653 0 0 0 -0.0677,0 z" />
          <circle
             style="opacity:0.99813;fill:url(#radialGradient1782);fill-opacity:1;stroke-width:15.7131;stroke-linejoin:round;stroke-dasharray:15.7131, 15.7131"
             id="circle1768"
             cx="183.01758"
             cy="71.363632"
             r="11.248749" />
        </g>
        <path
           id="path1772"
           style="fill:#ffffff;fill-opacity:0.293904;stroke-width:20;stroke-linejoin:round;stroke-dasharray:20, 20;filter:url(#filter1554)"
           d="m 160.74263,41.386604 c -4.43921,0.002 -8.70315,1.73269 -11.88713,4.826056 -1.96178,-1.463456 -4.3438,-2.254086 -6.79131,-2.254126 -6.27298,-1.6e-4 -11.35836,5.084987 -11.35848,11.357965 -6e-5,1.20281 0.19094,2.397987 0.56585,3.540867 -7.13944,0.92142 -12.48465,7.000487 -12.48502,14.199131 -1.9e-4,7.90768 6.4103,14.31817 14.31799,14.31799 h 17.45113 a 2.1001301,2.1001301 0 0 0 2.10013,-2.10013 v -7.62486 a 2.1001301,2.1001301 0 0 0 -2.10013,-2.10013 h -3.71605 a 1.2125112,1.2125112 0 0 1 -1.05007,-1.81901 l 10.21591,-17.694008 a 1.2125097,1.2125097 0 0 1 1.01855,-0.60616 1.2125097,1.2125097 0 0 1 1.08158,0.60616 l 10.21592,17.694008 a 1.2125111,1.2125111 0 0 1 -1.05007,1.81901 h -3.71605 a 2.1001301,2.1001301 0 0 0 -2.10013,2.10013 v 7.62486 a 2.1001301,2.1001301 0 0 0 2.10013,2.10013 h 17.34571 c 6.21245,-1.9e-4 11.24851,-5.03647 11.24841,-11.24892 -1.1e-4,-5.575417 -4.08426,-10.309484 -9.59942,-11.126974 -0.82665,-2.78443 -2.48061,-5.251597 -4.74234,-7.073987 -0.2861,-9.215546 -7.83943,-16.538012 -17.05942,-16.538002 z"
           mask="none"
           transform="matrix(0.77696866,0,0,0.77696866,44.19924,12.771378)" />
      </g>
    </mask>
    <radialGradient
       inkscape:collect="always"
       xlink:href="#linearGradient1238"
       id="radialGradient1776"
       gradientUnits="userSpaceOnUse"
       gradientTransform="matrix(1.507951,0,0,1.2992839,39.930401,-58.448291)"
       cx="82.166229"
       cy="94.860451"
       fx="82.166229"
       fy="94.860451"
       r="14.317653" />
    <radialGradient
       inkscape:collect="always"
       xlink:href="#linearGradient1263"
       id="radialGradient1778"
       gradientUnits="userSpaceOnUse"
       gradientTransform="matrix(1.3653655,0,0,1.2900716,65.329478,-52.550069)"
       cx="59.255844"
       cy="82.292603"
       fx="59.255844"
       fy="82.292603"
       r="11.358187" />
    <radialGradient
       inkscape:collect="always"
       xlink:href="#linearGradient1248"
       id="radialGradient1780"
       gradientUnits="userSpaceOnUse"
       gradientTransform="matrix(1.4078286,0,0,1.4078277,70.205977,-69.995009)"
       cx="49.511822"
       cy="96.070564"
       fx="49.511822"
       fy="96.070564"
       r="14.317653" />
    <radialGradient
       inkscape:collect="always"
       xlink:href="#linearGradient1422"
       id="radialGradient1782"
       gradientUnits="userSpaceOnUse"
       gradientTransform="matrix(1.2999109,0,0,1.2999109,-34.399097,5.9261524)"
       cx="164.65979"
       cy="49.141361"
       fx="164.65979"
       fy="49.141361"
       r="11.248749" />
    <radialGradient
       inkscape:collect="always"
       xlink:href="#linearGradient981"
       id="radialGradient973"
       gradientUnits="userSpaceOnUse"
       gradientTransform="matrix(1.4489238,0,0,0.88523741,-510.47959,-18.681968)"
       cx="393.74713"
       cy="98.411179"
       fx="393.74713"
       fy="98.411179"
       r="36.448277" />
    <linearGradient
       inkscape:collect="always"
       id="linearGradient981">
      <stop
         style="stop-color:#000000;stop-opacity:0.21799436"
         offset="0"
         id="stop977" />
      <stop
         style="stop-color:#000000;stop-opacity:0"
         offset="0.44037196"
         id="stop983" />
      <stop
         style="stop-color:#000000;stop-opacity:0"
         offset="1"
         id="stop979" />
    </linearGradient>
    <linearGradient
       inkscape:collect="always"
       id="linearGradient1077-5">
      <stop
         style="stop-color:#000000;stop-opacity:0"
         offset="0"
         id="stop1073" />
      <stop
         style="stop-color:#000000;stop-opacity:0"
         offset="0.63571346"
         id="stop950-3" />
      <stop
         style="stop-color:#000000;stop-opacity:0.21057892"
         offset="1"
         id="stop1075" />
    </linearGradient>
    <inkscape:path-effect
       effect="fillet_chamfer"
       id="path-effect891"
       is_visible="true"
       lpeversion="1"
       satellites_param="F,0,0,1,0,2.6458333,0,1 @ F,0,0,1,0,2.6458333,0,1 @ F,0,0,1,0,2.6458333,0,1 @ F,0,0,1,0,2.6458333,0,1 @ F,0,0,1,0,2.6458333,0,1 @ F,0,0,1,0,2.6458333,0,1"
       unit="px"
       method="auto"
       mode="F"
       radius="10"
       chamfer_steps="1"
       flexible="false"
       use_knot_distance="true"
       apply_no_radius="true"
       apply_with_radius="true"
       only_selected="false"
       hide_knots="false" />
    <radialGradient
       inkscape:collect="always"
       xlink:href="#linearGradient1096"
       id="radialGradient1085"
       gradientUnits="userSpaceOnUse"
       gradientTransform="matrix(2.8527834,0.22537436,-0.22732152,2.8774306,-1031.6397,-284.74476)"
       cx="394.03027"
       cy="96.35907"
       fx="394.03027"
       fy="96.35907"
       r="15.50599" />
    <linearGradient
       inkscape:collect="always"
       id="linearGradient1096">
      <stop
         style="stop-color:#000000;stop-opacity:0"
         offset="0"
         id="stop1092" />
      <stop
         style="stop-color:#000000;stop-opacity:0"
         offset="0.43914536"
         id="stop948-6" />
      <stop
         style="stop-color:#000000;stop-opacity:0.4611876"
         offset="1"
         id="stop1094" />
    </linearGradient>
    <inkscape:path-effect
       effect="fillet_chamfer"
       id="path-effect889"
       is_visible="true"
       lpeversion="1"
       satellites_param="F,0,0,1,0,2.6458333,0,1 @ F,0,0,1,0,2.6458333,0,1 @ F,0,0,1,0,2.6458333,0,1 @ F,0,0,1,0,2.6458333,0,1 @ F,0,0,1,0,2.6458333,0,1 @ F,0,0,1,0,2.6458333,0,1"
       unit="px"
       method="auto"
       mode="F"
       radius="10"
       chamfer_steps="1"
       flexible="false"
       use_knot_distance="true"
       apply_no_radius="true"
       apply_with_radius="true"
       only_selected="false"
       hide_knots="false" />
    <radialGradient
       inkscape:collect="always"
       xlink:href="#linearGradient1113"
       id="radialGradient1115"
       cx="390.44507"
       cy="79.37291"
       fx="390.44507"
       fy="79.37291"
       r="24.797258"
       gradientTransform="matrix(1.0688897,0.01388712,-0.00502167,0.38651698,-55.334565,43.090175)"
       gradientUnits="userSpaceOnUse" />
    <linearGradient
       inkscape:collect="always"
       id="linearGradient1113">
      <stop
         style="stop-color:#000000;stop-opacity:0.45095262"
         offset="0"
         id="stop1109" />
      <stop
         style="stop-color:#000000;stop-opacity:0.37254903"
         offset="0.56975871"
         id="stop955" />
      <stop
         style="stop-color:#000000;stop-opacity:0.37269127"
         offset="1"
         id="stop1111" />
    </linearGradient>
    <mask
       maskUnits="userSpaceOnUse"
       id="mask1410">
      <path
         id="path1412"
         style="fill:url(#radialGradient1414);fill-opacity:1;stroke-width:0.355222;stroke-linecap:round;stroke-linejoin:round"
         d="m 361.60965,69.605712 a 21.429937,9.5853708 0 0 0 -21.43022,9.585461 21.429937,9.5853708 0 0 0 8.30802,7.57835 c -0.007,-0.0318 -0.0143,-0.0632 -0.0207,-0.09509 -0.28464,-1.430867 -0.28364,-3.827032 0.003,-5.25756 0.0909,-0.454117 0.20526,-0.903375 0.34262,-1.345655 0.4327,-1.393235 2.16466,-2.774894 3.59358,-3.078882 2.06944,-0.440253 4.2845,-0.729181 6.5598,-0.85576 1.45881,-0.08116 3.82977,-0.08116 5.28857,0 2.2753,0.126576 4.49036,0.415507 6.55981,0.85576 1.42892,0.303991 3.1604,1.685637 3.59306,3.078882 0.13734,0.44227 0.25177,0.891548 0.34261,1.345655 0.28619,1.430534 0.28722,3.826698 0.003,5.25756 -0.006,0.03189 -0.0141,0.06328 -0.0207,0.09509 a 21.429937,9.5853708 0 0 0 8.30802,-7.57835 21.429937,9.5853708 0 0 0 -21.4297,-9.585461 z" />
    </mask>
    <radialGradient
       inkscape:collect="always"
       xlink:href="#linearGradient1408"
       id="radialGradient1414"
       gradientUnits="userSpaceOnUse"
       gradientTransform="matrix(1.0479392,0,0,0.48040364,-47.322355,41.263043)"
       cx="391.21036"
       cy="82.693367"
       fx="391.21036"
       fy="82.693367"
       r="24.797258" />
    <linearGradient
       inkscape:collect="always"
       id="linearGradient1408">
      <stop
         style="stop-color:#ffffff;stop-opacity:1"
         offset="0"
         id="stop1400" />
      <stop
         style="stop-color:#ffffff;stop-opacity:1"
         offset="0.73206538"
         id="stop1402" />
      <stop
         style="stop-color:#797979;stop-opacity:1"
         offset="0.86475378"
         id="stop1404" />
      <stop
         style="stop-color:#ffffff;stop-opacity:1"
         offset="1"
         id="stop1406" />
    </linearGradient>
    <linearGradient
       inkscape:collect="always"
       xlink:href="#linearGradient1103"
       id="linearGradient1418"
       gradientUnits="userSpaceOnUse"
       gradientTransform="matrix(0.33212136,0,0,0.33212136,-423.47509,-42.166913)"
       x1="1415.8477"
       y1="249.23145"
       x2="1536.3242"
       y2="249.23145" />
    <linearGradient
       inkscape:collect="always"
       id="linearGradient1103">
      <stop
         style="stop-color:#000000;stop-opacity:0.18654566"
         offset="0"
         id="stop1099" />
      <stop
         style="stop-color:#ffffff;stop-opacity:0"
         offset="0.33408317"
         id="stop1107" />
      <stop
         style="stop-color:#000000;stop-opacity:0.33627087"
         offset="1"
         id="stop1101" />
    </linearGradient>
    <radialGradient
       inkscape:collect="always"
       xlink:href="#linearGradient1121"
       id="radialGradient1416"
       gradientUnits="userSpaceOnUse"
       gradientTransform="matrix(1.4487167,-0.02447886,0.02154231,1.2749244,-500.26434,-34.551559)"
       cx="385.01413"
       cy="100.86844"
       fx="385.01413"
       fy="100.86844"
       r="36.448277" />
    <linearGradient
       inkscape:collect="always"
       id="linearGradient1121">
      <stop
         style="stop-color:#000000;stop-opacity:0.02914893"
         offset="0"
         id="stop1117" />
      <stop
         style="stop-color:#000000;stop-opacity:0.3529391"
         offset="1"
         id="stop1119" />
    </linearGradient>
    <linearGradient
       inkscape:collect="always"
       id="linearGradient1428">
      <stop
         style="stop-color:#727272;stop-opacity:1"
         offset="0"
         id="stop1424" />
      <stop
         style="stop-color:#ffffff;stop-opacity:1"
         offset="1"
         id="stop1426" />
    </linearGradient>
    <clipPath
       clipPathUnits="userSpaceOnUse"
       id="clipPath1438">
      <path
         id="path1440"
         style="fill:#000000;fill-opacity:0;stroke-width:0.355222;stroke-linecap:round;stroke-linejoin:round"
         d="m 361.61011,76.063126 a 21.429936,9.585371 0 0 0 -11.76916,1.575062 13.400346,13.400346 0 0 0 -1.63129,6.407344 13.400346,13.400346 0 0 0 13.40045,13.40027 13.400346,13.400346 0 0 0 13.40028,-13.40027 13.400346,13.400346 0 0 0 -1.63112,-6.407344 21.429936,9.585371 0 0 0 -11.76916,-1.575062 z" />
    </clipPath>
    <filter
       inkscape:collect="always"
       style="color-interpolation-filters:sRGB"
       id="filter1622"
       x="-0.14734299"
       width="1.294686"
       y="-0.16560332"
       height="1.3312066">
      <feGaussianBlur
         inkscape:collect="always"
         stdDeviation="3.7680299"
         id="feGaussianBlur1624" />
    </filter>
    <mask
       maskUnits="userSpaceOnUse"
       id="mask1125">
      <g
         id="g1131"
         transform="matrix(1.4525032,0,0,1.4525032,-468.98122,-66.071325)">
        <path
           id="path1127"
           style="fill:#ffffff;fill-opacity:1;stroke-width:0.226842;stroke-linecap:round;stroke-linejoin:round"
           d="m 361.59981,60.173213 c -0.95736,5.04e-4 -1.91499,0.03695 -2.6417,0.109554 -4.03414,0.403039 -7.42707,1.660634 -9.34516,2.904732 -1.18773,0.770372 -1.68826,3.113141 -1.68827,4.574398 -2e-5,1.254417 10e-6,2.736565 0,4.052982 a 21.429937,9.5853709 0 0 0 -7.74527,7.376294 21.429937,9.5853709 0 0 0 8.30802,7.578349 c 0.44658,2.162191 1.41434,4.133146 2.76573,5.777426 -8.91741,3.677023 -16.31882,11.613662 -20.11919,19.794652 -0.61547,1.32492 0.16139,2.43965 1.62264,2.43965 h 57.70552 c 1.46125,0 2.23814,-1.11474 1.62264,-2.43965 -3.80068,-8.18117 -11.2027,-16.115705 -20.12022,-19.793102 1.35201,-1.644567 2.32005,-3.616158 2.76676,-5.778976 a 21.429937,9.5853709 0 0 0 8.30802,-7.578349 21.429937,9.5853709 0 0 0 -7.5675,-7.309631 v -4.129981 c -2e-5,-1.461306 -0.51529,-3.795338 -1.70945,-4.555277 -1.96285,-1.249112 -5.44227,-2.515925 -9.52087,-2.916618 -0.72683,-0.0714 -1.68434,-0.106957 -2.6417,-0.106453 z" />
        <path
           id="path1129"
           style="fill:url(#radialGradient1133);fill-opacity:1;stroke-width:0.226842;stroke-linecap:round;stroke-linejoin:round"
           d="m 361.59981,60.173213 c -0.95736,5.04e-4 -1.91499,0.03695 -2.6417,0.109554 -4.03414,0.403039 -7.42707,1.660634 -9.34516,2.904732 -1.18773,0.770372 -1.68826,3.113141 -1.68827,4.574398 -2e-5,1.254417 10e-6,2.736565 0,4.052982 a 21.429937,9.5853709 0 0 0 -7.74527,7.376294 21.429937,9.5853709 0 0 0 8.30802,7.578349 c 0.44658,2.162191 1.41434,4.133146 2.76573,5.777426 -8.91741,3.677023 -16.31882,11.613662 -20.11919,19.794652 -0.61547,1.32492 0.16139,2.43965 1.62264,2.43965 h 57.70552 c 1.46125,0 2.23814,-1.11474 1.62264,-2.43965 -3.80068,-8.18117 -11.2027,-16.115705 -20.12022,-19.793102 1.35201,-1.644567 2.32005,-3.616158 2.76676,-5.778976 a 21.429937,9.5853709 0 0 0 8.30802,-7.578349 21.429937,9.5853709 0 0 0 -7.5675,-7.309631 v -4.129981 c -2e-5,-1.461306 -0.51529,-3.795338 -1.70945,-4.555277 -1.96285,-1.249112 -5.44227,-2.515925 -9.52087,-2.916618 -0.72683,-0.0714 -1.68434,-0.106957 -2.6417,-0.106453 z"
           clip-path="url(#clipPath1438)" />
      </g>
    </mask>
    <radialGradient
       inkscape:collect="always"
       xlink:href="#linearGradient1428"
       id="radialGradient1133"
       gradientUnits="userSpaceOnUse"
       gradientTransform="matrix(0.11093955,-0.05314374,0.11222108,0.23426582,306.56003,86.556393)"
       cx="328.61835"
       cy="88.026115"
       fx="328.61835"
       fy="88.026115"
       r="30.687826" />
    <radialGradient
       inkscape:collect="always"
       xlink:href="#linearGradient981"
       id="radialGradient1027"
       gradientUnits="userSpaceOnUse"
       gradientTransform="matrix(1.4489238,0,0,0.88523741,-498.26287,-6.4652407)"
       cx="393.74713"
       cy="98.411179"
       fx="393.74713"
       fy="98.411179"
       r="36.448277" />
    <mask
       maskUnits="userSpaceOnUse"
       id="mask1116">
      <g
         id="g1130">
        <rect
           style="fill:#000000;fill-opacity:1;stroke-width:0.499999;stroke-linecap:round;stroke-linejoin:round;stroke-opacity:0.545322"
           id="rect1118"
           width="113.4806"
           height="113.4806"
           x="0"
           y="0" />
        <g
           id="g1128">
          <g
             id="g1124">
            <path
               id="path1120"
               mask="none"
               style="fill:#ffffff;fill-opacity:1;stroke-width:0.329488;stroke-linecap:round;stroke-linejoin:round"
               d="m 54.40495,17.626315 c -1.390569,7.32e-4 -2.781428,0.0537 -3.836975,0.159163 -5.859603,0.585415 -10.787817,2.411808 -13.57385,4.218864 -1.725181,1.118968 -2.45255,4.522075 -2.452563,6.644557 -2.9e-5,1.822042 1.3e-5,3.974878 0,5.886979 a 31.12705,13.922782 0 0 0 -11.24996,10.714075 31.12705,13.922782 0 0 0 12.06748,11.007596 c 0.648666,3.140591 2.054429,6.003414 4.017327,8.391736 -7.542424,3.110059 -14.335292,8.32017 -19.786389,14.474569 h -0.0021 c -2.279514,2.573743 -4.325644,5.311815 -6.091101,8.132321 -2.049861,3.27487 -2.430867,9.419432 0.47749,11.861808 14.641602,12.295707 64.979066,12.380177 80.559427,-0.195852 2.96836,-2.39598 2.856727,-8.390697 0.806669,-11.66544 -1.765853,-2.820752 -3.812588,-5.559081 -6.092653,-8.132837 h -0.001 C 83.795415,72.970424 77.002137,67.761635 69.459845,64.651352 71.423643,62.262614 72.829356,59.39905 73.478204,56.257549 A 31.12705,13.922782 0 0 0 85.545686,45.249953 31.12705,13.922782 0 0 0 74.554109,34.632512 v -5.998599 c -3e-5,-2.122554 -0.748533,-5.512838 -2.483054,-6.616652 -2.851047,-1.814339 -7.904951,-3.654427 -13.829131,-4.236434 -1.055722,-0.103709 -2.446406,-0.155244 -3.836974,-0.154512 z" />
            <path
               id="path1122"
               style="fill:url(#radialGradient1132);fill-opacity:1;stroke-width:0.226842;stroke-linecap:round;stroke-linejoin:round"
               d="m 361.59981,60.173213 c -0.95736,5.04e-4 -1.91499,0.03695 -2.6417,0.109554 -4.03414,0.403039 -7.42707,1.660634 -9.34516,2.904732 -1.18773,0.770372 -1.68826,3.113141 -1.68827,4.574398 -2e-5,1.254417 10e-6,2.736565 0,4.052982 a 21.429937,9.5853709 0 0 0 -7.74527,7.376294 21.429937,9.5853709 0 0 0 8.30802,7.578349 c 0.44658,2.162191 1.41434,4.133146 2.76573,5.777426 -8.91741,3.677023 -16.31882,11.613662 -20.11919,19.794652 -0.61547,1.32492 0.16139,2.43965 1.62264,2.43965 h 57.70552 c 1.46125,0 2.23814,-1.11474 1.62264,-2.43965 -3.80068,-8.18117 -11.2027,-16.115705 -20.12022,-19.793102 1.35201,-1.644567 2.32005,-3.616158 2.76676,-5.778976 a 21.429937,9.5853709 0 0 0 8.30802,-7.578349 21.429937,9.5853709 0 0 0 -7.5675,-7.309631 v -4.129981 c -2e-5,-1.461306 -0.51529,-3.795338 -1.70945,-4.555277 -1.96285,-1.249112 -5.44227,-2.515925 -9.52087,-2.916618 -0.72683,-0.0714 -1.68434,-0.106957 -2.6417,-0.106453 z"
               clip-path="url(#clipPath1438)"
               transform="matrix(1.4525032,0,0,1.4525032,-470.81893,-69.775489)" />
          </g>
          <path
             id="path1126"
             style="fill:url(#radialGradient1134);fill-opacity:1;stroke-width:0.51596;stroke-linecap:round;stroke-linejoin:round"
             d="m 51.774591,40.756826 c -4.158727,0.158683 -8.20315,0.689921 -11.891864,1.561408 -1.421929,0.335942 -3.143301,1.713272 -3.66127,3.07844 -0.522268,1.376497 -0.886696,2.807891 -1.086251,4.26655 -0.197912,1.446653 -0.198414,3.828644 -0.0024,5.275572 1.170589,8.639391 8.009661,15.478368 16.64907,16.648837 1.446921,0.196029 3.828828,0.196015 5.275756,-3.6e-5 8.639301,-1.170573 15.47824,-8.009514 16.648811,-16.648817 0.196049,-1.446919 0.195575,-3.828903 -0.0023,-5.275561 -0.199518,-1.458643 -0.563905,-2.890025 -1.086129,-4.266517 -0.517932,-1.365181 -2.239279,-2.742527 -3.661211,-3.078469 -3.688714,-0.871486 -7.733137,-1.402725 -11.891863,-1.561408 -1.4601,-0.05571 -3.83028,-0.05571 -5.290382,10e-7 z"
             inkscape:path-effect="#path-effect891"
             inkscape:original-d="m 54.419784,40.706442 a 31.12705,13.922782 0 0 0 -17.094742,2.287783 19.464045,19.464045 0 0 0 -2.369454,9.306686 19.464045,19.464045 0 0 0 19.464196,19.46394 19.464045,19.464045 0 0 0 19.463949,-19.46394 19.464045,19.464045 0 0 0 -2.369207,-9.306686 31.12705,13.922782 0 0 0 -17.094742,-2.287783 z" />
        </g>
      </g>
    </mask>
    <radialGradient
       inkscape:collect="always"
       xlink:href="#linearGradient1428"
       id="radialGradient1132"
       gradientUnits="userSpaceOnUse"
       gradientTransform="matrix(0.11093955,-0.05314374,0.11222108,0.23426582,306.56003,86.556393)"
       cx="328.61835"
       cy="88.026115"
       fx="328.61835"
       fy="88.026115"
       r="30.687826" />
    <radialGradient
       inkscape:collect="always"
       xlink:href="#linearGradient1077-5"
       id="radialGradient1134"
       gradientUnits="userSpaceOnUse"
       gradientTransform="matrix(2.6932115,-0.0486509,0.0495675,2.7439533,-1002.4497,-172.32187)"
       cx="382.63943"
       cy="83.869415"
       fx="382.63943"
       fy="83.869415"
       r="15.50599" />
    <radialGradient
       inkscape:collect="always"
       xlink:href="#linearGradient1121"
       id="radialGradient1416-7"
       gradientUnits="userSpaceOnUse"
       gradientTransform="matrix(1.4487167,-0.02447886,0.02154231,1.2749244,-336.23455,30.240576)"
       cx="385.01413"
       cy="100.86844"
       fx="385.01413"
       fy="100.86844"
       r="36.448277" />
    <filter
       inkscape:collect="always"
       style="color-interpolation-filters:sRGB"
       id="filter1439"
       x="-0.16917843"
       width="1.3383569"
       y="-0.15842073"
       height="1.3168414">
      <feGaussianBlur
         inkscape:collect="always"
         stdDeviation="5.9883509"
         id="feGaussianBlur1441" />
    </filter>
    <clipPath
       clipPathUnits="userSpaceOnUse"
       id="clipPath1452">
      <path
         id="path1454"
         style="fill:#000000;fill-opacity:0.359746;stroke-width:0.607653;stroke-linecap:round;stroke-linejoin:round;stroke-opacity:0.545322"
         d="M 0,0 V 137.91407 H 137.91407 V 0 Z m 66.622291,29.843141 h 5.3e-4 c 1.39057,-7.94e-4 2.781255,0.0508 3.836977,0.154511 5.924179,0.582001 10.978089,2.422094 13.829131,4.236435 1.734529,1.103809 2.483022,4.494101 2.483051,6.616649 v 5.998602 A 31.12705,13.922782 0 0 1 97.763544,57.466779 31.12705,13.922782 0 0 1 85.696062,68.474375 c -0.648838,3.141501 -2.054558,6.005063 -4.018359,8.393803 7.5423,3.11028 14.335559,8.319072 19.786907,14.472502 h 0.001 c 2.28007,2.573761 4.3268,5.312088 6.09265,8.132837 2.05006,3.274743 2.16169,9.269453 -0.80667,11.665433 -15.580374,12.57604 -65.917826,12.49157 -80.559426,0.19586 -2.90836,-2.44237 -2.527351,-8.58695 -0.477491,-11.861809 1.765462,-2.820511 3.811593,-5.55857 6.091103,-8.132321 h 0.0016 C 37.258462,85.186289 44.051322,79.976172 51.593751,76.866112 49.630853,74.477792 48.225095,71.614966 47.576426,68.474375 A 31.12705,13.922782 0 0 1 35.508944,57.466779 31.12705,13.922782 0 0 1 46.758904,46.752702 c 10e-6,-1.912099 -3e-5,-4.064937 0,-5.88698 10e-6,-2.122479 0.727384,-5.525585 2.452563,-6.644555 2.786041,-1.807049 7.71425,-3.633454 13.57385,-4.218863 1.05555,-0.105471 2.446404,-0.158422 3.836974,-0.159163 z" />
    </clipPath>
  </defs>
  <metadata
     id="metadata5">
    <rdf:RDF>
      <cc:Work
         rdf:about="">
        <dc:format>image/svg+xml</dc:format>
        <dc:type
           rdf:resource="http://purl.org/dc/dcmitype/StillImage" />
        <dc:title />
      </cc:Work>
    </rdf:RDF>
  </metadata>
  <path
     id="path1050"
     style="fill:#8f7fdd;fill-opacity:1;stroke-width:0.329489;stroke-linecap:round;stroke-linejoin:round"
     d="m -102.71177,13.968019 c -1.39057,7.32e-4 -2.78154,0.05367 -3.83708,0.159128 -5.85961,0.585415 -10.78785,2.412076 -13.57389,4.219131 -1.72518,1.118968 -2.4522,4.521847 -2.45221,6.644328 -3e-5,1.822044 1e-5,3.974869 0,5.886969 -7.12643,2.645038 -11.24984,6.572009 -11.25004,10.71409 -4e-5,4.306506 4.4554,8.370629 12.06743,11.007576 0.64866,3.14059 2.05433,6.003408 4.01724,8.39173 -12.95258,5.340887 -23.70316,16.868888 -29.22321,28.7518 4.53575,19.775929 81.693033,20.079549 88.531249,0 -5.520496,-11.883174 -16.271946,-23.408118 -29.224672,-28.749549 1.963799,-2.388739 3.36988,-5.252481 4.018728,-8.393981 7.612031,-2.636947 12.067462,-6.70107 12.067425,-11.007576 -1.49e-4,-4.089382 -4.01969,-7.971953 -10.991818,-10.617262 v -5.99881 c -2.9e-5,-2.122552 -0.74846,-5.512741 -2.482981,-6.616555 -2.851044,-1.814338 -7.904914,-3.654388 -13.829104,-4.236395 -1.05572,-0.103709 -2.446497,-0.155356 -3.837067,-0.154624 z"
     mask="none"
     sodipodi:nodetypes="sssccccccccccccsss" />
  <path
     id="path1092"
     mask="none"
     style="fill:#ffffff;fill-opacity:1;stroke-width:0.329488;stroke-linecap:round;stroke-linejoin:round"
     d="m 179.46113,152.43502 c -1.39057,7.4e-4 -2.78143,0.0537 -3.83698,0.15917 -5.8596,0.58541 -10.78781,2.41181 -13.57385,4.21886 -1.72518,1.11897 -2.45255,4.52208 -2.45256,6.64456 -3e-5,1.82204 1e-5,3.97488 0,5.88698 a 31.12705,13.922782 0 0 0 -11.24996,10.71407 31.12705,13.922782 0 0 0 12.06748,11.0076 c 0.64867,3.14059 2.05443,6.00341 4.01733,8.39173 -7.54243,3.11006 -14.33529,8.32018 -19.78639,14.47457 h -0.002 c -2.27951,2.57375 -4.32564,5.31182 -6.0911,8.13233 -2.04986,3.27486 -2.43087,9.41943 0.47749,11.8618 14.6416,12.29571 64.97906,12.38018 80.55943,-0.19585 2.96836,-2.39598 2.85672,-8.3907 0.80666,-11.66544 -1.76585,-2.82075 -3.81258,-5.55908 -6.09265,-8.13284 h -0.001 c -5.45134,-6.15343 -12.24461,-11.36222 -19.78691,-14.4725 1.9638,-2.38874 3.36952,-5.2523 4.01836,-8.3938 a 31.12705,13.922782 0 0 0 12.06749,-11.0076 31.12705,13.922782 0 0 0 -10.99158,-10.61744 v -5.9986 c -3e-5,-2.12255 -0.74853,-5.51284 -2.48306,-6.61665 -2.85104,-1.81434 -7.90495,-3.65443 -13.82913,-4.23643 -1.05572,-0.10371 -2.4464,-0.15525 -3.83697,-0.15452 z" />
  <path
     id="path1066-5"
     style="fill:url(#radialGradient1416-7);fill-opacity:1;stroke-width:0.914493;stroke-linecap:round;stroke-linejoin:round"
     d="m 215.62289,141.65815 c -7.39925,3.05102 -14.07357,8.12562 -19.47063,14.12782 h -0.001 c -0.10432,0.11601 -0.21134,0.23005 -0.31471,0.34675 h -0.002 c -0.0958,0.10819 -0.18871,0.21835 -0.2837,0.32711 -0.0676,0.0774 -0.13489,0.15486 -0.20205,0.23255 -0.29673,0.34314 -0.58912,0.68917 -0.87747,1.03766 -0.0329,0.0398 -0.0675,0.0785 -0.10025,0.11834 v 0.002 c -1.69787,2.06246 -3.24937,4.21268 -4.62763,6.41459 -2.04985,3.27486 -2.43087,9.41944 0.4775,11.86181 14.64159,12.29572 64.97901,12.38017 80.55938,-0.19585 2.96835,-2.39598 2.85672,-8.3907 0.80666,-11.66544 -0.55203,-0.8818 -1.13446,-1.75423 -1.73994,-2.61741 -0.0384,-0.0548 -0.0766,-0.10963 -0.11523,-0.16433 -0.16683,-0.23617 -0.33575,-0.4714 -0.50643,-0.7059 -0.0471,-0.0647 -0.0947,-0.12918 -0.14211,-0.19379 -0.161,-0.2194 -0.32247,-0.43847 -0.4868,-0.65629 -0.096,-0.12741 -0.19377,-0.254 -0.29093,-0.38086 -0.12837,-0.16744 -0.25572,-0.33534 -0.38603,-0.50178 -0.0803,-0.10269 -0.16283,-0.20414 -0.24391,-0.30644 -0.14277,-0.18013 -0.28545,-0.36011 -0.43046,-0.53898 -0.11391,-0.14039 -0.22994,-0.27952 -0.3452,-0.4191 -0.14248,-0.17263 -0.28488,-0.34542 -0.42943,-0.51676 -0.10752,-0.12737 -0.21641,-0.2537 -0.32505,-0.38034 -0.15189,-0.17713 -0.30479,-0.35351 -0.45888,-0.52917 -0.0646,-0.0736 -0.12729,-0.14837 -0.19224,-0.22169 h -10e-4 c -0.0268,-0.0303 -0.0544,-0.06 -0.0817,-0.0899 -5.43681,-6.11443 -12.19988,-11.28752 -19.70524,-14.38258 -2.79985,3.40571 -6.73207,5.84584 -11.22257,6.73912 -2.07835,0.41344 -5.55787,0.41341 -7.63622,0 -4.49154,-0.89342 -8.42463,-3.33431 -11.22463,-6.74119 z" />
</svg>
