<svg width="32" height="32" viewBox="0 0 32 32" id="svg5" > <sodipodi:namedview id="namedview7" pagecolor="#ffffff" bordercolor="#666666" borderopacity="1.0" inkscape:pageshadow="2" inkscape:pageopacity="0.0" inkscape:pagecheckerboard="0" inkscape:document-units="px" showgrid="false" inkscape:snap-global="true" inkscape:zoom="16.786143" inkscape:cx="8.7274369" inkscape:cy="14.714518" inkscape:window-width="1920" inkscape:window-height="1016" inkscape:window-x="0" inkscape:window-y="32" inkscape:window-maximized="1" inkscape:current-layer="layer1" /> <defs id="defs2" /> <g inkscape:label="Layer 1" inkscape:groupmode="layer" id="layer1"> <path id="path1791" style="color:#000000;fill:#000000;stroke-width:2.0821;stroke-linecap:round;stroke-linejoin:bevel;-inkscape-stroke:none;fill-opacity:1" d="M 10.976562 8.0488281 A 1.04105 1.04105 0 0 0 10.902344 8.0585938 A 1.04105 1.04105 0 0 0 10.794922 8.0722656 A 1.04105 1.04105 0 0 0 10.714844 8.09375 A 1.04105 1.04105 0 0 0 10.658203 8.109375 A 1.04105 1.04105 0 0 0 10.603516 8.1289062 A 1.04105 1.04105 0 0 0 10.505859 8.1796875 A 1.04105 1.04105 0 0 0 10.425781 8.2226562 A 1.04105 1.04105 0 0 0 10.337891 8.2910156 A 1.04105 1.04105 0 0 0 10.28125 8.3359375 L 6.28125 12.158203 A 1.04105 1.04105 0 0 0 6.2480469 13.630859 A 1.04105 1.04105 0 0 0 7.71875 13.664062 L 9.9589844 11.523438 L 9.9589844 22.910156 A 1.04105 1.04105 0 0 0 11 23.951172 A 1.04105 1.04105 0 0 0 12.041016 22.910156 L 12.041016 11.523438 L 14.28125 13.664062 A 1.04105 1.04105 0 0 0 15.751953 13.630859 A 1.04105 1.04105 0 0 0 15.71875 12.158203 L 11.71875 8.3359375 A 1.04105 1.04105 0 0 0 11.662109 8.2910156 A 1.04105 1.04105 0 0 0 11.574219 8.2226562 A 1.04105 1.04105 0 0 0 11.494141 8.1796875 A 1.04105 1.04105 0 0 0 11.396484 8.1289062 A 1.04105 1.04105 0 0 0 11.341797 8.109375 A 1.04105 1.04105 0 0 0 11.292969 8.0957031 A 1.04105 1.04105 0 0 0 11.195312 8.0683594 A 1.04105 1.04105 0 0 0 11.117188 8.0605469 A 1.04105 1.04105 0 0 0 11.023438 8.0488281 A 1.04105 1.04105 0 0 0 11.007812 8.0507812 A 1.04105 1.04105 0 0 0 11 8.0488281 A 1.04105 1.04105 0 0 0 10.992188 8.0507812 A 1.04105 1.04105 0 0 0 10.976562 8.0488281 z M 21 8.0488281 A 1.04105 1.04105 0 0 0 19.958984 9.0898438 L 19.958984 20.476562 L 17.71875 18.335938 A 1.04105 1.04105 0 0 0 16.248047 18.369141 A 1.04105 1.04105 0 0 0 16.28125 19.841797 L 20.28125 23.664062 A 1.04105 1.04105 0 0 0 20.361328 23.724609 A 1.04105 1.04105 0 0 0 20.404297 23.759766 A 1.04105 1.04105 0 0 0 20.445312 23.789062 A 1.04105 1.04105 0 0 0 20.552734 23.84375 A 1.04105 1.04105 0 0 0 20.664062 23.892578 A 1.04105 1.04105 0 0 0 20.677734 23.900391 A 1.04105 1.04105 0 0 0 20.679688 23.900391 A 1.04105 1.04105 0 0 0 20.685547 23.902344 A 1.04105 1.04105 0 0 0 20.761719 23.917969 A 1.04105 1.04105 0 0 0 20.888672 23.943359 A 1.04105 1.04105 0 0 0 20.96875 23.945312 A 1.04105 1.04105 0 0 0 21 23.951172 A 1.04105 1.04105 0 0 0 21.033203 23.945312 A 1.04105 1.04105 0 0 0 21.109375 23.943359 A 1.04105 1.04105 0 0 0 21.236328 23.917969 A 1.04105 1.04105 0 0 0 21.322266 23.900391 A 1.04105 1.04105 0 0 0 21.330078 23.896484 A 1.04105 1.04105 0 0 0 21.339844 23.890625 A 1.04105 1.04105 0 0 0 21.441406 23.845703 A 1.04105 1.04105 0 0 0 21.554688 23.787109 A 1.04105 1.04105 0 0 0 21.595703 23.759766 A 1.04105 1.04105 0 0 0 21.638672 23.724609 A 1.04105 1.04105 0 0 0 21.640625 23.722656 A 1.04105 1.04105 0 0 0 21.71875 23.664062 L 25.71875 19.841797 A 1.04105 1.04105 0 0 0 25.751953 18.369141 A 1.04105 1.04105 0 0 0 24.28125 18.335938 L 22.041016 20.476562 L 22.041016 9.0898438 A 1.04105 1.04105 0 0 0 21 8.0488281 z " /> </g> </svg>