<?xml version="1.0" encoding="UTF-8" standalone="no"?>
<svg
   xmlns:dc="http://purl.org/dc/elements/1.1/"
   xmlns:cc="http://creativecommons.org/ns#"
   xmlns:rdf="http://www.w3.org/1999/02/22-rdf-syntax-ns#"
   xmlns:svg="http://www.w3.org/2000/svg"
   xmlns="http://www.w3.org/2000/svg"
   width="137.55698mm"
   height="137.55646mm"
   viewBox="0 0 137.55698 137.55646"
   version="1.1"
   id="svg8">
  <defs
     id="defs2" />
  <metadata
     id="metadata5">
    <rdf:RDF>
      <cc:Work
         rdf:about="">
        <dc:format>image/svg+xml</dc:format>
        <dc:type
           rdf:resource="http://purl.org/dc/dcmitype/StillImage" />
        <dc:title></dc:title>
      </cc:Work>
    </rdf:RDF>
  </metadata>
  <g
     id="layer1"
     transform="translate(128.85947,-149.53509)">
    <path
       id="path1577-7"
       style="color:#000000;font-style:normal;font-variant:normal;font-weight:normal;font-stretch:normal;font-size:medium;line-height:normal;font-family:sans-serif;font-variant-ligatures:normal;font-variant-position:normal;font-variant-caps:normal;font-variant-numeric:normal;font-variant-alternates:normal;font-variant-east-asian:normal;font-feature-settings:normal;font-variation-settings:normal;text-indent:0;text-align:start;text-decoration:none;text-decoration-line:none;text-decoration-style:solid;text-decoration-color:#000000;letter-spacing:normal;word-spacing:normal;text-transform:none;writing-mode:lr-tb;direction:ltr;text-orientation:mixed;dominant-baseline:auto;baseline-shift:baseline;text-anchor:start;white-space:normal;shape-padding:0;shape-margin:0;inline-size:0;clip-rule:nonzero;display:inline;overflow:visible;visibility:visible;isolation:auto;mix-blend-mode:normal;color-interpolation:sRGB;color-interpolation-filters:linearRGB;solid-color:#000000;solid-opacity:1;vector-effect:none;fill:#ffffff;fill-opacity:0.819075;fill-rule:nonzero;stroke:none;stroke-width:3.77953;stroke-linecap:round;stroke-linejoin:bevel;stroke-miterlimit:4;stroke-dasharray:none;stroke-dashoffset:0;stroke-opacity:1;color-rendering:auto;image-rendering:auto;shape-rendering:auto;text-rendering:auto;enable-background:accumulate;stop-color:#000000"
       d="m 1302.8066,367.53125 c -0.6228,0 -1.245,0.0163 -1.8671,0.0469 -0.2515,0.0122 -0.4999,0.0356 -0.75,0.0527 -0.3605,0.0249 -0.7204,0.0469 -1.0801,0.082 -0.01,5.1e-4 -0.01,10e-4 -0.016,0.002 -0.3272,0.0319 -0.65,0.077 -0.9747,0.11719 -0.027,0.003 -0.055,0.006 -0.082,0.01 -0.1542,0.0195 -0.3089,0.0333 -0.4629,0.0547 -0.1055,0.0147 -0.2109,0.0294 -0.3164,0.0449 0,3.9e-4 -0.01,0.002 -0.01,0.002 -0.358,0.0528 -0.7118,0.11694 -1.0664,0.17969 -0.01,10e-4 -0.017,0.002 -0.025,0.004 -0.084,0.0149 -0.1681,0.0275 -0.252,0.043 -0.1503,0.0278 -0.301,0.0524 -0.4511,0.082 -0.4088,0.0806 -0.8129,0.17194 -1.2168,0.26563 -0.01,10e-4 -0.01,0.003 -0.016,0.004 -0.194,0.0451 -0.3887,0.0866 -0.5821,0.13477 -0.3706,0.0924 -0.7373,0.19561 -1.1035,0.29883 -0.011,0.003 -0.022,0.007 -0.033,0.01 -0.2098,0.0592 -0.42,0.11481 -0.6289,0.17774 -0.3617,0.10916 -0.7191,0.22803 -1.0762,0.34765 0,10e-4 -0.01,0.003 -0.01,0.004 -0.2255,0.0754 -0.4515,0.14872 -0.6758,0.22852 -6e-4,2e-4 0,-2.1e-4 0,0 -0.319,0.11377 -0.6342,0.23538 -0.9492,0.35742 -0.1916,0.074 -0.3855,0.14146 -0.5762,0.21875 -5e-4,2.3e-4 0,-2.3e-4 0,0 -0.089,0.0359 -0.1754,0.0767 -0.2637,0.11328 -0.247,0.10263 -0.49,0.21263 -0.7344,0.32031 -0.3255,0.14314 -0.6504,0.28668 -0.9726,0.43946 0,0.002 -0.01,0.004 -0.012,0.006 -0.2213,0.10522 -0.4393,0.21485 -0.6582,0.32422 -0.3295,0.16431 -0.6589,0.32938 -0.9844,0.50391 -0.2059,0.11052 -0.4078,0.2276 -0.6113,0.3418 -0.3337,0.18698 -0.6671,0.37437 -0.9961,0.57226 -0.1929,0.11603 -0.3817,0.23807 -0.5723,0.35742 -0.3348,0.20962 -0.6685,0.41952 -0.9981,0.64063 -0.1617,0.10851 -0.3185,0.22305 -0.4785,0.33398 -0.022,0.0155 -0.044,0.0314 -0.066,0.0469 -0.3289,0.22924 -0.6573,0.45831 -0.9804,0.69922 -0.1319,0.0982 -0.2601,0.20087 -0.3907,0.30078 -0.3456,0.26475 -0.6909,0.53028 -1.0293,0.80859 -0.01,0.005 -0.012,0.009 -0.017,0.0137 -0.163,0.13402 -0.3199,0.27544 -0.4805,0.41211 -0.3045,0.25934 -0.6101,0.51656 -0.9082,0.78711 -0.4593,0.4164 -0.9094,0.843 -1.3477,1.28125 l -161.9082,161.90821 c -14.76,14.76 -14.76,38.69117 0,53.45117 14.76,14.75996 38.6912,14.75996 53.4512,0 l 97.3867,-97.38867 v 137.72851 c 0,20.87377 16.9231,37.79492 37.7969,37.79492 20.8738,0 37.7949,-16.92115 37.7949,-37.79492 V 496.57422 l 97.3867,97.38672 c 14.76,14.75996 38.6912,14.75996 53.4512,0 14.76,-14.76 14.76,-38.69117 0,-53.45117 l -161.91,-161.90821 c -0.4389,-0.43891 -0.8896,-0.86621 -1.3496,-1.2832 -0.01,-0.006 -0.014,-0.013 -0.022,-0.0195 -0.2475,-0.22424 -0.502,-0.43583 -0.7539,-0.65235 -0.2085,-0.17899 -0.4126,-0.36261 -0.625,-0.5371 -0.3166,-0.26047 -0.6399,-0.50726 -0.9629,-0.75586 -0.1556,-0.11964 -0.3073,-0.24408 -0.4648,-0.36133 -0.3099,-0.23094 -0.6262,-0.44971 -0.9414,-0.66992 -0.018,-0.0123 -0.035,-0.0248 -0.053,-0.0371 -0.1758,-0.12235 -0.3493,-0.24778 -0.5273,-0.36719 -0.078,-0.052 -0.1527,-0.10883 -0.2305,-0.16016 -0.241,-0.15913 -0.4886,-0.30399 -0.7324,-0.45703 -0.018,-0.0115 -0.036,-0.0237 -0.055,-0.0352 -0.1914,-0.11973 -0.3805,-0.24299 -0.5742,-0.35937 -0.077,-0.0461 -0.1515,-0.0971 -0.2285,-0.14258 -5e-4,-2.9e-4 0,2.9e-4 0,0 -0.2184,-0.12901 -0.4417,-0.2449 -0.6621,-0.36914 -0.02,-0.0112 -0.039,-0.024 -0.059,-0.0351 -0.2162,-0.12151 -0.4315,-0.24399 -0.6504,-0.36133 0,-0.001 -0.01,-0.003 -0.01,-0.004 -0.3121,-0.16706 -0.6276,-0.32476 -0.9433,-0.48242 0,-0.002 -0.01,-0.005 -0.014,-0.008 -0.2201,-0.10997 -0.4397,-0.2204 -0.6621,-0.32618 0,-0.002 -0.01,-0.004 -0.012,-0.006 -0.094,-0.0444 -0.1853,-0.0951 -0.2793,-0.13868 -0.2229,-0.10338 -0.4495,-0.19416 -0.6739,-0.29297 -0.246,-0.10856 -0.4915,-0.21687 -0.7402,-0.32031 -0.093,-0.0386 -0.184,-0.0832 -0.2774,-0.12109 -5e-4,-2.3e-4 0,2.3e-4 0,0 -0.1816,-0.0736 -0.3663,-0.13633 -0.5488,-0.20703 -0.01,-0.004 -0.019,-0.008 -0.029,-0.0117 -0.3085,-0.11951 -0.6174,-0.23803 -0.9297,-0.34961 -0.01,-0.003 -0.014,-0.005 -0.022,-0.008 -0.2238,-0.0796 -0.4489,-0.15326 -0.6738,-0.22852 0,-10e-4 -0.01,-0.003 -0.01,-0.004 -0.3578,-0.11985 -0.7157,-0.2383 -1.0781,-0.34765 -0.057,-0.0171 -0.113,-0.0378 -0.1699,-0.0547 -0.1424,-0.0421 -0.287,-0.0748 -0.4297,-0.11523 -0.023,-0.007 -0.047,-0.0129 -0.07,-0.0195 -0.3608,-0.10157 -0.7209,-0.20387 -1.086,-0.29492 -0.1701,-0.0424 -0.3411,-0.0791 -0.5117,-0.11914 -0.032,-0.008 -0.065,-0.014 -0.098,-0.0215 -0.404,-0.0937 -0.8079,-0.187 -1.2168,-0.26758 -0.01,-10e-4 -0.01,-9.4e-4 -0.016,-0.002 -0.038,-0.007 -0.075,-0.018 -0.1133,-0.0254 -6e-4,-1.3e-4 0,1.2e-4 0,0 -0.1654,-0.032 -0.3323,-0.0542 -0.4981,-0.084 -0.015,-0.003 -0.03,-0.005 -0.045,-0.008 -0.372,-0.0663 -0.7434,-0.13411 -1.1191,-0.18945 -0.01,-8.6e-4 -0.012,-10e-4 -0.018,-0.002 -0.037,-0.005 -0.074,-0.0142 -0.1113,-0.0195 -7e-4,-9e-5 0,9e-5 0,0 -0.2618,-0.0378 -0.5247,-0.0634 -0.7871,-0.0957 -0.3023,-0.037 -0.6037,-0.0776 -0.9082,-0.10742 -0.3874,-0.0382 -0.7759,-0.0636 -1.1641,-0.0898 -0.2326,-0.0156 -0.4635,-0.0374 -0.6972,-0.0488 -0.018,-8.9e-4 -0.036,-0.003 -0.055,-0.004 -0.5936,-0.0283 -1.1871,-0.0425 -1.7813,-0.043 -0.01,-1e-5 -0.023,0 -0.033,0 z m -222.1484,346.64063 c -20.8738,0 -37.7969,16.92115 -37.7969,37.79492 0,20.87376 16.9231,37.79492 37.7969,37.79492 h 444.3008 c 20.8737,0 37.7949,-16.92116 37.7949,-37.79492 0,-20.87377 -16.9212,-37.79492 -37.7949,-37.79492 z"
       transform="matrix(0.26458333,0,0,0.26458333,-106.17197,78.133763)" />
    <path
       id="rect1633-5-3-9"
       style="color:#000000;font-style:normal;font-variant:normal;font-weight:normal;font-stretch:normal;font-size:medium;line-height:normal;font-family:sans-serif;font-variant-ligatures:normal;font-variant-position:normal;font-variant-caps:normal;font-variant-numeric:normal;font-variant-alternates:normal;font-variant-east-asian:normal;font-feature-settings:normal;font-variation-settings:normal;text-indent:0;text-align:start;text-decoration:none;text-decoration-line:none;text-decoration-style:solid;text-decoration-color:#000000;letter-spacing:normal;word-spacing:normal;text-transform:none;writing-mode:lr-tb;direction:ltr;text-orientation:mixed;dominant-baseline:auto;baseline-shift:baseline;text-anchor:start;white-space:normal;shape-padding:0;shape-margin:0;inline-size:0;clip-rule:nonzero;display:inline;overflow:visible;visibility:visible;opacity:1;isolation:auto;mix-blend-mode:normal;color-interpolation:sRGB;color-interpolation-filters:linearRGB;solid-color:#000000;solid-opacity:1;vector-effect:none;fill:#ffffff;fill-opacity:0.819075;fill-rule:nonzero;stroke:none;stroke-width:1;stroke-linecap:round;stroke-linejoin:round;stroke-miterlimit:4;stroke-dasharray:none;stroke-dashoffset:0;stroke-opacity:1;color-rendering:auto;image-rendering:auto;shape-rendering:auto;text-rendering:auto;enable-background:accumulate;stop-color:#000000;stop-opacity:1"
       d="m -118.85853,149.53509 a 10.001,10.001 0 0 0 -9.99991,9.9999 v 117.55665 a 10.001,10.001 0 0 0 9.99991,9.99991 H -1.3034339 a 10.001,10.001 0 0 0 9.9999058,-9.99991 V 159.53499 a 10.001,10.001 0 0 0 -9.9999058,-9.9999 z m 10.00042,19.99981 h 97.554254 v 97.55684 h -97.554254 z m 48.77687,8.83254 c -21.943366,0 -39.94692,18.00354 -39.94692,39.94691 0,21.94337 18.003554,39.94537 39.94692,39.94537 21.943369,0 39.945365,-18.002 39.945365,-39.94537 0,-21.94337 -18.001996,-39.94691 -39.945365,-39.94691 z m 0,19.99981 c 11.134572,0 19.945554,8.81254 19.945551,19.9471 0,11.13457 -8.810979,19.94555 -19.945551,19.94555 -11.134566,0 -19.947104,-8.81098 -19.947104,-19.94555 0,-11.13456 8.812538,-19.9471 19.947104,-19.9471 z" />
    <path
       id="path1769-9"
       style="color:#000000;font-style:normal;font-variant:normal;font-weight:normal;font-stretch:normal;font-size:medium;line-height:normal;font-family:sans-serif;font-variant-ligatures:normal;font-variant-position:normal;font-variant-caps:normal;font-variant-numeric:normal;font-variant-alternates:normal;font-variant-east-asian:normal;font-feature-settings:normal;font-variation-settings:normal;text-indent:0;text-align:start;text-decoration:none;text-decoration-line:none;text-decoration-style:solid;text-decoration-color:#000000;letter-spacing:normal;word-spacing:normal;text-transform:none;writing-mode:lr-tb;direction:ltr;text-orientation:mixed;dominant-baseline:auto;baseline-shift:baseline;text-anchor:start;white-space:normal;shape-padding:0;shape-margin:0;inline-size:0;clip-rule:nonzero;display:inline;overflow:visible;visibility:visible;opacity:1;isolation:auto;mix-blend-mode:normal;color-interpolation:sRGB;color-interpolation-filters:linearRGB;solid-color:#000000;solid-opacity:1;vector-effect:none;fill:#ffffff;fill-opacity:0.819075;fill-rule:nonzero;stroke:none;stroke-width:3.77953;stroke-linecap:round;stroke-linejoin:round;stroke-miterlimit:4;stroke-dasharray:none;stroke-dashoffset:0;stroke-opacity:1;color-rendering:auto;image-rendering:auto;shape-rendering:auto;text-rendering:auto;enable-background:accumulate;stop-color:#000000;stop-opacity:1"
       d="m 1827.4902,313.2168 c -30.5304,2.39591 -60.3137,11.29364 -87.1582,26.08789 l 32.6953,59.33789 c -18.4912,10.21913 -34.6321,24.23388 -47.3515,40.9707 l -53.9805,-41.01758 c -18.5103,24.36099 -31.7138,52.49376 -38.5625,82.375 l 65.918,15.10352 c -2.5324,10.85588 -3.8731,22.15273 -3.8731,33.74219 0,9.89094 0.9855,19.5653 2.8457,28.9375 l -66.375,12.90429 c 5.8505,30.10364 18.1246,58.65608 35.8243,83.61328 l 55.289,-39.21093 c 12.1839,17.15933 27.8805,31.67405 46.0078,42.47851 l -34.6386,58.2461 c 26.3299,15.65571 55.7988,25.5454 86.25,28.94531 l 7.5,-67.17188 c 5.5915,0.64256 11.2693,0.98438 17.0234,0.98438 15.7863,0 31.0254,-2.49429 45.3516,-7.09375 l 20.4062,64.51758 c 29.2322,-9.24768 56.1859,-24.69067 78.9649,-45.06641 l -45.2071,-50.53516 c 15.6271,-13.96716 28.3412,-31.13596 37.0645,-50.44531 l 61.7422,27.78906 c 12.5841,-27.96438 18.9847,-58.34042 18.9629,-88.86328 h 0.01 v -0.0371 -0.0351 c 0.015,-28.12067 -5.4189,-56.13001 -16.1446,-82.26563 l -62.6347,25.70117 c -8.0917,-19.6038 -20.2318,-37.16616 -35.3731,-51.60937 l 46.8145,-49.03906 c -22.0969,-21.096 -48.5063,-37.40881 -77.4063,-47.6211 l -22.5527,63.81641 c -15.6596,-5.60608 -32.4911,-8.67383 -49.9961,-8.67383 -4.0816,0 -8.1246,0.17403 -12.127,0.5 z m 17.4141,142.45703 c 41.3933,0 74.1445,32.7493 74.1445,74.14258 0,41.39331 -32.7512,74.13671 -74.1445,74.13671 -41.3933,0 -74.1367,-32.7434 -74.1367,-74.13671 0,-41.39328 32.7434,-74.14258 74.1367,-74.14258 z m 149.7344,74.11133 29.7636,0.0234 -29.7636,0.0352 c 0,-0.009 0,-0.0182 0,-0.0273 0,-0.0104 0,-0.0208 0,-0.0312 z"
       transform="matrix(0.26458333,0,0,0.26458333,-106.17197,78.133763)" />
  </g>
</svg>
