<svg width="32" height="32" viewBox="0 0 32 32" version="1.1" id="svg5"> <sodipodi:namedview id="namedview7" pagecolor="#ffffff" bordercolor="#666666" borderopacity="1.0" inkscape:pageshadow="2" inkscape:pageopacity="0.0" inkscape:pagecheckerboard="0" inkscape:document-units="px" showgrid="false" inkscape:snap-global="true" inkscape:zoom="18.517357" inkscape:cx="17.416092" inkscape:cy="14.310898" inkscape:window-width="1920" inkscape:window-height="1016" inkscape:window-x="0" inkscape:window-y="32" inkscape:window-maximized="1" inkscape:current-layer="layer1" inkscape:snap-bbox="true" inkscape:bbox-paths="true" inkscape:bbox-nodes="true" inkscape:snap-bbox-edge-midpoints="true" inkscape:snap-bbox-midpoints="true" inkscape:snap-intersection-paths="true" inkscape:object-paths="true" /> <defs id="defs2" /> <g inkscape:label="Layer 1" inkscape:groupmode="layer" id="layer1"> <path id="path1638" style="color:#000000;opacity:1;fill:#000000;stroke-width:2.082;stroke-linecap:round;stroke-linejoin:bevel;-inkscape-stroke:none;fill-opacity:1" d="M 13.109375 8.0371094 C 10.280064 8.0371094 7.9648437 10.352329 7.9648438 13.181641 C 7.9648438 16.010952 10.280064 18.328125 13.109375 18.328125 C 14.033091 18.328125 14.9009 18.079597 15.652344 17.648438 L 19.986328 21.982422 A 1.041 1.041 0 0 0 21.458984 21.982422 A 1.041 1.041 0 0 0 21.458984 20.509766 L 17.21875 16.269531 C 17.86832 15.407855 18.253906 14.337076 18.253906 13.181641 C 18.253906 10.352329 15.938686 8.0371094 13.109375 8.0371094 z M 13.109375 10.119141 C 14.813491 10.119141 16.171875 11.477525 16.171875 13.181641 C 16.171875 14.129655 15.750424 14.971037 15.083984 15.53125 A 1.041 1.041 0 0 0 15.041016 15.564453 A 1.041 1.041 0 0 0 15.037109 15.570312 C 14.51234 15.993726 13.843281 16.246094 13.109375 16.246094 C 11.405259 16.246094 10.046875 14.885757 10.046875 13.181641 C 10.046875 11.477525 11.405259 10.119141 13.109375 10.119141 z " /> </g> </svg>