<?xml version="1.0" encoding="UTF-8" standalone="no"?>
<!-- Created with Inkscape (http://www.inkscape.org/) -->

<svg
   width="32"
   height="32"
   viewBox="0 0 32 32"
   version="1.1"
   id="svg5"
   inkscape:version="1.1.1 (3bf5ae0d25, 2021-09-20)"
   sodipodi:docname="swap-icon.svg"
   xmlns:inkscape="http://www.inkscape.org/namespaces/inkscape"
   xmlns:sodipodi="http://sodipodi.sourceforge.net/DTD/sodipodi-0.dtd"
   xmlns="http://www.w3.org/2000/svg"
   xmlns:svg="http://www.w3.org/2000/svg">
  <sodipodi:namedview
     id="namedview7"
     pagecolor="#ffffff"
     bordercolor="#666666"
     borderopacity="1.0"
     inkscape:pageshadow="2"
     inkscape:pageopacity="0.0"
     inkscape:pagecheckerboard="0"
     inkscape:document-units="px"
     showgrid="false"
     inkscape:snap-global="true"
     inkscape:zoom="6.5985836"
     inkscape:cx="-44.327695"
     inkscape:cy="37.280728"
     inkscape:window-width="1920"
     inkscape:window-height="1016"
     inkscape:window-x="0"
     inkscape:window-y="32"
     inkscape:window-maximized="1"
     inkscape:current-layer="layer1"
     inkscape:snap-bbox="true"
     inkscape:bbox-paths="true"
     inkscape:bbox-nodes="true"
     inkscape:snap-bbox-edge-midpoints="true"
     inkscape:snap-bbox-midpoints="true"
     showguides="false" />
  <defs
     id="defs2" />
  <g
     inkscape:label="Layer 1"
     inkscape:groupmode="layer"
     id="layer1">
    <path
       id="path869-3"
       style="color:#000000;opacity:0.533556;fill:#000000;stroke-linecap:round;stroke-linejoin:round;-inkscape-stroke:none"
       d="m 13.327149,7.526367 a 6.4923197,6.4923197 0 0 0 -6.492188,6.492187 6.4923197,6.4923197 0 0 0 5.841797,6.445313 c 0.97917,2.348878 3.301333,4.009766 5.996094,4.009766 3.573275,0 6.492187,-2.918913 6.492187,-6.492188 0,-3.359246 -2.579507,-6.139851 -5.857422,-6.460938 a 6.4923197,6.4923197 0 0 0 -5.980468,-3.99414 z m 6.472656,6.189453 c 1.895989,0.494344 3.283203,2.207839 3.283203,4.265625 0,2.44808 -1.962076,4.410156 -4.410156,4.410156 -1.590702,0 -2.976587,-0.828216 -3.751953,-2.080078 a 6.4923197,6.4923197 0 0 0 4.90039,-6.292969 6.4923197,6.4923197 0 0 0 -0.02148,-0.302734 z" />
    <g
       id="path5534"
       style="opacity:0.533556"
       transform="translate(0,20)" />
  </g>
</svg>
