<?xml version="1.0" standalone="no"?>
<!DOCTYPE svg PUBLIC "-//W3C//DTD SVG 20010904//EN"
 "http://www.w3.org/TR/2001/REC-SVG-20010904/DTD/svg10.dtd">
<svg version="1.0" xmlns="http://www.w3.org/2000/svg"
 width="700.000000pt" height="700.000000pt" viewBox="0 0 700.000000 700.000000"
 preserveAspectRatio="xMidYMid meet">
<metadata>
Created by potrace 1.14, written by Peter Selinger 2001-2017
</metadata>
<g transform="translate(0.000000,700.000000) scale(0.100000,-0.100000)"
fill="#000000" stroke="none">
<path d="M3450 6903 c-81 -10 -168 -27 -199 -40 -20 -9 -668 -331 -1441 -717
-773 -386 -1428 -711 -1457 -724 -72 -32 -126 -88 -153 -158 l-22 -59 -2
-1785 c0 -982 2 -1807 6 -1833 14 -98 75 -182 161 -225 23 -11 177 -80 342
-152 165 -73 318 -140 340 -150 22 -10 166 -73 320 -140 154 -67 300 -131 325
-142 25 -11 68 -30 95 -43 28 -12 120 -53 205 -90 85 -37 178 -78 205 -90 28
-13 140 -62 250 -110 110 -48 218 -95 240 -105 22 -10 119 -53 215 -95 372
-164 427 -188 480 -213 46 -22 69 -26 140 -26 73 -1 94 3 145 28 67 31 55 26
290 129 94 41 195 86 225 100 30 13 141 62 245 107 105 45 223 98 263 116 41
19 76 34 78 34 3 0 31 12 62 26 31 14 149 67 262 116 113 49 223 98 245 108
22 10 132 58 245 108 113 49 225 98 250 109 25 12 79 35 120 53 41 18 98 43
127 56 29 13 141 62 250 110 109 47 214 94 233 104 19 10 40 19 45 20 95 23
195 119 226 215 10 32 12 421 12 1850 l-1 1810 -22 59 c-24 63 -74 119 -132
147 -18 9 -683 341 -1478 736 -795 396 -1466 725 -1492 732 -83 20 -194 31
-248 24z m1188 -1080 l1133 -566 -896 -449 c-979 -489 -1356 -665 -1396 -649
-13 5 -53 22 -89 38 -36 17 -130 59 -210 94 -80 35 -551 266 -1048 514 l-903
452 1133 566 c623 312 1135 567 1138 567 3 0 515 -255 1138 -567z m-3543
-1271 c88 -39 257 -113 375 -165 118 -52 325 -143 460 -202 135 -59 263 -115
285 -125 22 -10 191 -84 375 -165 184 -81 397 -174 473 -207 l137 -61 0 -1434
0 -1433 -35 15 c-19 8 -52 22 -72 31 -21 9 -56 24 -78 34 -38 17 -821 362
-1255 552 -113 50 -259 114 -325 143 -66 29 -178 78 -250 110 -71 31 -152 67
-180 79 -27 13 -86 38 -130 56 -44 19 -84 38 -90 42 -9 8 -16 2827 -7 2855 4
12 14 8 317 -125z m5129 -1289 c-1 -774 -2 -1416 -3 -1426 -1 -10 -12 -22 -26
-27 -23 -9 -899 -392 -971 -425 -32 -15 -371 -164 -624 -275 -85 -37 -177 -78
-205 -90 -27 -12 -63 -28 -80 -35 -16 -7 -93 -41 -170 -75 -77 -34 -156 -68
-175 -77 -19 -8 -43 -19 -53 -24 -10 -5 -40 -18 -67 -29 l-50 -20 0 1433 0
1433 453 199 c465 204 505 221 620 274 37 17 70 31 73 31 3 0 31 12 62 26 60
28 64 29 212 94 52 23 115 51 140 62 25 12 81 36 125 55 44 19 100 43 125 54
386 172 606 265 610 259 3 -5 4 -642 4 -1417z"/>
</g>
</svg>
