<?xml version="1.0" encoding="UTF-8" standalone="no"?>
<svg
   xmlns:dc="http://purl.org/dc/elements/1.1/"
   xmlns:cc="http://creativecommons.org/ns#"
   xmlns:rdf="http://www.w3.org/1999/02/22-rdf-syntax-ns#"
   xmlns:svg="http://www.w3.org/2000/svg"
   xmlns="http://www.w3.org/2000/svg"
   version="1.1"
   id="svg885"
   width="285.54022"
   height="229.54823"
   viewBox="0 0 285.54022 229.54823">
  <metadata
     id="metadata891">
    <rdf:RDF>
      <cc:Work
         rdf:about="">
        <dc:format>image/svg+xml</dc:format>
        <dc:type
           rdf:resource="http://purl.org/dc/dcmitype/StillImage" />
        <dc:title></dc:title>
      </cc:Work>
    </rdf:RDF>
  </metadata>
  <defs
     id="defs889" />
  <g
     id="g893"
     transform="translate(-28.959779,-57.126633)">
    <path
       style="fill:#ffffff;fill-opacity:1"
       d="M 51.734467,285.92201 C 43.163507,283.87982 35.860213,278.26865 31.661748,270.5 L 29.5,266.5 29.229889,173.1338 28.959779,79.767607 31.419083,74.633804 c 2.799,-5.84292 4.59721,-8.059586 9.637456,-11.880159 7.869727,-5.965356 4.375825,-5.821314 133.546071,-5.505671 99.49793,0.243136 118.50122,0.512252 121.76651,1.724402 5.03621,1.869554 13.14367,9.205692 15.93067,14.415059 L 314.5,77.5 v 94.5 94.5 l -2.16527,4 c -2.98653,5.51717 -8.88464,10.96438 -14.83473,13.70065 l -5,2.29935 -118.5,0.15961 c -67.11673,0.0904 -120.132788,-0.22944 -122.265533,-0.7376 z M 287,172 V 86 H 172 57 v 86 86 H 172 287 Z M 86,200.5 V 172 h 14.5 14.5 v 14.5 14.5 h 14 14 v 14 14 H 114.5 86 Z m 143,-43 V 143 H 215 201 V 129 115 H 229.5 258 V 143.5 172 H 243.5 229 Z"
       id="path897" />
  </g>
</svg>
