<svg id="Capa_1" enable-background="new 0 0 510 510" height="512" viewBox="0 0 510 510" width="512" xmlns="http://www.w3.org/2000/svg" xmlns:xlink="http://www.w3.org/1999/xlink"><linearGradient id="SVGID_1_" gradientUnits="userSpaceOnUse" x1="114.126" x2="440.964" y1="114.126" y2="440.964"><stop offset="0" stop-color="#a0d4ff"/><stop offset="1" stop-color="#0593fc"/></linearGradient><linearGradient id="lg1"><stop offset="0" stop-color="#a2e62e"/><stop offset="1" stop-color="#037e73"/></linearGradient><linearGradient id="SVGID_2_" gradientUnits="userSpaceOnUse" x1="33.547" x2="262.153" xlink:href="#lg1" y1="367.074" y2="494.602"/><linearGradient id="SVGID_3_" gradientUnits="userSpaceOnUse" x1="255" x2="255" y1="277.629" y2="479.713"><stop offset="0" stop-color="#2740b0" stop-opacity="0"/><stop offset=".2605" stop-color="#253da9" stop-opacity=".261"/><stop offset=".6428" stop-color="#203496" stop-opacity=".643"/><stop offset="1" stop-color="#192a7d"/></linearGradient><linearGradient id="SVGID_4_" gradientUnits="userSpaceOnUse" x1="67.667" x2="430.648" xlink:href="#lg1" y1="101.094" y2="303.583"/><linearGradient id="lg2"><stop offset="0" stop-color="#2740b0" stop-opacity="0"/><stop offset=".2693" stop-color="#263eac" stop-opacity=".269"/><stop offset=".5611" stop-color="#22399f" stop-opacity=".561"/><stop offset=".8625" stop-color="#1c2f89" stop-opacity=".863"/><stop offset="1" stop-color="#192a7d"/></linearGradient><linearGradient id="SVGID_5_" gradientUnits="userSpaceOnUse" x1="526.333" x2="262" xlink:href="#lg2" y1="526.333" y2="262"/><linearGradient id="SVGID_6_" gradientUnits="userSpaceOnUse" x1="440.333" x2="97.013" xlink:href="#lg2" y1="440.333" y2="97.013"/><linearGradient id="SVGID_7_" gradientUnits="userSpaceOnUse" x1="422" x2="183.365" xlink:href="#lg2" y1="422" y2="183.365"/><linearGradient id="lg3"><stop offset="0" stop-color="#eaf6ff"/><stop offset="1" stop-color="#b3dafe"/></linearGradient><linearGradient id="SVGID_8_" gradientUnits="userSpaceOnUse" x1="134.5" x2="375.117" xlink:href="#lg3" y1="134.5" y2="375.117"/><linearGradient id="SVGID_9_" gradientUnits="userSpaceOnUse" x1="397" x2="156.926" xlink:href="#lg3" y1="397" y2="156.926"/><linearGradient id="SVGID_10_" gradientUnits="userSpaceOnUse" x1="166.076" x2="343.925" xlink:href="#lg3" y1="255" y2="255"/><linearGradient id="lg4"><stop offset="0" stop-color="#d8ecfe" stop-opacity="0"/><stop offset=".7867" stop-color="#9bd1fe" stop-opacity=".787"/><stop offset="1" stop-color="#8ac9fe"/></linearGradient><linearGradient id="SVGID_11_" gradientUnits="userSpaceOnUse" x1="309.333" x2="235.852" xlink:href="#lg4" y1="255" y2="255"/><linearGradient id="SVGID_12_" gradientTransform="matrix(0 1 -1 0 2682.462 1019.538)" gradientUnits="userSpaceOnUse" x1="-710.204" x2="-783.686" xlink:href="#lg4" y1="2427.462" y2="2427.462"/><g><g><path d="m255 510c-140.833 0-255-114.167-255-255 0-47.355 12.908-91.695 35.398-129.693l301.365-111.917c100.729 34.076 173.237 129.375 173.237 241.61 0 140.833-114.167 255-255 255z" fill="url(#SVGID_1_)"/><path d="m23.975 363.045c37.158 79.313 113.937 136.363 204.867 145.629v-8.64c0-36.332-14.433-71.175-40.123-96.865-25.69-25.69-60.534-40.123-96.865-40.123h-67.879z" fill="url(#SVGID_2_)"/><path d="m0 255c0 140.833 114.167 255 255 255 140.832 0 255-114.167 255-255 0-5.099-.167-10.157-.462-15.182h-509.076c-.295 5.024-.462 10.083-.462 15.182z" fill="url(#SVGID_3_)"/></g><path d="m377.179 48.97c-8.242-16.734-22.747-29.6-40.417-35.578-25.666-8.683-53.164-13.392-81.762-13.392-93.478 0-175.206 50.299-219.6 125.308-6.226 10.52-3.718 24.026 5.876 31.602 6.401 5.054 14.904 6.577 22.661 4.059l69.373-22.524c8.401-2.728 17.621-.513 23.866 5.732l16.665 16.665c6.748 6.748 8.743 16.907 5.049 25.706-5.323 12.679 1.333 27.199 14.413 31.441l20.05 6.503c3.023.981 5.67 2.872 7.577 5.415 5.037 6.717 3.774 16.229-2.842 21.398l-8.106 6.333c-7.562 5.909-11.982 14.971-11.982 24.568v7.16c0 12.291 6.051 23.795 16.18 30.759l13.909 9.562c1.263.868 2.678 1.491 4.172 1.836l8.206 1.894c17.309 3.994 30.569 17.924 33.708 35.408 1.202 6.695.849 13.576-1.032 20.112l-13.658 47.479c-2.245 7.805 3.613 15.585 11.734 15.585 3.075 0 6.036-1.16 8.293-3.248l52.325-48.42c7.374-6.824 13.363-15.004 17.641-24.095l11.683-24.826c3.864-8.211 6.269-17.032 7.107-26.068l4.543-48.968c1.98-21.341-7.327-42.167-24.548-54.928-10.562-7.826-23.359-12.051-36.504-12.051h-9.362c-13.934 0-25.682-10.384-27.394-24.213-1.236-9.983 3.057-19.848 11.204-25.747l10.347-7.492c3.578-2.591 7.726-4.285 12.095-4.941l25.383-3.808c17.628-2.644 33.018-13.35 41.629-28.957 11.145-20.201 11.712-44.573 1.518-65.269z" fill="url(#SVGID_4_)"/><path d="m509.757 265.797-132.777-132.777-31.82 31.82c49.71 49.72 53.217 134.107 3.507 183.827-49.72 49.71-134.107 46.203-183.827-3.507l-31.82 31.82 132.777 132.777c132.24-5.511 238.449-111.72 243.96-243.96z" fill="url(#SVGID_5_)"/><path d="m255 105c-82.843 0-150 67.157-150 150s67.157 150 150 150 150-67.157 150-150-67.157-150-150-150z" fill="url(#SVGID_6_)"/><path d="m477.489 379.65-203.034-202.94c-4.067-5.823-10.814-9.635-18.455-9.635-12.426 0-22.5 10.073-22.5 22.5v43.925h-43.924c-12.426 0-22.5 10.073-22.5 22.5 0 7.641 3.812 14.388 9.635 18.455l202.937 203.036c40.925-22.978 74.863-56.915 97.841-97.841z" fill="url(#SVGID_7_)"/><g><path d="m255 82.5c-95.117 0-172.5 77.383-172.5 172.5s77.383 172.5 172.5 172.5 172.5-77.383 172.5-172.5-77.383-172.5-172.5-172.5zm0 300c-70.304 0-127.5-57.196-127.5-127.5s57.196-127.5 127.5-127.5 127.5 57.196 127.5 127.5-57.196 127.5-127.5 127.5z" fill="url(#SVGID_8_)"/><path d="m255 105c-82.843 0-150 67.157-150 150s67.157 150 150 150 150-67.157 150-150-67.157-150-150-150zm0 277.5c-70.304 0-127.5-57.196-127.5-127.5s57.196-127.5 127.5-127.5 127.5 57.196 127.5 127.5-57.196 127.5-127.5 127.5z" fill="url(#SVGID_9_)"/><path d="m321.425 232.5h-43.925v-43.925c0-12.427-10.073-22.5-22.5-22.5-12.426 0-22.5 10.073-22.5 22.5v43.925h-43.924c-12.426 0-22.5 10.073-22.5 22.5s10.074 22.5 22.5 22.5h43.924v43.925c0 12.427 10.074 22.5 22.5 22.5 12.427 0 22.5-10.073 22.5-22.5v-43.925h43.925c12.427 0 22.5-10.073 22.5-22.5s-10.073-22.5-22.5-22.5z" fill="url(#SVGID_10_)"/><path d="m277.5 321.425v-43.925h43.925c12.427 0 22.5-10.073 22.5-22.5s-10.073-22.5-22.5-22.5h-43.925v-43.925c0-12.427-10.073-22.5-22.5-22.5v177.85c12.427 0 22.5-10.073 22.5-22.5z" fill="url(#SVGID_11_)"/><path d="m188.575 277.5h43.925v43.925c0 12.427 10.073 22.5 22.5 22.5s22.5-10.073 22.5-22.5v-43.925h43.925c12.427 0 22.5-10.073 22.5-22.5h-177.85c0 12.427 10.074 22.5 22.5 22.5z" fill="url(#SVGID_12_)"/></g></g></svg>