<?xml version="1.0" encoding="UTF-8" standalone="no"?>
<svg
   xmlns:dc="http://purl.org/dc/elements/1.1/"
   xmlns:cc="http://creativecommons.org/ns#"
   xmlns:rdf="http://www.w3.org/1999/02/22-rdf-syntax-ns#"
   xmlns:svg="http://www.w3.org/2000/svg"
   xmlns="http://www.w3.org/2000/svg"
   xmlns:xlink="http://www.w3.org/1999/xlink"
   xmlns:sodipodi="http://sodipodi.sourceforge.net/DTD/sodipodi-0.dtd"
   xmlns:inkscape="http://www.inkscape.org/namespaces/inkscape"
   width="66.916344mm"
   height="66.916344mm"
   viewBox="0 0 66.916344 66.916343"
   version="1.1"
   id="svg8"
   inkscape:version="1.0.2 (e86c870879, 2021-01-15)"
   sodipodi:docname="icon_folder_draft.svg">
  <defs
     id="defs2">
    <linearGradient
       inkscape:collect="always"
       id="linearGradient1072">
      <stop
         style="stop-color:#000000;stop-opacity:0.21511278"
         offset="0"
         id="stop1068" />
      <stop
         style="stop-color:#000000;stop-opacity:0;"
         offset="1"
         id="stop1070" />
    </linearGradient>
    <inkscape:path-effect
       effect="fillet_chamfer"
       id="path-effect933"
       is_visible="true"
       lpeversion="1"
       satellites_param="F,0,0,1,0,2.6458333,0,1 @ F,0,0,1,0,2.6458333,0,1 @ F,0,0,1,0,2.6458333,0,1 @ F,0,0,1,0,2.6458333,0,1 @ F,0,0,1,0,2.6458333,0,1 @ F,0,0,1,0,2.6458333,0,1 @ F,0,0,1,0,2.6458333,0,1 @ F,0,0,1,0,2.6458333,0,1 @ F,0,0,1,0,2.6458333,0,1"
       unit="px"
       method="auto"
       mode="F"
       radius="10"
       chamfer_steps="1"
       flexible="false"
       use_knot_distance="true"
       apply_no_radius="true"
       apply_with_radius="true"
       only_selected="false"
       hide_knots="false" />
    <linearGradient
       inkscape:collect="always"
       id="linearGradient927">
      <stop
         style="stop-color:#000000;stop-opacity:0.344432"
         offset="0"
         id="stop923" />
      <stop
         style="stop-color:#000000;stop-opacity:0.12789287"
         offset="1"
         id="stop925" />
    </linearGradient>
    <inkscape:path-effect
       effect="fillet_chamfer"
       id="path-effect898"
       is_visible="true"
       lpeversion="1"
       satellites_param="F,0,0,1,0,2.6458333,0,1 @ F,0,0,1,0,2.6458333,0,1 @ F,0,0,1,0,2.6458333,0,1 @ F,0,0,1,0,2.6458333,0,1 @ F,0,0,1,0,2.6458333,0,1 @ F,0,0,1,0,2.6458333,0,1 @ F,0,0,1,0,2.6458333,0,1"
       unit="px"
       method="auto"
       mode="F"
       radius="10"
       chamfer_steps="1"
       flexible="false"
       use_knot_distance="true"
       apply_no_radius="true"
       apply_with_radius="true"
       only_selected="false"
       hide_knots="false" />
    <inkscape:path-effect
       effect="fillet_chamfer"
       id="path-effect896"
       is_visible="true"
       lpeversion="1"
       satellites_param="F,0,0,1,0,2.6458333,0,1 @ F,0,0,1,0,2.6458333,0,1 @ F,0,0,1,0,2.6458333,0,1 @ F,0,0,1,0,2.6458333,0,1"
       unit="px"
       method="auto"
       mode="F"
       radius="10"
       chamfer_steps="1"
       flexible="false"
       use_knot_distance="true"
       apply_no_radius="true"
       apply_with_radius="true"
       only_selected="false"
       hide_knots="false" />
    <linearGradient
       inkscape:collect="always"
       id="linearGradient2094">
      <stop
         style="stop-color:#e9ddd4;stop-opacity:1"
         offset="0"
         id="stop2090" />
      <stop
         style="stop-color:#cbb5a8;stop-opacity:0"
         offset="0.19904397"
         id="stop2098" />
      <stop
         style="stop-color:#e5d9d1;stop-opacity:0"
         offset="0.43559939"
         id="stop2100" />
      <stop
         style="stop-color:#c3aa96;stop-opacity:1"
         offset="1"
         id="stop2092" />
    </linearGradient>
    <linearGradient
       inkscape:collect="always"
       id="linearGradient2081">
      <stop
         style="stop-color:#eae0d9;stop-opacity:1"
         offset="0"
         id="stop2077" />
      <stop
         style="stop-color:#bda393;stop-opacity:1"
         offset="1"
         id="stop2079" />
    </linearGradient>
    <linearGradient
       inkscape:collect="always"
       id="linearGradient2071">
      <stop
         style="stop-color:#e0d0c6;stop-opacity:1"
         offset="0"
         id="stop2067" />
      <stop
         style="stop-color:#775e50;stop-opacity:1"
         offset="0.79775375"
         id="stop2075" />
      <stop
         style="stop-color:#ac998d;stop-opacity:1"
         offset="1"
         id="stop2069" />
    </linearGradient>
    <linearGradient
       inkscape:collect="always"
       id="linearGradient1633">
      <stop
         style="stop-color:#dfcabc;stop-opacity:1"
         offset="0"
         id="stop1629" />
      <stop
         style="stop-color:#b49d8d;stop-opacity:1"
         offset="1"
         id="stop1631" />
    </linearGradient>
    <clipPath
       clipPathUnits="userSpaceOnUse"
       id="clipPath1056">
      <path
         id="path1058"
         style="opacity:0.99777;fill:#007575;fill-opacity:1;stroke-width:20;stroke-linejoin:round;stroke-dasharray:20, 20"
         d="m 79.09233,68.893986 c -4.439214,0.0021 -8.703152,1.732696 -11.887129,4.826061 -1.961782,-1.463455 -4.343807,-2.254086 -6.791317,-2.254125 -6.272982,-1.59e-4 -11.358359,5.084987 -11.35848,11.357964 -5.6e-5,1.202809 0.190941,2.397988 0.565856,3.540869 -7.139443,0.921419 -12.484648,7.000478 -12.485026,14.199135 -1.88e-4,7.90768 6.410307,14.31816 14.317991,14.31798 H 71.005486 V 103.05676 H 63.089174 L 75.405215,81.724728 87.72126,103.05676 h -7.916312 v 11.82511 h 19.44584 c 6.212452,-1.9e-4 11.248502,-5.03647 11.248412,-11.24892 -1.1e-4,-5.575417 -4.08426,-10.309479 -9.59941,-11.126968 -0.82666,-2.78443 -2.480632,-5.251598 -4.742351,-7.073987 C 95.871334,76.216452 88.318007,68.893976 79.098013,68.893986 Z" />
    </clipPath>
    <clipPath
       clipPathUnits="userSpaceOnUse"
       id="clipPath1403">
      <path
         id="path1405"
         style="opacity:0.99777;fill:#e3d6ce;fill-opacity:1;stroke-width:18.1701;stroke-linejoin:round;stroke-dasharray:18.1701, 18.1701"
         d="m 210.07792,66.15181 c 14.06691,-3.013678 26.64946,-1.729639 38.73275,-1.828665 1.64388,16.138647 5.40444,32.277294 7.04832,48.415935 -12.91091,-1.56358 -25.82183,-0.85393 -38.73275,1.82867 -1.64388,-16.138649 -5.40444,-32.277296 -7.04832,-48.41594 z"
         sodipodi:nodetypes="ccccc" />
    </clipPath>
    <clipPath
       clipPathUnits="userSpaceOnUse"
       id="clipPath1853">
      <path
         id="path1855"
         style="opacity:0.99777;fill:url(#linearGradient1857);fill-opacity:1;stroke-width:35.1769;stroke-linejoin:round;stroke-dasharray:35.1769, 35.1769"
         d="m 231.23118,155.06772 29.72113,16.85399 c -9.04709,10.46225 -12.74555,18.4942 -17.38315,29.19196 -9.73066,-5.618 -19.99048,-11.23599 -29.72113,-16.85398 4.42805,-11.71875 12.35022,-24.06886 17.38315,-29.19197 z"
         sodipodi:nodetypes="ccccc" />
    </clipPath>
    <linearGradient
       inkscape:collect="always"
       xlink:href="#linearGradient1633"
       id="linearGradient1857"
       gradientUnits="userSpaceOnUse"
       x1="228.99098"
       y1="156.45604"
       x2="251.24748"
       y2="191.85666" />
    <clipPath
       clipPathUnits="userSpaceOnUse"
       id="clipPath1403-6">
      <path
         id="path1405-2"
         style="opacity:0.99777;fill:#e3d6ce;fill-opacity:1;stroke-width:18.1701;stroke-linejoin:round;stroke-dasharray:18.1701, 18.1701"
         d="m 210.07792,66.15181 c 14.06691,-3.013678 26.64946,-1.729639 38.73275,-1.828665 1.64388,16.138647 5.40444,32.277294 7.04832,48.415935 -12.91091,-1.56358 -25.82183,-0.85393 -38.73275,1.82867 -1.64388,-16.138649 -5.40444,-32.277296 -7.04832,-48.41594 z"
         sodipodi:nodetypes="ccccc" />
    </clipPath>
    <clipPath
       clipPathUnits="userSpaceOnUse"
       id="clipPath1853-8">
      <path
         id="path1855-7"
         style="opacity:0.99777;fill:url(#linearGradient1857);fill-opacity:1;stroke-width:35.1769;stroke-linejoin:round;stroke-dasharray:35.1769, 35.1769"
         d="m 231.23118,155.06772 29.72113,16.85399 c -9.04709,10.46225 -12.74555,18.4942 -17.38315,29.19196 -9.73066,-5.618 -19.99048,-11.23599 -29.72113,-16.85398 4.42805,-11.71875 12.35022,-24.06886 17.38315,-29.19197 z"
         sodipodi:nodetypes="ccccc" />
    </clipPath>
    <linearGradient
       inkscape:collect="always"
       xlink:href="#linearGradient2071"
       id="linearGradient2073"
       x1="298.61374"
       y1="99.595192"
       x2="297.37686"
       y2="67.556953"
       gradientUnits="userSpaceOnUse"
       gradientTransform="matrix(1.2326326,0,0,1.2326326,-54.870979,-15.819053)" />
    <linearGradient
       inkscape:collect="always"
       xlink:href="#linearGradient2081"
       id="linearGradient2087"
       gradientUnits="userSpaceOnUse"
       x1="236.95692"
       y1="110.34055"
       x2="236.0316"
       y2="72.044434"
       gradientTransform="matrix(1.2326326,0,0,1.2326326,-54.870979,-15.819053)" />
    <linearGradient
       inkscape:collect="always"
       xlink:href="#linearGradient2094"
       id="linearGradient2096"
       x1="285.9537"
       y1="70.233734"
       x2="292.33853"
       y2="106.80738"
       gradientUnits="userSpaceOnUse"
       gradientTransform="matrix(1.2326326,0,0,1.2326326,-54.870979,-15.819053)" />
    <linearGradient
       inkscape:collect="always"
       xlink:href="#linearGradient2081"
       id="linearGradient1010"
       gradientUnits="userSpaceOnUse"
       x1="236.95692"
       y1="110.34055"
       x2="236.0316"
       y2="72.044434"
       gradientTransform="matrix(1.2326326,0,0,1.2326326,-54.870979,-15.819053)" />
    <linearGradient
       inkscape:collect="always"
       xlink:href="#linearGradient2071"
       id="linearGradient1344"
       gradientUnits="userSpaceOnUse"
       gradientTransform="matrix(1.2326326,0,0,1.2326326,-54.870979,-15.819053)"
       x1="298.61374"
       y1="99.595192"
       x2="297.37686"
       y2="67.556953" />
    <linearGradient
       inkscape:collect="always"
       xlink:href="#linearGradient2081"
       id="linearGradient1346"
       gradientUnits="userSpaceOnUse"
       gradientTransform="matrix(1.2326326,0,0,1.2326326,-54.870979,-15.819053)"
       x1="236.95692"
       y1="110.34055"
       x2="236.0316"
       y2="72.044434" />
    <linearGradient
       inkscape:collect="always"
       xlink:href="#linearGradient927"
       id="linearGradient929"
       x1="72.496063"
       y1="165.66408"
       x2="72.496063"
       y2="137.41992"
       gradientUnits="userSpaceOnUse" />
    <filter
       inkscape:collect="always"
       style="color-interpolation-filters:sRGB"
       id="filter990"
       x="-0.10197209"
       width="1.2039442"
       y="-0.16557094"
       height="1.3311419">
      <feGaussianBlur
         inkscape:collect="always"
         stdDeviation="2.2007414"
         id="feGaussianBlur992" />
    </filter>
    <mask
       maskUnits="userSpaceOnUse"
       id="mask1060">
      <g
         id="g1066">
        <rect
           style="fill:#ffffff;fill-opacity:1;stroke-width:0.988999;stroke-linecap:round;stroke-linejoin:round"
           id="rect1062"
           width="62.36977"
           height="47.797581"
           x="238.62373"
           y="67.199699" />
        <path
           id="path1064"
           style="fill:#000000;fill-opacity:1;stroke-width:0.988999;stroke-linecap:round;stroke-linejoin:round"
           d="m 257.69683,78.344239 a 2.6458333,2.6458333 0 0 0 -2.64583,2.645833 v 7.937497 6.964954 2.64583 3.207557 c 0,1.45906 0.0467,3.89233 -0.58395,5.19658 -0.004,0.008 -0.008,0.0161 -0.0124,0.0243 -0.063,0.12839 -0.13115,0.25332 -0.20309,0.3762 -0.0104,0.0179 -0.0204,0.036 -0.031,0.0538 -0.0741,0.12355 -0.15343,0.2438 -0.23616,0.36121 -0.0131,0.0186 -0.0259,0.0374 -0.0393,0.0558 -0.0831,0.11508 -0.16991,0.22732 -0.26096,0.3359 -0.0171,0.0204 -0.0348,0.0403 -0.0522,0.0605 -0.0949,0.11008 -0.19287,0.21769 -0.29559,0.3204 -0.10547,0.10546 -0.21594,0.20562 -0.32918,0.30282 -0.0156,0.0134 -0.0308,0.0271 -0.0465,0.0403 -0.10717,0.09 -0.21774,0.17607 -0.33125,0.25838 -0.0245,0.0178 -0.0491,0.0353 -0.0739,0.0527 -0.11515,0.0808 -0.23295,0.15796 -0.35398,0.23048 -0.0166,0.01 -0.0335,0.0192 -0.0501,0.0289 -0.12341,0.0723 -0.2493,0.14082 -0.37827,0.20412 -0.0122,0.006 -0.0239,0.0127 -0.0362,0.0186 -4.9e-4,2.3e-4 -0.001,2.8e-4 -0.002,5.2e-4 -4.5e-4,2.2e-4 -5.8e-4,3e-4 -0.001,5.2e-4 -0.76741,0.36954 -1.62803,0.57677 -2.53679,0.5767 h 2.64583 3.20756 9.43146 2.64584 3.20755 2.64583 12.13725 13.22917 a 2.6458333,2.6458333 0 0 0 2.64583,-2.64583 V 80.990072 a 2.6458333,2.6458333 0 0 0 -2.64583,-2.645833 z" />
      </g>
    </mask>
    <linearGradient
       inkscape:collect="always"
       xlink:href="#linearGradient1072"
       id="linearGradient1074"
       x1="300.99341"
       y1="110.24461"
       x2="300.99341"
       y2="104.90426"
       gradientUnits="userSpaceOnUse" />
  </defs>
  <sodipodi:namedview
     id="base"
     pagecolor="#e3e3e3"
     bordercolor="#666666"
     borderopacity="1.0"
     inkscape:pageopacity="1"
     inkscape:pageshadow="2"
     inkscape:zoom="1.4439681"
     inkscape:cx="16.777905"
     inkscape:cy="193.82135"
     inkscape:document-units="mm"
     inkscape:current-layer="layer1"
     inkscape:document-rotation="0"
     showgrid="false"
     inkscape:snap-global="true"
     inkscape:snap-bbox="true"
     inkscape:bbox-paths="true"
     inkscape:bbox-nodes="true"
     inkscape:snap-bbox-edge-midpoints="true"
     inkscape:snap-bbox-midpoints="true"
     inkscape:snap-smooth-nodes="true"
     inkscape:snap-midpoints="true"
     inkscape:object-paths="true"
     inkscape:window-width="1920"
     inkscape:window-height="1003"
     inkscape:window-x="0"
     inkscape:window-y="40"
     inkscape:window-maximized="1"
     showguides="false"
     inkscape:snap-page="true" />
  <metadata
     id="metadata5">
    <rdf:RDF>
      <cc:Work
         rdf:about="">
        <dc:format>image/svg+xml</dc:format>
        <dc:type
           rdf:resource="http://purl.org/dc/dcmitype/StillImage" />
        <dc:title></dc:title>
      </cc:Work>
    </rdf:RDF>
  </metadata>
  <g
     inkscape:label="Layer 1"
     inkscape:groupmode="layer"
     id="layer1"
     transform="translate(-238.62373,-55.489273)">
    <path
       id="path936"
       style="fill:#6b82ff;fill-opacity:1;stroke-width:3.73795;stroke-linecap:round;stroke-linejoin:round"
       d="m 58.251953,2.9746094 c -6.402898,0 -12.543521,2.5435411 -20,9.9999996 -7.456441,7.456464 -10,13.597107 -10,20 v 88.445311 12.12305 10 a 22.121536,22.121536 0 0 0 22.121094,22.12109 h 9.998047 12.123047 35.646479 10 12.12305 10 45.87305 50 a 9.9999999,9.9999999 0 0 0 10,-10 V 55.095703 a 9.9999999,9.9999999 0 0 0 -10,-10 H 201.89258 V 32.974609 c 0,-5.522842 -4.47717,-9.999992 -10,-10 h -53.64063 c -6.40289,0 -12.54278,-2.542778 -17.07031,-7.070312 l -5.85742,-5.859375 C 110.79668,5.5173878 104.65485,2.9746094 98.251953,2.9746094 Z M 70.333984,153.07812 c -0.0159,0.0337 -0.02879,0.0721 -0.04492,0.10547 -0.01512,0.0302 -0.03025,0.0608 -0.04687,0.0918 -0.0095,0.0194 -0.02166,0.0373 -0.03125,0.0566 a 22.121536,22.121536 0 0 0 0.123046,-0.25391 z m -10.173828,10.30469 c -0.01779,0.009 -0.03491,0.0186 -0.05273,0.0273 -0.04611,0.0227 -0.09023,0.048 -0.136719,0.0703 -0.0019,8.7e-4 -0.004,0.001 -0.0078,0.002 -0.0017,8.3e-4 -0.0023,0.001 -0.0039,0.002 -0.05269,0.0254 -0.107238,0.0473 -0.160156,0.0723 a 22.121536,22.121536 0 0 0 0.361328,-0.17383 z m -1.0625,0.48828 c -0.168842,0.0726 -0.338781,0.14249 -0.509765,0.21094 a 22.121536,22.121536 0 0 0 0.509765,-0.21094 z m -1.126953,0.44727 c -0.162688,0.0595 -0.325782,0.11805 -0.490234,0.17383 a 22.121536,22.121536 0 0 0 0.490234,-0.17383 z m -1.189453,0.39648 c -0.151683,0.0459 -0.303991,0.0901 -0.457031,0.13282 a 22.121536,22.121536 0 0 0 0.457031,-0.13282 z m -1.3125,0.35547 c -0.107611,0.0254 -0.216007,0.0485 -0.324219,0.0723 a 22.121536,22.121536 0 0 0 0.324219,-0.0723 z m -1.173828,0.24414 c -0.100002,0.0179 -0.200319,0.0342 -0.300781,0.0508 a 22.121536,22.121536 0 0 0 0.300781,-0.0508 z m -1.324219,0.19727 c -0.03898,0.005 -0.07815,0.007 -0.117187,0.0117 a 22.121536,22.121536 0 0 0 0.117187,-0.0117 z"
       transform="matrix(0.26458333,0,0,0.26458333,235.86974,66.412668)" />
    <path
       id="rect867"
       style="fill:url(#linearGradient929);fill-opacity:1;stroke-width:3.73795;stroke-linecap:round;stroke-linejoin:round"
       d="m 58.251953,2.9746094 c -6.402898,0 -12.543521,2.5435401 -20,9.9999996 -7.456441,7.456464 -10,13.597107 -10,20 v 88.445311 12.12305 10 a 22.121536,22.121536 0 0 0 22.121094,22.12109 c 0.428017,0 0.853355,-0.0131 1.275391,-0.0371 a 22.121536,22.121536 0 0 0 0.002,0 c 6.51e-4,-3e-5 0.0013,4e-5 0.002,0 0.403649,-0.023 0.803587,-0.0591 1.201172,-0.10351 a 22.121536,22.121536 0 0 0 0.117187,-0.0117 c 0.343588,-0.0402 0.684839,-0.0907 1.023438,-0.14649 a 22.121536,22.121536 0 0 0 0.300781,-0.0508 c 0.0039,-7e-4 0.0078,-0.001 0.01172,-0.002 0.281614,-0.0506 0.56008,-0.1088 0.83789,-0.16992 a 22.121536,22.121536 0 0 0 0.324219,-0.0723 22.121536,22.121536 0 0 0 0.0332,-0.008 c 0.27632,-0.0656 0.550069,-0.13895 0.822266,-0.21484 a 22.121536,22.121536 0 0 0 0.457031,-0.13282 c 0.234626,-0.0709 0.46796,-0.14421 0.699219,-0.22265 a 22.121536,22.121536 0 0 0 0.490234,-0.17383 c 0.207211,-0.0758 0.412935,-0.15456 0.617188,-0.23633 a 22.121536,22.121536 0 0 0 0.509765,-0.21094 c 0.235761,-0.10131 0.469734,-0.20526 0.701172,-0.31445 a 22.121536,22.121536 0 0 0 0.361328,-0.17383 c 0.468808,-0.23188 0.927575,-0.48087 1.376953,-0.74414 0.04641,-0.0271 0.09389,-0.053 0.140625,-0.0801 a 22.121536,22.121536 0 0 0 0.04883,-0.0293 c 0.0028,-0.002 0.005,-0.004 0.0078,-0.006 0.454496,-0.27263 0.897522,-0.56171 1.330078,-0.86524 0.09373,-0.0658 0.186699,-0.13194 0.279297,-0.19922 0.429014,-0.31109 0.846901,-0.6364 1.251953,-0.97656 0.05934,-0.0499 0.116821,-0.1017 0.175781,-0.15234 0.426597,-0.36617 0.842787,-0.74347 1.240235,-1.14063 a 22.121536,22.121536 0 0 0 0.0039,-0.004 c 0.0065,-0.007 0.01304,-0.013 0.01953,-0.0195 0.38114,-0.3823 0.744988,-0.78233 1.097656,-1.19141 0.06576,-0.0764 0.132636,-0.15141 0.197266,-0.22852 0.344126,-0.41038 0.67225,-0.83458 0.986328,-1.26953 0.05065,-0.0695 0.09893,-0.14064 0.148438,-0.21094 0.31268,-0.44375 0.612515,-0.89827 0.892578,-1.36523 0.04006,-0.0673 0.07788,-0.13547 0.117187,-0.20312 0.261015,-0.44584 0.506262,-0.90041 0.736329,-1.36524 a 22.121536,22.121536 0 0 0 0.123046,-0.25391 c 0.0036,-0.008 0.0081,-0.0157 0.01172,-0.0234 2.321728,-4.95828 2.150391,-14.043 2.150391,-19.51172 v -12.12305 -10 -26.324217 -30 a 9.9999999,9.9999999 0 0 1 10,-10 H 201.89258 V 32.974609 c 0,-5.522842 -4.47717,-9.999992 -10,-10 h -53.64063 c -6.40289,0 -12.54278,-2.542778 -17.07031,-7.070312 l -5.85742,-5.859375 C 110.79665,5.517388 104.65485,2.9746094 98.251953,2.9746094 Z"
       transform="matrix(0.26458333,0,0,0.26458333,235.86974,66.412668)" />
    <path
       id="path972"
       style="fill:#000000;fill-opacity:0.216522;stroke-width:0.988999;stroke-linecap:round;stroke-linejoin:round;filter:url(#filter990)"
       d="m 252.40516,77.815075 a 2.6458333,2.6458333 0 0 0 -2.64583,2.645833 v 7.9375 6.964951 2.64583 3.207561 c 0,1.45907 0.0467,3.89235 -0.58395,5.1966 -0.004,0.008 -0.008,0.0161 -0.0124,0.0243 -0.063,0.12839 -0.13115,0.25332 -0.20309,0.3762 -0.0104,0.0179 -0.0204,0.036 -0.031,0.0538 -0.0741,0.12355 -0.15343,0.2438 -0.23616,0.36121 -0.0131,0.0186 -0.0259,0.0374 -0.0393,0.0558 -0.0831,0.11508 -0.16991,0.22732 -0.26096,0.3359 -0.0171,0.0204 -0.0348,0.0403 -0.0522,0.0605 -0.0949,0.11008 -0.19287,0.21769 -0.29559,0.3204 -0.10547,0.10546 -0.21594,0.20562 -0.32918,0.30282 -0.0156,0.0134 -0.0308,0.0271 -0.0465,0.0403 -0.10717,0.09 -0.21774,0.17607 -0.33125,0.25838 -0.0245,0.0178 -0.0491,0.0353 -0.0739,0.0527 -0.11515,0.0808 -0.23295,0.15796 -0.35398,0.23048 -0.0166,0.01 -0.0335,0.0192 -0.0501,0.0289 -0.12341,0.0723 -0.2493,0.14082 -0.37827,0.20412 -0.0122,0.006 -0.0239,0.0127 -0.0362,0.0186 -4.9e-4,2.3e-4 -0.001,2.8e-4 -0.002,5.2e-4 -4.5e-4,2.2e-4 -5.8e-4,3e-4 -0.001,5.2e-4 -0.76741,0.36954 -1.62803,0.57677 -2.53679,0.5767 h 2.64583 3.20756 9.43146 2.64584 3.20755 2.64583 12.13725 13.22917 a 2.6458333,2.6458333 0 0 0 2.64583,-2.64583 V 80.460908 A 2.6458333,2.6458333 0 0 0 293.056,77.815075 Z"
       mask="url(#mask1060)" />
    <g
       id="g1129"
       transform="matrix(0.77980148,0,0,0.77980148,-26.277365,20.000492)">
      <path
         id="rect2063"
         style="opacity:0.99777;fill:url(#linearGradient1344);fill-opacity:1;stroke:none;stroke-width:24.6527;stroke-linejoin:round;stroke-dasharray:24.6527, 24.6527;stroke-opacity:1"
         d="m 235.86974,66.412668 h 63.40009 v 48.833392 h -63.40009 z"
         sodipodi:nodetypes="ccccc" />
      <path
         id="path2102"
         style="opacity:0.99777;fill:url(#linearGradient1010);fill-opacity:1;stroke:none;stroke-width:23.299;stroke-linejoin:round;stroke-dasharray:23.299, 23.299;stroke-opacity:1"
         d="m 235.86974,73.046351 h 63.40009 v 42.199699 h -63.40009 z"
         sodipodi:nodetypes="ccccc" />
      <path
         id="rect2065"
         style="opacity:0.99777;fill:url(#linearGradient2096);fill-opacity:1;stroke:none;stroke-width:23.299;stroke-linejoin:round;stroke-dasharray:23.299, 23.299;stroke-opacity:1"
         d="m 235.86974,73.046351 h 63.40009 v 42.199699 h -63.40009 z"
         sodipodi:nodetypes="ccccc" />
      <path
         id="rect2085"
         style="opacity:0.99777;fill:url(#linearGradient1346);fill-opacity:1;stroke:none;stroke-width:23.299;stroke-linejoin:round;stroke-dasharray:23.299, 23.299;stroke-opacity:1"
         d="m 237.82656,75.003157 h 59.48645 v 38.286083 h -59.48645 z"
         sodipodi:nodetypes="ccccc" />
    </g>
    <path
       id="path970"
       style="fill:#4b4d6e;fill-opacity:1;stroke-width:0.988999;stroke-linecap:round;stroke-linejoin:round"
       d="m 251.28224,135.99139 c -1.6941,0 -3.31881,0.67298 -5.29167,2.64583 -1.97285,1.97286 -2.64583,3.59757 -2.64583,5.29167 v 23.40117 3.20756 2.64583 a 5.8529897,5.8529897 0 0 0 5.85287,5.85287 h 2.64532 3.20755 9.43147 2.64583 3.20756 2.64583 12.13724 13.22917 a 2.6458333,2.6458333 0 0 0 2.64583,-2.64583 v -26.60872 a 2.6458333,2.6458333 0 0 0 -2.64583,-2.64584 h -9.06043 v -3.20704 c 0,-1.46125 -1.18458,-2.64583 -2.64583,-2.64583 H 272.4489 c -1.6941,0 -3.31861,-0.67278 -4.51652,-1.87069 l -1.54977,-1.55029 c -1.19792,-1.19791 -2.82294,-1.87069 -4.51704,-1.87069 z m 3.1967,39.7149 c -0.004,0.009 -0.008,0.0191 -0.0119,0.0279 -0.004,0.008 -0.008,0.0161 -0.0124,0.0243 -0.003,0.005 -0.006,0.01 -0.008,0.015 a 5.8529897,5.8529897 0 0 0 0.0326,-0.0672 z m -2.69183,2.72645 c -0.005,0.002 -0.009,0.005 -0.014,0.007 -0.0122,0.006 -0.0239,0.0127 -0.0362,0.0186 -4.9e-4,2.3e-4 -0.001,2.8e-4 -0.002,5.2e-4 -4.5e-4,2.2e-4 -6.1e-4,2.9e-4 -0.001,5.2e-4 -0.0139,0.007 -0.0284,0.0125 -0.0424,0.0191 a 5.8529897,5.8529897 0 0 0 0.0956,-0.046 z m -0.28112,0.12919 c -0.0447,0.0192 -0.0896,0.0377 -0.13487,0.0558 a 5.8529897,5.8529897 0 0 0 0.13487,-0.0558 z m -0.29817,0.11834 c -0.043,0.0158 -0.0862,0.0312 -0.12971,0.046 a 5.8529897,5.8529897 0 0 0 0.12971,-0.046 z m -0.31471,0.10491 c -0.0401,0.0121 -0.0804,0.0238 -0.12092,0.0351 a 5.8529897,5.8529897 0 0 0 0.12092,-0.0351 z m -0.34726,0.094 c -0.0285,0.007 -0.0572,0.0128 -0.0858,0.0191 a 5.8529897,5.8529897 0 0 0 0.0858,-0.0191 z m -0.31058,0.0646 c -0.0265,0.005 -0.053,0.009 -0.0796,0.0134 a 5.8529897,5.8529897 0 0 0 0.0796,-0.0134 z m -0.35037,0.0522 c -0.0103,0.001 -0.0207,0.002 -0.031,0.003 a 5.8529897,5.8529897 0 0 0 0.031,-0.003 z" />
    <path
       id="path994-6"
       style="fill:url(#linearGradient1074);fill-opacity:1;stroke-width:0.988999;stroke-linecap:round;stroke-linejoin:round"
       d="m 257.69683,78.344239 a 2.6458333,2.6458333 0 0 0 -2.64583,2.645833 v 7.937497 6.964954 2.64583 3.207557 c 0,1.45906 0.0467,3.89233 -0.58395,5.19658 -0.004,0.008 -0.008,0.0161 -0.0124,0.0243 -0.063,0.12839 -0.13115,0.25332 -0.20309,0.3762 -0.0104,0.0179 -0.0204,0.036 -0.031,0.0538 -0.0741,0.12355 -0.15343,0.2438 -0.23616,0.36121 -0.0131,0.0186 -0.0259,0.0374 -0.0393,0.0558 -0.0831,0.11508 -0.16991,0.22732 -0.26096,0.3359 -0.0171,0.0204 -0.0348,0.0403 -0.0522,0.0605 -0.0949,0.11008 -0.19287,0.21769 -0.29559,0.3204 -0.10547,0.10546 -0.21594,0.20562 -0.32918,0.30282 -0.0156,0.0134 -0.0308,0.0271 -0.0465,0.0403 -0.10717,0.09 -0.21774,0.17607 -0.33125,0.25838 -0.0245,0.0178 -0.0491,0.0353 -0.0739,0.0527 -0.11515,0.0808 -0.23295,0.15796 -0.35398,0.23048 -0.0166,0.01 -0.0335,0.0192 -0.0501,0.0289 -0.12341,0.0723 -0.2493,0.14082 -0.37827,0.20412 -0.0122,0.006 -0.0239,0.0127 -0.0362,0.0186 -4.9e-4,2.3e-4 -0.001,2.8e-4 -0.002,5.2e-4 -4.5e-4,2.2e-4 -5.8e-4,3e-4 -0.001,5.2e-4 -0.76741,0.36954 -1.62803,0.57677 -2.53679,0.5767 h 2.64583 3.20756 9.43146 2.64584 3.20755 2.64583 12.13725 13.22917 a 2.6458333,2.6458333 0 0 0 2.64583,-2.64583 V 80.990072 a 2.6458333,2.6458333 0 0 0 -2.64583,-2.645833 z" />
  </g>
</svg>
