<?xml version="1.0" encoding="UTF-8" standalone="no"?>
<svg
   xmlns:dc="http://purl.org/dc/elements/1.1/"
   xmlns:cc="http://creativecommons.org/ns#"
   xmlns:rdf="http://www.w3.org/1999/02/22-rdf-syntax-ns#"
   xmlns:svg="http://www.w3.org/2000/svg"
   xmlns="http://www.w3.org/2000/svg"
   width="137.55698mm"
   height="137.55646mm"
   viewBox="0 0 137.55698 137.55646"
   version="1.1"
   id="svg8">
  <defs
     id="defs2" />
  <metadata
     id="metadata5">
    <rdf:RDF>
      <cc:Work
         rdf:about="">
        <dc:format>image/svg+xml</dc:format>
        <dc:type
           rdf:resource="http://purl.org/dc/dcmitype/StillImage" />
        <dc:title></dc:title>
      </cc:Work>
    </rdf:RDF>
  </metadata>
  <g
     id="layer1"
     transform="translate(128.85947,-149.53509)">
    <path
       id="path1577-7"
       style="color:#000000;font-style:normal;font-variant:normal;font-weight:normal;font-stretch:normal;font-size:medium;line-height:normal;font-family:sans-serif;font-variant-ligatures:normal;font-variant-position:normal;font-variant-caps:normal;font-variant-numeric:normal;font-variant-alternates:normal;font-variant-east-asian:normal;font-feature-settings:normal;font-variation-settings:normal;text-indent:0;text-align:start;text-decoration:none;text-decoration-line:none;text-decoration-style:solid;text-decoration-color:#000000;letter-spacing:normal;word-spacing:normal;text-transform:none;writing-mode:lr-tb;direction:ltr;text-orientation:mixed;dominant-baseline:auto;baseline-shift:baseline;text-anchor:start;white-space:normal;shape-padding:0;shape-margin:0;inline-size:0;clip-rule:nonzero;display:inline;overflow:visible;visibility:visible;isolation:auto;mix-blend-mode:normal;color-interpolation:sRGB;color-interpolation-filters:linearRGB;solid-color:#000000;solid-opacity:1;vector-effect:none;fill:#ffffff;fill-opacity:0.819075;fill-rule:nonzero;stroke:none;stroke-width:1;stroke-linecap:round;stroke-linejoin:bevel;stroke-miterlimit:4;stroke-dasharray:none;stroke-dashoffset:0;stroke-opacity:1;color-rendering:auto;image-rendering:auto;shape-rendering:auto;text-rendering:auto;enable-background:accumulate;stop-color:#000000"
       d="m -60.081246,175.37641 c -0.164783,0 -0.329407,0.004 -0.494004,0.0124 -0.06654,0.003 -0.132265,0.009 -0.198437,0.0139 -0.09538,0.007 -0.190606,0.0124 -0.285777,0.0217 -0.0026,1.4e-4 -0.0026,2.7e-4 -0.0042,5.3e-4 -0.08657,0.008 -0.171979,0.0204 -0.25789,0.031 -0.0071,7.9e-4 -0.01455,0.002 -0.0217,0.003 -0.0408,0.005 -0.08173,0.009 -0.122476,0.0145 -0.02791,0.004 -0.0558,0.008 -0.08371,0.0119 0,1e-4 -0.0026,5.3e-4 -0.0026,5.3e-4 -0.09472,0.014 -0.18833,0.0309 -0.282152,0.0475 -0.0026,2.6e-4 -0.0045,5.3e-4 -0.0066,0.001 -0.02222,0.004 -0.04448,0.007 -0.06667,0.0114 -0.03977,0.007 -0.07964,0.0139 -0.119354,0.0217 -0.108162,0.0213 -0.21508,0.0455 -0.321945,0.0703 -0.0026,2.7e-4 -0.0026,8e-4 -0.0042,0.001 -0.05133,0.0119 -0.102844,0.0229 -0.154014,0.0357 -0.09805,0.0245 -0.195077,0.0517 -0.291968,0.0791 -0.0029,8e-4 -0.0058,0.002 -0.0087,0.003 -0.05551,0.0157 -0.111125,0.0304 -0.166397,0.047 -0.0957,0.0289 -0.190261,0.0603 -0.284744,0.092 0,2.6e-4 -0.0026,7.9e-4 -0.0026,0.001 -0.05966,0.0199 -0.119459,0.0393 -0.178805,0.0605 -1.59e-4,5e-5 0,-6e-5 0,0 -0.0844,0.0301 -0.167799,0.0623 -0.251143,0.0946 -0.05069,0.0196 -0.101997,0.0374 -0.152453,0.0579 -1.32e-4,7e-5 0,-6e-5 0,0 -0.02355,0.01 -0.04641,0.0203 -0.06977,0.03 -0.06535,0.0272 -0.129646,0.0563 -0.19431,0.0848 -0.08612,0.0379 -0.172085,0.0759 -0.257334,0.11627 0,5.3e-4 -0.0026,0.001 -0.0032,0.002 -0.05855,0.0278 -0.116232,0.0568 -0.174149,0.0858 -0.08718,0.0435 -0.174334,0.0871 -0.260456,0.13333 -0.05448,0.0292 -0.107897,0.0602 -0.16174,0.0904 -0.08829,0.0495 -0.176503,0.099 -0.263551,0.15141 -0.05104,0.0307 -0.100991,0.063 -0.151421,0.0946 -0.08858,0.0555 -0.176874,0.111 -0.264081,0.1695 -0.04278,0.0287 -0.08427,0.059 -0.126603,0.0884 -0.0058,0.004 -0.01164,0.008 -0.01746,0.0124 -0.08702,0.0607 -0.173911,0.12126 -0.259398,0.18501 -0.0349,0.026 -0.06882,0.0531 -0.103372,0.0796 -0.09144,0.07 -0.182801,0.1403 -0.272336,0.21394 -0.0026,0.001 -0.0032,0.002 -0.0045,0.004 -0.04313,0.0355 -0.08464,0.0729 -0.127132,0.10904 -0.08057,0.0686 -0.161423,0.13667 -0.240295,0.20825 -0.121523,0.11018 -0.240612,0.22305 -0.356579,0.339 l -42.838208,42.83822 c -3.90525,3.90525 -3.90525,10.23703 0,14.14228 3.90525,3.90524 10.237044,3.90524 14.142294,0 l 25.766897,-25.76741 v 36.44066 c 0,5.52285 4.47757,9.99991 10.00043,9.99991 5.52286,0 9.9999,-4.47706 9.9999,-9.99991 v -36.44042 l 25.766898,25.76691 c 3.90525,3.90524 10.237046,3.90524 14.142296,0 3.9052503,-3.90525 3.9052503,-10.23704 0,-14.14229 l -42.838687,-42.83822 c -0.116125,-0.11612 -0.235373,-0.22918 -0.357081,-0.33951 -0.0026,-0.002 -0.0037,-0.003 -0.0058,-0.005 -0.06548,-0.0593 -0.132821,-0.11531 -0.199469,-0.1726 -0.05517,-0.0474 -0.109168,-0.0959 -0.165365,-0.14211 -0.08377,-0.0689 -0.169307,-0.13421 -0.254767,-0.19998 -0.04117,-0.0317 -0.08131,-0.0646 -0.122979,-0.0956 -0.08199,-0.0611 -0.165682,-0.11898 -0.249078,-0.17725 -0.0048,-0.003 -0.0093,-0.007 -0.01402,-0.01 -0.04651,-0.0324 -0.09242,-0.0656 -0.139515,-0.0971 -0.02064,-0.0138 -0.0404,-0.0288 -0.06099,-0.0424 -0.06376,-0.0421 -0.129275,-0.0804 -0.19378,-0.12092 -0.0048,-0.003 -0.0095,-0.006 -0.01455,-0.009 -0.05064,-0.0317 -0.100674,-0.0643 -0.151924,-0.0951 -0.02037,-0.0122 -0.04008,-0.0257 -0.06046,-0.0377 -1.32e-4,-8e-5 0,7e-5 0,0 -0.05778,-0.0341 -0.116866,-0.0648 -0.17518,-0.0977 -0.0053,-0.003 -0.01032,-0.006 -0.01561,-0.009 -0.0572,-0.0322 -0.114167,-0.0645 -0.172085,-0.0956 0,-2.7e-4 -0.0026,-7.9e-4 -0.0026,-0.001 -0.08258,-0.0442 -0.166053,-0.0859 -0.249582,-0.12764 0,-5.3e-4 -0.0026,-0.001 -0.0037,-0.002 -0.05824,-0.0291 -0.116337,-0.0583 -0.175181,-0.0863 0,-5.3e-4 -0.0026,-10e-4 -0.0032,-0.002 -0.02487,-0.0117 -0.04903,-0.0252 -0.0739,-0.0367 -0.05897,-0.0274 -0.11893,-0.0514 -0.178302,-0.0775 -0.06509,-0.0287 -0.130043,-0.0574 -0.195845,-0.0847 -0.02461,-0.0102 -0.04868,-0.022 -0.07339,-0.032 -1.33e-4,-6e-5 0,6e-5 0,0 -0.04805,-0.0195 -0.09692,-0.0361 -0.145204,-0.0548 -0.0026,-10e-4 -0.005,-0.002 -0.0077,-0.003 -0.08162,-0.0316 -0.163353,-0.063 -0.245983,-0.0925 -0.0026,-8e-4 -0.0037,-0.001 -0.0058,-0.002 -0.05921,-0.0211 -0.118771,-0.0406 -0.178276,-0.0605 0,-2.7e-4 -0.0026,-8e-4 -0.0026,-0.001 -0.09467,-0.0317 -0.189362,-0.0631 -0.285247,-0.092 -0.01508,-0.005 -0.0299,-0.01 -0.04495,-0.0145 -0.03768,-0.0111 -0.07593,-0.0198 -0.113691,-0.0305 -0.0061,-0.002 -0.01244,-0.003 -0.01852,-0.005 -0.09546,-0.0269 -0.190738,-0.0539 -0.287338,-0.078 -0.04501,-0.0112 -0.09025,-0.0209 -0.135387,-0.0315 -0.0085,-0.002 -0.0172,-0.004 -0.02593,-0.006 -0.106892,-0.0248 -0.213757,-0.0495 -0.321945,-0.0708 -0.0026,-2.7e-4 -0.0026,-2.5e-4 -0.0042,-5.3e-4 -0.01005,-0.002 -0.01984,-0.005 -0.02998,-0.007 -1.58e-4,-4e-5 0,3e-5 0,0 -0.04376,-0.008 -0.08792,-0.0143 -0.131789,-0.0222 -0.004,-7.9e-4 -0.0079,-0.001 -0.01191,-0.002 -0.09842,-0.0175 -0.196691,-0.0355 -0.296095,-0.0501 -0.0026,-2.3e-4 -0.0032,-2.6e-4 -0.0048,-5.3e-4 -0.0098,-10e-4 -0.01958,-0.004 -0.02945,-0.005 -1.85e-4,-2e-5 0,3e-5 0,0 -0.06927,-0.01 -0.138827,-0.0168 -0.208253,-0.0253 -0.07998,-0.01 -0.159729,-0.0205 -0.240295,-0.0284 -0.102499,-0.0101 -0.20529,-0.0168 -0.308001,-0.0238 -0.06154,-0.004 -0.122635,-0.01 -0.184468,-0.0129 -0.0048,-2.4e-4 -0.0095,-7.9e-4 -0.01455,-0.001 -0.157056,-0.007 -0.314087,-0.0112 -0.471302,-0.0114 -0.0026,0 -0.0061,0 -0.0087,0 z m -58.776764,91.71533 c -5.52286,0 -10.00043,4.47705 -10.00043,9.9999 0,5.52285 4.47757,9.99991 10.00043,9.99991 H -1.3034247 c 5.5228331,0 9.9999005,-4.47706 9.9999005,-9.99991 0,-5.52285 -4.4770674,-9.9999 -9.9999005,-9.9999 z" />
    <path
       id="path1769-9"
       style="color:#000000;font-style:normal;font-variant:normal;font-weight:normal;font-stretch:normal;font-size:medium;line-height:normal;font-family:sans-serif;font-variant-ligatures:normal;font-variant-position:normal;font-variant-caps:normal;font-variant-numeric:normal;font-variant-alternates:normal;font-variant-east-asian:normal;font-feature-settings:normal;font-variation-settings:normal;text-indent:0;text-align:start;text-decoration:none;text-decoration-line:none;text-decoration-style:solid;text-decoration-color:#000000;letter-spacing:normal;word-spacing:normal;text-transform:none;writing-mode:lr-tb;direction:ltr;text-orientation:mixed;dominant-baseline:auto;baseline-shift:baseline;text-anchor:start;white-space:normal;shape-padding:0;shape-margin:0;inline-size:0;clip-rule:nonzero;display:inline;overflow:visible;visibility:visible;opacity:1;isolation:auto;mix-blend-mode:normal;color-interpolation:sRGB;color-interpolation-filters:linearRGB;solid-color:#000000;solid-opacity:1;vector-effect:none;fill:#ffffff;fill-opacity:0.819075;fill-rule:nonzero;stroke:none;stroke-width:3.77953;stroke-linecap:round;stroke-linejoin:round;stroke-miterlimit:4;stroke-dasharray:none;stroke-dashoffset:0;stroke-opacity:1;color-rendering:auto;image-rendering:auto;shape-rendering:auto;text-rendering:auto;enable-background:accumulate;stop-color:#000000;stop-opacity:1"
       d="m 1827.4902,313.2168 c -30.5304,2.39591 -60.3137,11.29364 -87.1582,26.08789 l 32.6953,59.33789 c -18.4912,10.21913 -34.6321,24.23388 -47.3515,40.9707 l -53.9805,-41.01758 c -18.5103,24.36099 -31.7138,52.49376 -38.5625,82.375 l 65.918,15.10352 c -2.5324,10.85588 -3.8731,22.15273 -3.8731,33.74219 0,9.89094 0.9855,19.5653 2.8457,28.9375 l -66.375,12.90429 c 5.8505,30.10364 18.1246,58.65608 35.8243,83.61328 l 55.289,-39.21093 c 12.1839,17.15933 27.8805,31.67405 46.0078,42.47851 l -34.6386,58.2461 c 26.3299,15.65571 55.7988,25.5454 86.25,28.94531 l 7.5,-67.17188 c 5.5915,0.64256 11.2693,0.98438 17.0234,0.98438 15.7863,0 31.0254,-2.49429 45.3516,-7.09375 l 20.4062,64.51758 c 29.2322,-9.24768 56.1859,-24.69067 78.9649,-45.06641 l -45.2071,-50.53516 c 15.6271,-13.96716 28.3412,-31.13596 37.0645,-50.44531 l 61.7422,27.78906 c 12.5841,-27.96438 18.9847,-58.34042 18.9629,-88.86328 h 0.01 v -0.0371 -0.0351 c 0.015,-28.12067 -5.4189,-56.13001 -16.1446,-82.26563 l -62.6347,25.70117 c -8.0917,-19.6038 -20.2318,-37.16616 -35.3731,-51.60937 l 46.8145,-49.03906 c -22.0969,-21.096 -48.5063,-37.40881 -77.4063,-47.6211 l -22.5527,63.81641 c -15.6596,-5.60608 -32.4911,-8.67383 -49.9961,-8.67383 -4.0816,0 -8.1246,0.17403 -12.127,0.5 z m 17.4141,142.45703 c 41.3933,0 74.1445,32.7493 74.1445,74.14258 0,41.39331 -32.7512,74.13671 -74.1445,74.13671 -41.3933,0 -74.1367,-32.7434 -74.1367,-74.13671 0,-41.39328 32.7434,-74.14258 74.1367,-74.14258 z m 149.7344,74.11133 29.7636,0.0234 -29.7636,0.0352 c 0,-0.009 0,-0.0182 0,-0.0273 0,-0.0104 0,-0.0208 0,-0.0312 z"
       transform="matrix(0.26458333,0,0,0.26458333,-106.17197,78.133763)" />
  </g>
</svg>
