<?xml version="1.0" encoding="UTF-8" standalone="no"?>
<svg
   xmlns:dc="http://purl.org/dc/elements/1.1/"
   xmlns:cc="http://creativecommons.org/ns#"
   xmlns:rdf="http://www.w3.org/1999/02/22-rdf-syntax-ns#"
   xmlns:svg="http://www.w3.org/2000/svg"
   xmlns="http://www.w3.org/2000/svg"
   xmlns:xlink="http://www.w3.org/1999/xlink"
   xmlns:sodipodi="http://sodipodi.sourceforge.net/DTD/sodipodi-0.dtd"
   xmlns:inkscape="http://www.inkscape.org/namespaces/inkscape"
   width="78.632393mm"
   height="78.632393mm"
   viewBox="0 0 78.632393 78.632393"
   version="1.1"
   id="svg8"
   inkscape:version="1.0.2 (e86c870879, 2021-01-15)"
   sodipodi:docname="icon_settings.svg">
  <defs
     id="defs2">
    <inkscape:path-effect
       effect="fillet_chamfer"
       id="path-effect1434"
       is_visible="true"
       lpeversion="1"
       satellites_param="F,0,0,1,0,2.6458333,0,1 @ F,0,0,1,0,2.6458333,0,1 @ F,0,0,1,0,2.6458333,0,1 @ F,0,0,1,0,2.6458333,0,1 @ F,0,0,1,0,2.6458333,0,1 @ F,0,0,1,0,2.6458333,0,1"
       unit="px"
       method="auto"
       mode="F"
       radius="10"
       chamfer_steps="1"
       flexible="false"
       use_knot_distance="true"
       apply_no_radius="true"
       apply_with_radius="true"
       only_selected="false"
       hide_knots="false" />
    <linearGradient
       inkscape:collect="always"
       id="linearGradient1428">
      <stop
         style="stop-color:#727272;stop-opacity:1"
         offset="0"
         id="stop1424" />
      <stop
         style="stop-color:#ffffff;stop-opacity:1"
         offset="1"
         id="stop1426" />
    </linearGradient>
    <linearGradient
       inkscape:collect="always"
       id="linearGradient1408">
      <stop
         style="stop-color:#ffffff;stop-opacity:1"
         offset="0"
         id="stop1400" />
      <stop
         style="stop-color:#ffffff;stop-opacity:1"
         offset="0.73206538"
         id="stop1402" />
      <stop
         style="stop-color:#797979;stop-opacity:1"
         offset="0.86475378"
         id="stop1404" />
      <stop
         style="stop-color:#ffffff;stop-opacity:1"
         offset="1"
         id="stop1406" />
    </linearGradient>
    <linearGradient
       inkscape:collect="always"
       id="linearGradient1390">
      <stop
         style="stop-color:#ffffff;stop-opacity:1"
         offset="0"
         id="stop1382" />
      <stop
         style="stop-color:#ffffff;stop-opacity:1"
         offset="0.73206538"
         id="stop1384" />
      <stop
         style="stop-color:#797979;stop-opacity:1"
         offset="0.86475384"
         id="stop1386" />
      <stop
         style="stop-color:#ffffff;stop-opacity:1"
         offset="1"
         id="stop1388" />
    </linearGradient>
    <inkscape:path-effect
       effect="fillet_chamfer"
       id="path-effect1361"
       is_visible="true"
       lpeversion="1"
       satellites_param="F,0,0,1,0,2.6458333,0,1 @ F,0,0,1,0,2.6458333,0,1 @ F,0,0,1,0,2.6458333,0,1 @ F,0,0,1,0,2.6458333,0,1 @ F,0,0,1,0,2.6458333,0,1 @ F,0,0,1,0,2.6458333,0,1"
       unit="px"
       method="auto"
       mode="F"
       radius="10"
       chamfer_steps="1"
       flexible="false"
       use_knot_distance="true"
       apply_no_radius="true"
       apply_with_radius="true"
       only_selected="false"
       hide_knots="false" />
    <linearGradient
       inkscape:collect="always"
       id="linearGradient981">
      <stop
         style="stop-color:#000000;stop-opacity:0.21799436"
         offset="0"
         id="stop977" />
      <stop
         style="stop-color:#000000;stop-opacity:0"
         offset="0.44037196"
         id="stop983" />
      <stop
         style="stop-color:#000000;stop-opacity:0"
         offset="1"
         id="stop979" />
    </linearGradient>
    <linearGradient
       inkscape:collect="always"
       id="linearGradient967">
      <stop
         style="stop-color:#000000;stop-opacity:0"
         offset="0"
         id="stop961" />
      <stop
         style="stop-color:#000000;stop-opacity:0"
         offset="0.73206538"
         id="stop963" />
      <stop
         style="stop-color:#000000;stop-opacity:0.20784312"
         offset="0.86475384"
         id="stop969" />
      <stop
         style="stop-color:#000000;stop-opacity:0"
         offset="1"
         id="stop965" />
    </linearGradient>
    <inkscape:path-effect
       effect="fillet_chamfer"
       id="path-effect943"
       is_visible="true"
       lpeversion="1"
       satellites_param="F,0,0,1,0,2.6458333,0,1 @ F,0,0,1,0,2.6458333,0,1 @ F,0,0,1,0,2.6458333,0,1 @ F,0,0,1,0,2.6458333,0,1 @ F,0,0,1,0,2.6458333,0,1 @ F,0,0,1,0,2.6458333,0,1"
       unit="px"
       method="auto"
       mode="F"
       radius="10"
       chamfer_steps="1"
       flexible="false"
       use_knot_distance="true"
       apply_no_radius="true"
       apply_with_radius="true"
       only_selected="false"
       hide_knots="false" />
    <inkscape:path-effect
       effect="fillet_chamfer"
       id="path-effect938"
       is_visible="true"
       lpeversion="1"
       satellites_param="F,0,0,1,0,2.6458333,0,1 @ F,0,0,1,0,2.6458333,0,1 @ F,0,0,1,0,2.6458333,0,1 @ F,0,0,1,0,2.6458333,0,1 @ F,0,0,1,0,2.6458333,0,1 @ F,0,0,1,0,2.6458333,0,1"
       unit="px"
       method="auto"
       mode="F"
       radius="10"
       chamfer_steps="1"
       flexible="false"
       use_knot_distance="true"
       apply_no_radius="true"
       apply_with_radius="true"
       only_selected="false"
       hide_knots="false" />
    <inkscape:path-effect
       effect="fillet_chamfer"
       id="path-effect913"
       is_visible="true"
       lpeversion="1"
       satellites_param="F,0,0,1,0,2.6458333,0,1 @ F,0,0,1,0,2.6458333,0,1 @ F,0,0,1,0,2.6458333,0,1 @ F,0,0,1,0,2.6458333,0,1 @ F,0,0,1,0,2.6458333,0,1 @ F,0,0,1,0,2.6458333,0,1"
       unit="px"
       method="auto"
       mode="F"
       radius="10"
       chamfer_steps="1"
       flexible="false"
       use_knot_distance="true"
       apply_no_radius="true"
       apply_with_radius="true"
       only_selected="false"
       hide_knots="false" />
    <inkscape:path-effect
       effect="fillet_chamfer"
       id="path-effect909"
       is_visible="true"
       lpeversion="1"
       satellites_param="F,0,0,1,0,2.6458333,0,1 @ F,0,0,1,0,2.6458333,0,1 @ F,0,0,1,0,2.6458333,0,1 @ F,0,0,1,0,2.6458333,0,1 @ F,0,0,1,0,2.6458333,0,1 @ F,0,0,1,0,2.6458333,0,1"
       unit="px"
       method="auto"
       mode="F"
       radius="10"
       chamfer_steps="1"
       flexible="false"
       use_knot_distance="true"
       apply_no_radius="true"
       apply_with_radius="true"
       only_selected="false"
       hide_knots="false" />
    <inkscape:path-effect
       effect="fillet_chamfer"
       id="path-effect903"
       is_visible="true"
       lpeversion="1"
       satellites_param="F,0,0,1,0,2.6458333,0,1 @ F,0,0,1,0,2.6458333,0,1 @ F,0,0,1,0,2.6458333,0,1 @ F,0,0,1,0,2.6458333,0,1 @ F,0,0,1,0,2.6458333,0,1"
       unit="px"
       method="auto"
       mode="F"
       radius="10"
       chamfer_steps="1"
       flexible="false"
       use_knot_distance="true"
       apply_no_radius="true"
       apply_with_radius="true"
       only_selected="false"
       hide_knots="false" />
    <inkscape:path-effect
       effect="fillet_chamfer"
       id="path-effect899"
       is_visible="true"
       lpeversion="1"
       satellites_param="F,0,0,1,0,2.6458333,0,1 @ F,0,0,1,0,2.6458333,0,1 @ F,0,0,1,0,2.6458333,0,1 @ F,0,0,1,0,2.6458333,0,1 @ F,0,0,1,0,2.6458333,0,1"
       unit="px"
       method="auto"
       mode="F"
       radius="10"
       chamfer_steps="1"
       flexible="true"
       use_knot_distance="true"
       apply_no_radius="true"
       apply_with_radius="true"
       only_selected="false"
       hide_knots="false" />
    <inkscape:path-effect
       effect="fillet_chamfer"
       id="path-effect895"
       is_visible="true"
       lpeversion="1"
       satellites_param="F,0,0,1,0,2.6458333,0,1 @ F,0,0,1,0,2.6458333,0,1 @ F,0,0,1,0,2.6458333,0,1 @ F,0,0,1,0,2.6458333,0,1 @ F,0,0,1,0,2.6458333,0,1"
       unit="px"
       method="auto"
       mode="F"
       radius="10"
       chamfer_steps="1"
       flexible="true"
       use_knot_distance="true"
       apply_no_radius="true"
       apply_with_radius="true"
       only_selected="false"
       hide_knots="false" />
    <inkscape:path-effect
       effect="fillet_chamfer"
       id="path-effect893"
       is_visible="true"
       lpeversion="1"
       satellites_param="F,0,0,1,0,0,0,1 @ F,0,0,1,0,0,0,1 @ F,0,0,1,0,0,0,1 @ F,0,0,1,0,0,0,1 @ F,0,0,1,0,0,0,1 @ F,0,0,1,0,0,0,1 @ F,0,0,1,0,0,0,1 @ F,0,0,1,0,0,0,1 @ F,0,0,1,0,0,0,1"
       unit="px"
       method="auto"
       mode="F"
       radius="0"
       chamfer_steps="1"
       flexible="false"
       use_knot_distance="true"
       apply_no_radius="true"
       apply_with_radius="true"
       only_selected="false"
       hide_knots="false" />
    <inkscape:path-effect
       effect="fillet_chamfer"
       id="path-effect891"
       is_visible="true"
       lpeversion="1"
       satellites_param="F,0,0,1,0,2.6458333,0,1 @ F,0,0,1,0,2.6458333,0,1 @ F,0,0,1,0,2.6458333,0,1 @ F,0,0,1,0,2.6458333,0,1 @ F,0,0,1,0,2.6458333,0,1 @ F,0,0,1,0,2.6458333,0,1"
       unit="px"
       method="auto"
       mode="F"
       radius="10"
       chamfer_steps="1"
       flexible="false"
       use_knot_distance="true"
       apply_no_radius="true"
       apply_with_radius="true"
       only_selected="false"
       hide_knots="false" />
    <inkscape:path-effect
       effect="fillet_chamfer"
       id="path-effect889"
       is_visible="true"
       lpeversion="1"
       satellites_param="F,0,0,1,0,2.6458333,0,1 @ F,0,0,1,0,2.6458333,0,1 @ F,0,0,1,0,2.6458333,0,1 @ F,0,0,1,0,2.6458333,0,1 @ F,0,0,1,0,2.6458333,0,1 @ F,0,0,1,0,2.6458333,0,1"
       unit="px"
       method="auto"
       mode="F"
       radius="10"
       chamfer_steps="1"
       flexible="false"
       use_knot_distance="true"
       apply_no_radius="true"
       apply_with_radius="true"
       only_selected="false"
       hide_knots="false" />
    <inkscape:path-effect
       effect="fillet_chamfer"
       id="path-effect887"
       is_visible="true"
       lpeversion="1"
       satellites_param="F,0,0,1,0,2.6458333,0,1 @ F,0,0,1,0,2.6458333,0,1 @ F,0,0,1,0,2.6458333,0,1 @ F,0,0,1,0,2.6458333,0,1 @ F,0,0,1,0,2.6458333,0,1"
       unit="px"
       method="auto"
       mode="F"
       radius="10"
       chamfer_steps="1"
       flexible="false"
       use_knot_distance="true"
       apply_no_radius="true"
       apply_with_radius="true"
       only_selected="false"
       hide_knots="false" />
    <linearGradient
       inkscape:collect="always"
       id="linearGradient1121">
      <stop
         style="stop-color:#000000;stop-opacity:0.21799436"
         offset="0"
         id="stop1117" />
      <stop
         style="stop-color:#000000;stop-opacity:0.3529391"
         offset="1"
         id="stop1119" />
    </linearGradient>
    <linearGradient
       inkscape:collect="always"
       id="linearGradient1113">
      <stop
         style="stop-color:#000000;stop-opacity:0.45095262"
         offset="0"
         id="stop1109" />
      <stop
         style="stop-color:#000000;stop-opacity:0.37254903"
         offset="0.56975871"
         id="stop955" />
      <stop
         style="stop-color:#000000;stop-opacity:0.37269127"
         offset="1"
         id="stop1111" />
    </linearGradient>
    <linearGradient
       inkscape:collect="always"
       id="linearGradient1103">
      <stop
         style="stop-color:#000000;stop-opacity:0.18654566"
         offset="0"
         id="stop1099" />
      <stop
         style="stop-color:#ffffff;stop-opacity:0"
         offset="0.33408317"
         id="stop1107" />
      <stop
         style="stop-color:#000000;stop-opacity:0.33627087"
         offset="1"
         id="stop1101" />
    </linearGradient>
    <linearGradient
       inkscape:collect="always"
       id="linearGradient1096">
      <stop
         style="stop-color:#000000;stop-opacity:0"
         offset="0"
         id="stop1092" />
      <stop
         style="stop-color:#000000;stop-opacity:0"
         offset="0.43914536"
         id="stop948" />
      <stop
         style="stop-color:#000000;stop-opacity:0.4611876"
         offset="1"
         id="stop1094" />
    </linearGradient>
    <linearGradient
       inkscape:collect="always"
       id="linearGradient1077-5">
      <stop
         style="stop-color:#000000;stop-opacity:0"
         offset="0"
         id="stop1073" />
      <stop
         style="stop-color:#000000;stop-opacity:0"
         offset="0.63571346"
         id="stop950" />
      <stop
         style="stop-color:#000000;stop-opacity:0.21057892"
         offset="1"
         id="stop1075" />
    </linearGradient>
    <linearGradient
       inkscape:collect="always"
       id="linearGradient2081">
      <stop
         style="stop-color:#eae0d9;stop-opacity:1"
         offset="0"
         id="stop2077" />
      <stop
         style="stop-color:#bda393;stop-opacity:1"
         offset="1"
         id="stop2079" />
    </linearGradient>
    <linearGradient
       inkscape:collect="always"
       id="linearGradient2071">
      <stop
         style="stop-color:#e0d0c6;stop-opacity:1"
         offset="0"
         id="stop2067" />
      <stop
         style="stop-color:#775e50;stop-opacity:1"
         offset="0.79775375"
         id="stop2075" />
      <stop
         style="stop-color:#ac998d;stop-opacity:1"
         offset="1"
         id="stop2069" />
    </linearGradient>
    <linearGradient
       inkscape:collect="always"
       id="linearGradient1633">
      <stop
         style="stop-color:#dfcabc;stop-opacity:1"
         offset="0"
         id="stop1629" />
      <stop
         style="stop-color:#b49d8d;stop-opacity:1"
         offset="1"
         id="stop1631" />
    </linearGradient>
    <clipPath
       clipPathUnits="userSpaceOnUse"
       id="clipPath1056">
      <path
         id="path1058"
         style="opacity:0.99777;fill:#007575;fill-opacity:1;stroke-width:20;stroke-linejoin:round;stroke-dasharray:20, 20"
         d="m 79.09233,68.893986 c -4.439214,0.0021 -8.703152,1.732696 -11.887129,4.826061 -1.961782,-1.463455 -4.343807,-2.254086 -6.791317,-2.254125 -6.272982,-1.59e-4 -11.358359,5.084987 -11.35848,11.357964 -5.6e-5,1.202809 0.190941,2.397988 0.565856,3.540869 -7.139443,0.921419 -12.484648,7.000478 -12.485026,14.199135 -1.88e-4,7.90768 6.410307,14.31816 14.317991,14.31798 H 71.005486 V 103.05676 H 63.089174 L 75.405215,81.724728 87.72126,103.05676 h -7.916312 v 11.82511 h 19.44584 c 6.212452,-1.9e-4 11.248502,-5.03647 11.248412,-11.24892 -1.1e-4,-5.575417 -4.08426,-10.309479 -9.59941,-11.126968 -0.82666,-2.78443 -2.480632,-5.251598 -4.742351,-7.073987 C 95.871334,76.216452 88.318007,68.893976 79.098013,68.893986 Z" />
    </clipPath>
    <clipPath
       clipPathUnits="userSpaceOnUse"
       id="clipPath1403">
      <path
         id="path1405"
         style="opacity:0.99777;fill:#e3d6ce;fill-opacity:1;stroke-width:18.1701;stroke-linejoin:round;stroke-dasharray:18.1701, 18.1701"
         d="m 210.07792,66.15181 c 14.06691,-3.013678 26.64946,-1.729639 38.73275,-1.828665 1.64388,16.138647 5.40444,32.277294 7.04832,48.415935 -12.91091,-1.56358 -25.82183,-0.85393 -38.73275,1.82867 -1.64388,-16.138649 -5.40444,-32.277296 -7.04832,-48.41594 z"
         sodipodi:nodetypes="ccccc" />
    </clipPath>
    <clipPath
       clipPathUnits="userSpaceOnUse"
       id="clipPath1853">
      <path
         id="path1855"
         style="opacity:0.99777;fill:url(#linearGradient1857);fill-opacity:1;stroke-width:35.1769;stroke-linejoin:round;stroke-dasharray:35.1769, 35.1769"
         d="m 231.23118,155.06772 29.72113,16.85399 c -9.04709,10.46225 -12.74555,18.4942 -17.38315,29.19196 -9.73066,-5.618 -19.99048,-11.23599 -29.72113,-16.85398 4.42805,-11.71875 12.35022,-24.06886 17.38315,-29.19197 z"
         sodipodi:nodetypes="ccccc" />
    </clipPath>
    <linearGradient
       inkscape:collect="always"
       xlink:href="#linearGradient1633"
       id="linearGradient1857"
       gradientUnits="userSpaceOnUse"
       x1="228.99098"
       y1="156.45604"
       x2="251.24748"
       y2="191.85666" />
    <clipPath
       clipPathUnits="userSpaceOnUse"
       id="clipPath1403-6">
      <path
         id="path1405-2"
         style="opacity:0.99777;fill:#e3d6ce;fill-opacity:1;stroke-width:18.1701;stroke-linejoin:round;stroke-dasharray:18.1701, 18.1701"
         d="m 210.07792,66.15181 c 14.06691,-3.013678 26.64946,-1.729639 38.73275,-1.828665 1.64388,16.138647 5.40444,32.277294 7.04832,48.415935 -12.91091,-1.56358 -25.82183,-0.85393 -38.73275,1.82867 -1.64388,-16.138649 -5.40444,-32.277296 -7.04832,-48.41594 z"
         sodipodi:nodetypes="ccccc" />
    </clipPath>
    <clipPath
       clipPathUnits="userSpaceOnUse"
       id="clipPath1853-8">
      <path
         id="path1855-7"
         style="opacity:0.99777;fill:url(#linearGradient1857);fill-opacity:1;stroke-width:35.1769;stroke-linejoin:round;stroke-dasharray:35.1769, 35.1769"
         d="m 231.23118,155.06772 29.72113,16.85399 c -9.04709,10.46225 -12.74555,18.4942 -17.38315,29.19196 -9.73066,-5.618 -19.99048,-11.23599 -29.72113,-16.85398 4.42805,-11.71875 12.35022,-24.06886 17.38315,-29.19197 z"
         sodipodi:nodetypes="ccccc" />
    </clipPath>
    <linearGradient
       inkscape:collect="always"
       xlink:href="#linearGradient2071"
       id="linearGradient2073"
       x1="298.61374"
       y1="99.595192"
       x2="297.37686"
       y2="67.556953"
       gradientUnits="userSpaceOnUse"
       gradientTransform="matrix(1.2326326,0,0,1.2326326,-54.870979,-15.819053)" />
    <linearGradient
       inkscape:collect="always"
       xlink:href="#linearGradient2081"
       id="linearGradient2087"
       gradientUnits="userSpaceOnUse"
       x1="236.95692"
       y1="110.34055"
       x2="236.0316"
       y2="72.044434"
       gradientTransform="matrix(1.2326326,0,0,1.2326326,-54.870979,-15.819053)" />
    <radialGradient
       inkscape:collect="always"
       xlink:href="#linearGradient1077-5"
       id="radialGradient1079"
       cx="382.63943"
       cy="83.869415"
       fx="382.63943"
       fy="83.869415"
       r="15.50599"
       gradientTransform="matrix(1.8541863,-0.03349452,0.03412557,1.8891203,-366.00934,-70.599765)"
       gradientUnits="userSpaceOnUse" />
    <radialGradient
       inkscape:collect="always"
       xlink:href="#linearGradient1096"
       id="radialGradient1085"
       gradientUnits="userSpaceOnUse"
       gradientTransform="matrix(1.9640462,0.15516273,-0.15650328,1.981015,-394.51634,-156.40999)"
       cx="394.03027"
       cy="96.35907"
       fx="394.03027"
       fy="96.35907"
       r="15.50599" />
    <linearGradient
       inkscape:collect="always"
       xlink:href="#linearGradient1103"
       id="linearGradient1105"
       x1="1415.8477"
       y1="249.23145"
       x2="1536.3242"
       y2="249.23145"
       gradientUnits="userSpaceOnUse"
       gradientTransform="matrix(0.86420591,0,0,0.86420591,-1126.7095,-143.00442)" />
    <radialGradient
       inkscape:collect="always"
       xlink:href="#linearGradient1113"
       id="radialGradient1115"
       cx="390.44507"
       cy="79.37291"
       fx="390.44507"
       fy="79.37291"
       r="24.797258"
       gradientTransform="matrix(1.0688897,0.01388712,-0.00502167,0.38651698,-55.334565,43.090175)"
       gradientUnits="userSpaceOnUse" />
    <radialGradient
       inkscape:collect="always"
       xlink:href="#linearGradient1121"
       id="radialGradient934"
       gradientUnits="userSpaceOnUse"
       gradientTransform="matrix(3.7696747,-0.06369592,0.05605478,3.3174536,-1326.5212,-123.18867)"
       cx="385.01413"
       cy="100.86844"
       fx="385.01413"
       fy="100.86844"
       r="36.448277" />
    <radialGradient
       inkscape:collect="always"
       xlink:href="#linearGradient967"
       id="radialGradient959"
       gradientUnits="userSpaceOnUse"
       gradientTransform="matrix(1.002871,0,0,0.48040363,-24.445049,41.263044)"
       cx="390.20044"
       cy="82.693367"
       fx="390.20044"
       fy="82.693367"
       r="24.797258" />
    <radialGradient
       inkscape:collect="always"
       xlink:href="#linearGradient981"
       id="radialGradient973"
       gradientUnits="userSpaceOnUse"
       gradientTransform="matrix(0.99753567,0,0,0.60945643,-27.304263,35.176185)"
       cx="393.74713"
       cy="98.411179"
       fx="393.74713"
       fy="98.411179"
       r="36.448277" />
    <clipPath
       clipPathUnits="userSpaceOnUse"
       id="clipPath1363">
      <path
         id="path1365"
         style="fill:url(#radialGradient1367);fill-opacity:1;stroke-width:0.267268;stroke-linecap:round;stroke-linejoin:round"
         d="m 268.41732,247.55097 c -1.12963,-0.54482 -2.26691,-1.01825 -3.38808,-1.4105 -1.37871,-0.48236 -3.58327,-0.15137 -4.58681,0.90501 -0.9035,0.95107 -2.05569,2.93211 -2.43285,4.33953 -0.92879,3.46585 0.0702,7.19419 2.60756,9.73127 1.03035,1.03026 3.1235,2.23873 4.53092,2.61589 3.46581,0.92878 7.1941,-0.0702 9.73119,-2.60746 1.03027,-1.03034 2.23734,-3.12419 2.61358,-4.53184 0.33872,-1.2673 -0.47433,-3.21676 -1.58142,-4.16959 -0.90028,-0.77483 -1.87892,-1.52302 -2.91556,-2.2289 -1.20754,-0.82225 -3.26266,-2.00877 -4.57853,-2.64341 z"
         inkscape:path-effect="#path-effect1361"
         inkscape:original-d="m 270.7554,248.78815 a 16.123823,7.2120061 30 0 0 -8.26127,-3.40124 10.082382,10.082382 0 0 0 -3.47337,3.5613 10.082382,10.082382 0 0 0 3.6905,13.77278 10.082382,10.082382 0 0 0 13.77272,-3.69038 10.082382,10.082382 0 0 0 1.3476,-4.78862 16.123823,7.2120061 30 0 0 -7.07618,-5.45384 z" />
    </clipPath>
    <radialGradient
       inkscape:collect="always"
       xlink:href="#linearGradient1077-5"
       id="radialGradient1367"
       gradientUnits="userSpaceOnUse"
       gradientTransform="matrix(1.2207792,0.67571741,-0.68844834,1.2437795,-148.18347,-120.50608)"
       cx="382.63943"
       cy="83.869415"
       fx="382.63943"
       fy="83.869415"
       r="15.50599" />
    <radialGradient
       inkscape:collect="always"
       xlink:href="#linearGradient1390"
       id="radialGradient1377"
       gradientUnits="userSpaceOnUse"
       gradientTransform="matrix(1.002871,0,0,0.48040363,-29.736716,41.263044)"
       cx="390.20044"
       cy="82.693367"
       fx="390.20044"
       fy="82.693367"
       r="24.797258" />
    <mask
       maskUnits="userSpaceOnUse"
       id="mask1410">
      <path
         id="path1412"
         style="fill:url(#radialGradient1414);fill-opacity:1;stroke-width:0.355222;stroke-linecap:round;stroke-linejoin:round"
         d="m 361.60965,69.605712 a 21.429937,9.5853708 0 0 0 -21.43022,9.585461 21.429937,9.5853708 0 0 0 8.30802,7.57835 c -0.007,-0.0318 -0.0143,-0.0632 -0.0207,-0.09509 -0.28464,-1.430867 -0.28364,-3.827032 0.003,-5.25756 0.0909,-0.454117 0.20526,-0.903375 0.34262,-1.345655 0.4327,-1.393235 2.16466,-2.774894 3.59358,-3.078882 2.06944,-0.440253 4.2845,-0.729181 6.5598,-0.85576 1.45881,-0.08116 3.82977,-0.08116 5.28857,0 2.2753,0.126576 4.49036,0.415507 6.55981,0.85576 1.42892,0.303991 3.1604,1.685637 3.59306,3.078882 0.13734,0.44227 0.25177,0.891548 0.34261,1.345655 0.28619,1.430534 0.28722,3.826698 0.003,5.25756 -0.006,0.03189 -0.0141,0.06328 -0.0207,0.09509 a 21.429937,9.5853708 0 0 0 8.30802,-7.57835 21.429937,9.5853708 0 0 0 -21.4297,-9.585461 z" />
    </mask>
    <radialGradient
       inkscape:collect="always"
       xlink:href="#linearGradient1408"
       id="radialGradient1414"
       gradientUnits="userSpaceOnUse"
       gradientTransform="matrix(1.0479392,0,0,0.48040364,-47.322355,41.263043)"
       cx="391.21036"
       cy="82.693367"
       fx="391.21036"
       fy="82.693367"
       r="24.797258" />
    <radialGradient
       inkscape:collect="always"
       xlink:href="#linearGradient1121"
       id="radialGradient1416"
       gradientUnits="userSpaceOnUse"
       gradientTransform="matrix(0.99739309,-0.01685288,0.01483116,0.87774292,-28.682213,15.839692)"
       cx="385.01413"
       cy="100.86844"
       fx="385.01413"
       fy="100.86844"
       r="36.448277" />
    <linearGradient
       inkscape:collect="always"
       xlink:href="#linearGradient1103"
       id="linearGradient1418"
       gradientUnits="userSpaceOnUse"
       gradientTransform="matrix(0.22865448,0,0,0.22865448,24.184632,10.596775)"
       x1="1415.8477"
       y1="249.23145"
       x2="1536.3242"
       y2="249.23145" />
    <radialGradient
       inkscape:collect="always"
       xlink:href="#linearGradient1428"
       id="radialGradient1430"
       cx="328.61835"
       cy="88.026115"
       fx="328.61835"
       fy="88.026115"
       r="30.687826"
       gradientTransform="matrix(0.11093955,-0.05314374,0.11222108,0.23426582,306.56003,86.556393)"
       gradientUnits="userSpaceOnUse" />
    <clipPath
       clipPathUnits="userSpaceOnUse"
       id="clipPath1438">
      <path
         id="path1440"
         style="fill:#000000;fill-opacity:0;stroke-width:0.355222;stroke-linecap:round;stroke-linejoin:round"
         d="m 358.96563,76.136409 c -2.2753,0.126579 -4.49012,0.415676 -6.55956,0.85593 -1.42891,0.303988 -3.16072,1.685782 -3.59342,3.079018 -0.13736,0.44228 -0.25171,0.891389 -0.34257,1.345507 -0.28622,1.430528 -0.28726,3.82677 -0.003,5.257638 1.05271,5.291909 5.22176,9.460905 10.51369,10.513536 1.43086,0.284617 3.82706,0.284602 5.25793,-3.6e-5 5.29185,-1.05269 9.46082,-5.221662 10.51351,-10.513511 0.28464,-1.430862 0.28363,-3.827099 -0.003,-5.257634 -0.0908,-0.454106 -0.20518,-0.903204 -0.34252,-1.345474 -0.43266,-1.393246 -2.16445,-2.775058 -3.59338,-3.079047 -2.06944,-0.440254 -4.28425,-0.72935 -6.55956,-0.855928 -1.4588,-0.08116 -3.83013,-0.08116 -5.28894,10e-7 z"
         inkscape:path-effect="#path-effect1434"
         inkscape:original-d="m 361.61011,76.063126 a 21.429936,9.585371 0 0 0 -11.76916,1.575062 13.400346,13.400346 0 0 0 -1.63129,6.407344 13.400346,13.400346 0 0 0 13.40045,13.40027 13.400346,13.400346 0 0 0 13.40028,-13.40027 13.400346,13.400346 0 0 0 -1.63112,-6.407344 21.429936,9.585371 0 0 0 -11.76916,-1.575062 z" />
    </clipPath>
    <radialGradient
       inkscape:collect="always"
       xlink:href="#linearGradient1428"
       id="radialGradient1456"
       gradientUnits="userSpaceOnUse"
       gradientTransform="matrix(0.11093955,-0.05314374,0.11222108,0.23426582,306.56003,86.556393)"
       cx="328.61835"
       cy="88.026115"
       fx="328.61835"
       fy="88.026115"
       r="30.687826" />
    <filter
       inkscape:collect="always"
       style="color-interpolation-filters:sRGB"
       id="filter1622"
       x="-0.14734299"
       width="1.294686"
       y="-0.16560332"
       height="1.3312066">
      <feGaussianBlur
         inkscape:collect="always"
         stdDeviation="3.7680299"
         id="feGaussianBlur1624" />
    </filter>
    <clipPath
       clipPathUnits="userSpaceOnUse"
       id="clipPath1629">
      <path
         id="path1631"
         style="fill:#606060;fill-opacity:1;stroke:none;stroke-width:0.499999;stroke-linecap:round;stroke-linejoin:round;stroke-opacity:1"
         d="m 322.29318,48.433361 v 78.632409 h 78.63241 V 48.433361 Z m 39.30664,11.739852 c 0.95736,-5.03e-4 1.91487,0.03505 2.6417,0.106453 4.0786,0.400693 7.55802,1.667506 9.52087,2.916618 1.19416,0.759939 1.70943,3.093972 1.70945,4.555277 v 4.129981 a 21.429937,9.5853708 0 0 1 7.5675,7.309631 21.429937,9.5853708 0 0 1 -8.30802,7.57835 c -0.44671,2.162818 -1.41475,4.134408 -2.76676,5.778976 8.91752,3.677396 16.31954,11.611931 20.12022,19.793101 0.6155,1.32491 -0.16139,2.43965 -1.62264,2.43965 h -57.70552 c -1.46125,0 -2.23811,-1.11473 -1.62264,-2.43965 3.80037,-8.18099 11.20178,-16.117628 20.11919,-19.794651 -1.35139,-1.644283 -2.31915,-3.615235 -2.76573,-5.777426 a 21.429937,9.5853708 0 0 1 -8.30802,-7.57835 21.429937,9.5853708 0 0 1 7.74527,-7.376294 c 10e-6,-1.316417 -2e-5,-2.798565 0,-4.052982 10e-6,-1.461257 0.50054,-3.804026 1.68827,-4.574398 1.91808,-1.244098 5.31102,-2.501693 9.34516,-2.904732 0.72671,-0.0726 1.68434,-0.10905 2.6417,-0.109554 z" />
    </clipPath>
  </defs>
  <sodipodi:namedview
     id="base"
     pagecolor="#e3e3e3"
     bordercolor="#666666"
     borderopacity="1.0"
     inkscape:pageopacity="1"
     inkscape:pageshadow="2"
     inkscape:zoom="1.5423312"
     inkscape:cx="1.3652207"
     inkscape:cy="114.74632"
     inkscape:document-units="mm"
     inkscape:current-layer="layer1"
     inkscape:document-rotation="0"
     showgrid="false"
     inkscape:snap-global="true"
     inkscape:snap-bbox="true"
     inkscape:bbox-paths="true"
     inkscape:bbox-nodes="true"
     inkscape:snap-bbox-edge-midpoints="true"
     inkscape:snap-bbox-midpoints="true"
     inkscape:snap-smooth-nodes="true"
     inkscape:snap-midpoints="true"
     inkscape:object-paths="true"
     inkscape:window-width="1920"
     inkscape:window-height="1003"
     inkscape:window-x="0"
     inkscape:window-y="40"
     inkscape:window-maximized="1"
     inkscape:snap-page="true"
     inkscape:pagecheckerboard="true" />
  <metadata
     id="metadata5">
    <rdf:RDF>
      <cc:Work
         rdf:about="">
        <dc:format>image/svg+xml</dc:format>
        <dc:type
           rdf:resource="http://purl.org/dc/dcmitype/StillImage" />
        <dc:title></dc:title>
      </cc:Work>
    </rdf:RDF>
  </metadata>
  <g
     inkscape:label="Layer 1"
     inkscape:groupmode="layer"
     id="layer1"
     transform="translate(-322.29318,-48.433361)">
    <path
       id="path1458"
       style="fill:#000000;fill-opacity:0.39283;stroke-width:0.226842;stroke-linecap:round;stroke-linejoin:round;filter:url(#filter1622)"
       d="m 365.30397,63.348212 c -0.95736,5.04e-4 -1.91499,0.03695 -2.6417,0.109554 -4.03414,0.403039 -7.42707,1.660634 -9.34516,2.904732 -1.18773,0.770372 -1.68826,3.113141 -1.68827,4.574398 -2e-5,1.254417 10e-6,2.736565 0,4.052982 a 21.429937,9.5853709 0 0 0 -7.74527,7.376294 21.429937,9.5853709 0 0 0 8.30802,7.578349 c 0.44658,2.162191 1.41434,4.133146 2.76573,5.777426 -8.91741,3.677019 -16.31882,11.613653 -20.11919,19.794643 -0.61547,1.32492 0.16139,2.43965 1.62264,2.43965 h 57.70552 c 1.46125,0 2.23814,-1.11474 1.62264,-2.43965 -3.80068,-8.18117 -11.2027,-16.115704 -20.12022,-19.793093 1.35201,-1.644567 2.32005,-3.616158 2.76676,-5.778976 a 21.429937,9.5853709 0 0 0 8.30802,-7.578349 21.429937,9.5853709 0 0 0 -7.5675,-7.309631 V 70.92656 c -2e-5,-1.461306 -0.51529,-3.795338 -1.70945,-4.555277 -1.96285,-1.249112 -5.44227,-2.515925 -9.52087,-2.916618 -0.72683,-0.0714 -1.68434,-0.106957 -2.6417,-0.106453 z"
       clip-path="url(#clipPath1629)" />
    <path
       id="path897"
       style="fill:#8f7fdd;fill-opacity:1;stroke-width:0.226842;stroke-linecap:round;stroke-linejoin:round"
       d="m 356.30815,60.173213 c -0.95736,5.04e-4 -1.91499,0.03695 -2.6417,0.109554 -4.03414,0.403039 -7.42707,1.660634 -9.34516,2.904732 -1.18773,0.770372 -1.68826,3.113141 -1.68827,4.574398 -2e-5,1.254417 1e-5,2.736565 0,4.052982 a 21.429937,9.5853709 0 0 0 -7.74527,7.376294 21.429937,9.5853709 0 0 0 8.30802,7.578349 c 0.44658,2.162191 1.41434,4.133146 2.76573,5.777426 -8.91741,3.677023 -16.31882,11.613662 -20.11919,19.794652 -0.61547,1.32492 0.16139,2.43965 1.62264,2.43965 h 57.70552 c 1.46125,0 2.23814,-1.11474 1.62264,-2.43965 -3.80068,-8.18117 -11.2027,-16.115705 -20.12022,-19.793102 1.35201,-1.644567 2.32005,-3.616158 2.76676,-5.778976 a 21.429937,9.5853709 0 0 0 8.30802,-7.578349 21.429937,9.5853709 0 0 0 -7.5675,-7.309631 v -4.129981 c -2e-5,-1.461306 -0.51529,-3.795338 -1.70945,-4.555277 -1.96285,-1.249112 -5.44227,-2.515925 -9.52087,-2.916618 -0.72683,-0.0714 -1.68434,-0.106957 -2.6417,-0.106453 z"
       mask="none" />
    <g
       id="g1454"
       transform="translate(-89.95835)">
      <path
         id="path1450"
         style="fill:#ffffff;fill-opacity:1;stroke-width:0.226842;stroke-linecap:round;stroke-linejoin:round"
         d="m 361.59981,60.173213 c -0.95736,5.04e-4 -1.91499,0.03695 -2.6417,0.109554 -4.03414,0.403039 -7.42707,1.660634 -9.34516,2.904732 -1.18773,0.770372 -1.68826,3.113141 -1.68827,4.574398 -2e-5,1.254417 10e-6,2.736565 0,4.052982 a 21.429937,9.5853709 0 0 0 -7.74527,7.376294 21.429937,9.5853709 0 0 0 8.30802,7.578349 c 0.44658,2.162191 1.41434,4.133146 2.76573,5.777426 -8.91741,3.677023 -16.31882,11.613662 -20.11919,19.794652 -0.61547,1.32492 0.16139,2.43965 1.62264,2.43965 h 57.70552 c 1.46125,0 2.23814,-1.11474 1.62264,-2.43965 -3.80068,-8.18117 -11.2027,-16.115705 -20.12022,-19.793102 1.35201,-1.644567 2.32005,-3.616158 2.76676,-5.778976 a 21.429937,9.5853709 0 0 0 8.30802,-7.578349 21.429937,9.5853709 0 0 0 -7.5675,-7.309631 v -4.129981 c -2e-5,-1.461306 -0.51529,-3.795338 -1.70945,-4.555277 -1.96285,-1.249112 -5.44227,-2.515925 -9.52087,-2.916618 -0.72683,-0.0714 -1.68434,-0.106957 -2.6417,-0.106453 z" />
      <path
         id="path1452"
         style="fill:url(#radialGradient1456);fill-opacity:1;stroke-width:0.226842;stroke-linecap:round;stroke-linejoin:round"
         d="m 361.59981,60.173213 c -0.95736,5.04e-4 -1.91499,0.03695 -2.6417,0.109554 -4.03414,0.403039 -7.42707,1.660634 -9.34516,2.904732 -1.18773,0.770372 -1.68826,3.113141 -1.68827,4.574398 -2e-5,1.254417 10e-6,2.736565 0,4.052982 a 21.429937,9.5853709 0 0 0 -7.74527,7.376294 21.429937,9.5853709 0 0 0 8.30802,7.578349 c 0.44658,2.162191 1.41434,4.133146 2.76573,5.777426 -8.91741,3.677023 -16.31882,11.613662 -20.11919,19.794652 -0.61547,1.32492 0.16139,2.43965 1.62264,2.43965 h 57.70552 c 1.46125,0 2.23814,-1.11474 1.62264,-2.43965 -3.80068,-8.18117 -11.2027,-16.115705 -20.12022,-19.793102 1.35201,-1.644567 2.32005,-3.616158 2.76676,-5.778976 a 21.429937,9.5853709 0 0 0 8.30802,-7.578349 21.429937,9.5853709 0 0 0 -7.5675,-7.309631 v -4.129981 c -2e-5,-1.461306 -0.51529,-3.795338 -1.70945,-4.555277 -1.96285,-1.249112 -5.44227,-2.515925 -9.52087,-2.916618 -0.72683,-0.0714 -1.68434,-0.106957 -2.6417,-0.106453 z"
         clip-path="url(#clipPath1438)" />
    </g>
    <path
       id="path1066"
       style="fill:url(#radialGradient1416);fill-opacity:1;stroke-width:0.629597;stroke-linecap:round;stroke-linejoin:round"
       d="m 351.25317,92.546948 c -8.91741,3.677023 -16.31882,11.613662 -20.11919,19.794652 -0.61547,1.32492 0.16139,2.43965 1.62264,2.43965 h 57.70552 c 1.46125,0 2.23815,-1.11474 1.62264,-2.43965 -3.80068,-8.18117 -11.2027,-16.115705 -20.12022,-19.793102 -1.9276,2.344719 -4.63458,4.024514 -7.72614,4.639509 -1.43087,0.284639 -3.82669,0.284617 -5.25756,0 -3.09227,-0.61509 -5.79998,-2.295538 -7.72769,-4.641059 z" />
    <path
       id="ellipse1038"
       style="fill:url(#linearGradient1418);fill-opacity:1;stroke-width:0.226842;stroke-linecap:round;stroke-linejoin:round"
       d="m 361.59982,60.173213 c -0.95736,5.02e-4 -1.91499,0.03696 -2.6417,0.109554 -4.03414,0.403039 -7.42706,1.660635 -9.34516,2.904732 -1.18773,0.770372 -1.68826,3.113141 -1.68827,4.574398 -2e-5,1.254417 10e-6,2.736565 0,4.052982 a 21.429937,9.5853709 0 0 1 13.68495,-2.209167 21.429937,9.5853709 0 0 1 13.8622,2.27583 v -4.129981 c -2e-5,-1.461306 -0.51529,-3.795338 -1.70945,-4.555277 -1.96285,-1.249112 -5.44279,-2.515925 -9.52139,-2.916618 -0.72682,-0.0714 -1.68382,-0.106955 -2.64118,-0.106453 z" />
    <path
       id="path1016"
       style="fill:url(#radialGradient1115);fill-opacity:1;stroke-width:0.355222;stroke-linecap:round;stroke-linejoin:round"
       d="m 361.60964,69.605712 a 21.429937,9.5853709 0 0 0 -21.43022,9.585461 21.429937,9.5853709 0 0 0 8.30802,7.578349 c -0.007,-0.0318 -0.0143,-0.0632 -0.0207,-0.09509 -0.28464,-1.430866 -0.28364,-3.827031 0.003,-5.257559 0.0909,-0.454117 0.20525,-0.903375 0.34261,-1.345655 0.4327,-1.393235 2.16467,-2.774894 3.59358,-3.078882 2.06944,-0.440253 4.2845,-0.729181 6.55981,-0.85576 1.45881,-0.08116 3.82976,-0.08116 5.28856,0 2.27531,0.126576 4.49037,0.415507 6.55981,0.85576 1.42892,0.30399 3.1604,1.685637 3.59306,3.078882 0.13735,0.44227 0.25177,0.891548 0.34262,1.345655 0.28619,1.430533 0.28722,3.826698 0.003,5.257559 -0.006,0.03189 -0.0141,0.06328 -0.0207,0.09509 a 21.429937,9.5853709 0 0 0 8.30802,-7.578349 21.429937,9.5853709 0 0 0 -21.4297,-9.585461 z"
       mask="url(#mask1410)" />
    <path
       id="path1083"
       style="fill:url(#radialGradient1085);fill-opacity:1;stroke-width:0.355221;stroke-linecap:round;stroke-linejoin:round"
       d="m 358.9651,76.136383 c -2.2753,0.126579 -4.49012,0.415676 -6.55956,0.85593 -1.42891,0.303988 -3.16072,1.685782 -3.59342,3.079018 -0.13736,0.442279 -0.2517,0.891388 -0.34257,1.345506 -0.28622,1.430528 -0.28726,3.82677 -0.003,5.257638 1.05271,5.291908 5.22176,9.460903 10.51369,10.513534 1.43086,0.284617 3.82706,0.284602 5.25793,-3.6e-5 5.29185,-1.05269 9.46082,-5.221661 10.51351,-10.513509 0.28464,-1.430862 0.28363,-3.827099 -0.003,-5.257634 -0.0908,-0.454105 -0.20518,-0.903203 -0.34252,-1.345473 -0.43266,-1.393246 -2.16445,-2.775058 -3.59338,-3.079047 -2.06944,-0.440254 -4.28425,-0.72935 -6.55956,-0.855928 -1.4588,-0.08115 -3.83013,-0.08115 -5.28894,10e-7 z"
       inkscape:path-effect="#path-effect889"
       inkscape:original-d="m 361.60958,76.0631 a 21.429936,9.5853711 0 0 0 -11.76916,1.575062 13.400346,13.400346 0 0 0 -1.63129,6.407343 13.400346,13.400346 0 0 0 13.40045,13.400268 13.400346,13.400346 0 0 0 13.40028,-13.400268 13.400346,13.400346 0 0 0 -1.63112,-6.407343 21.429936,9.5853711 0 0 0 -11.76916,-1.575062 z" />
    <path
       id="path1014"
       style="fill:url(#radialGradient1079);fill-opacity:1;stroke-width:0.355221;stroke-linecap:round;stroke-linejoin:round"
       d="m 358.96563,76.136409 c -2.2753,0.126579 -4.49012,0.415676 -6.55956,0.85593 -1.42891,0.303988 -3.16072,1.685782 -3.59342,3.079018 -0.13736,0.442279 -0.2517,0.891388 -0.34257,1.345506 -0.28622,1.430528 -0.28726,3.82677 -0.003,5.257638 1.05271,5.291909 5.22176,9.460906 10.51369,10.513537 1.43086,0.284617 3.82706,0.284602 5.25793,-3.6e-5 5.29185,-1.052691 9.46082,-5.221662 10.51351,-10.513512 0.28464,-1.430862 0.28363,-3.827099 -0.003,-5.257634 -0.0908,-0.454105 -0.20518,-0.903203 -0.34252,-1.345473 -0.43266,-1.393246 -2.16445,-2.775058 -3.59338,-3.079047 -2.06944,-0.440254 -4.28425,-0.72935 -6.55956,-0.855928 -1.4588,-0.08116 -3.83013,-0.08116 -5.28894,10e-7 z"
       inkscape:path-effect="#path-effect891"
       inkscape:original-d="m 361.61011,76.063126 a 21.429936,9.5853711 0 0 0 -11.76916,1.575062 13.400346,13.400346 0 0 0 -1.63129,6.407343 13.400346,13.400346 0 0 0 13.40045,13.400271 13.400346,13.400346 0 0 0 13.40028,-13.400271 13.400346,13.400346 0 0 0 -1.63112,-6.407343 21.429936,9.5853711 0 0 0 -11.76916,-1.575062 z" />
    <path
       id="path971"
       style="fill:url(#radialGradient973);fill-opacity:1;stroke-width:0.629597;stroke-linecap:round;stroke-linejoin:round"
       d="m 351.25317,92.546948 c -8.91741,3.677023 -16.31882,11.613662 -20.11919,19.794652 -0.61547,1.32492 0.16139,2.43965 1.62264,2.43965 h 57.70552 c 1.46125,0 2.23815,-1.11474 1.62264,-2.43965 -3.80068,-8.18117 -11.2027,-16.115705 -20.12022,-19.793102 -1.9276,2.344719 -4.63458,4.024514 -7.72614,4.639509 -1.43087,0.284639 -3.82669,0.284617 -5.25756,0 -3.09227,-0.61509 -5.79998,-2.295538 -7.72769,-4.641059 z" />
  </g>
</svg>
